<svg width="32" height="29" viewBox="0 0 32 29" fill="none" xmlns="http://www.w3.org/2000/svg">
<path d="M17.9556 15.1906C18.2774 22.4411 3.91126 21.5739 0.405914 14.3234C1.35983 11.9414 3.33661 9.63258 5.83058 7.35504C5.8076 11.5863 6.78449 14.3234 8.38201 15.7651L8.70382 14.3131C9.69221 16.0055 11.3127 17.2696 13.1746 17.792L12.531 16.9249C13.8067 17.51 14.864 17.395 16.0363 17.2174L15.3927 16.9249C16.8868 16.9249 17.6798 16.298 17.9556 15.1906Z" fill="#8CBF47"/>
<path d="M15.2893 15.9532C7.31317 16.2458 8.26708 3.18647 16.2432 0C18.8636 0.867137 21.4035 2.66406 23.909 4.93116C19.2543 4.91026 16.2432 5.79839 14.6572 7.25058L16.2547 7.54301C14.3928 8.44149 13.0022 9.91459 12.4275 11.6071L13.3814 11.0221C12.8528 11.9937 12.8643 13.1428 13.0596 14.2085L13.3814 13.6235C13.3699 14.9817 14.071 15.713 15.2893 15.9532Z" fill="#1F3768"/>
<path d="M14.4503 13.5399C14.1285 6.2894 28.4947 7.15662 32 14.4071C31.0461 16.7891 29.0693 19.0979 26.5753 21.3755C26.5983 17.1443 25.6214 14.4071 24.0239 12.9654L23.7021 14.4176C22.7137 12.7251 21.0932 11.4609 19.2313 10.9385L19.8749 11.8057C18.9095 11.4192 17.5419 11.3356 16.3696 11.5132L17.0132 11.8057C15.5076 11.7953 14.7146 12.422 14.4503 13.5399Z" fill="#8CBF47"/>
<path d="M17.1052 12.7667C25.0812 12.4742 24.1273 25.5335 16.1512 28.72C13.5309 27.8528 10.9909 26.0559 8.48545 23.7888C13.1401 23.8097 16.1512 22.9217 17.7373 21.4695L16.1397 21.177C18.0016 20.2785 19.3922 18.8054 19.9669 17.1129L19.013 17.698C19.5417 16.9249 19.5302 15.5771 19.3348 14.5115L19.013 15.0966C19.0245 13.7385 18.3349 13.0175 17.1052 12.7667Z" fill="#1F3768"/>
</svg>
