<svg width="1125" height="197" viewBox="0 0 1125 197" fill="none" xmlns="http://www.w3.org/2000/svg">
<path d="M1031.98 25.02H68.76C57.7143 25.02 48.76 33.9743 48.76 45.02V151.99C48.76 163.036 57.7143 171.99 68.76 171.99H1031.98C1043.03 171.99 1051.98 163.036 1051.98 151.99V45.02C1051.98 33.9743 1043.03 25.02 1031.98 25.02Z" fill="#8CBF47"/>
<path d="M909.48 152.79L917.84 121.6C911.103 109.439 908.978 95.2564 911.856 81.6553C914.733 68.0541 922.42 55.947 933.505 47.5564C944.589 39.1658 958.328 35.0547 972.2 35.9777C986.071 36.9006 999.145 42.7957 1009.02 52.5809C1018.9 62.366 1024.91 75.3847 1025.96 89.2472C1027.01 103.11 1023.03 116.886 1014.74 128.047C1006.45 139.208 994.412 147.005 980.838 150.007C967.264 153.01 953.062 151.015 940.84 144.39L909.48 152.79ZM942.39 132.7L944.39 133.88C954.222 139.763 965.867 141.845 977.129 139.731C988.39 137.618 998.488 131.457 1005.52 122.409C1012.55 113.362 1016.02 102.054 1015.29 90.6198C1014.56 79.1855 1009.66 68.4154 1001.53 60.3415C993.403 52.2676 982.599 47.4483 971.16 46.7929C959.721 46.1375 948.438 49.6913 939.439 56.7838C930.44 63.8763 924.348 74.017 922.313 85.2926C920.277 96.5681 922.439 108.199 928.39 117.99L929.6 119.99L924.93 137.4L942.39 132.7Z" fill="#1F3768"/>
<path fill-rule="evenodd" clip-rule="evenodd" d="M989.64 101.78C987.26 100.36 984.18 98.78 981.39 99.92C979.25 100.8 977.88 104.15 976.49 105.92C976.193 106.324 975.758 106.605 975.268 106.71C974.778 106.815 974.266 106.737 973.83 106.49C965.99 103.412 959.421 97.773 955.19 90.49C954.83 90.0314 954.66 89.4525 954.714 88.8723C954.768 88.292 955.042 87.7545 955.48 87.37C956.82 85.79 958.48 84 958.87 81.87C959.26 79.74 958.23 77.26 957.35 75.36C956.23 72.94 954.97 69.49 952.55 68.12C950.32 66.86 947.38 67.57 945.4 69.19C943.758 70.6075 942.456 72.3763 941.591 74.3652C940.725 76.3542 940.318 78.5124 940.4 80.68C940.408 81.91 940.559 83.1349 940.85 84.33C941.615 87.1768 942.794 89.8958 944.35 92.4C945.472 94.307 946.691 96.156 948 97.94C952.288 103.82 957.67 108.818 963.85 112.66C966.959 114.593 970.277 116.17 973.74 117.36C977.61 118.64 981.06 119.97 985.24 119.17C989.62 118.34 993.94 115.63 995.68 111.41C996.243 110.156 996.41 108.761 996.16 107.41C995.54 104.72 991.84 103.1 989.64 101.78Z" fill="#1F3768"/>
<path d="M76.1113 74.585H105.361L105.924 86.285H104.911C103.524 82.235 101.911 79.4788 100.074 78.0163C98.2738 76.5538 95.5738 75.8225 91.9738 75.8225H90.3988V94.1038H92.9301C94.7301 94.1038 96.2301 93.4475 97.4301 92.135C98.6301 90.8225 99.4551 89.0225 99.9051 86.735H100.749V103.385H99.7926C99.1926 100.573 98.3488 98.5663 97.2613 97.3663C96.2113 96.1663 94.7676 95.5663 92.9301 95.5663H90.3988V112.723H97.3738V113.96H76.1113V112.723H79.4301V75.8225H76.1113V74.585ZM119.205 100.741H120.836V96.41C120.836 92.8475 120.63 90.4663 120.217 89.2663C119.842 88.0288 119.092 87.41 117.967 87.41C117.292 87.41 116.674 87.5975 116.111 87.9725C115.586 88.31 115.324 88.7975 115.324 89.435C115.324 90.035 115.436 90.6538 115.661 91.2913H117.067C117.367 92.0788 117.517 93.035 117.517 94.16C117.517 95.2475 117.049 96.2038 116.111 97.0288C115.174 97.8163 113.992 98.21 112.567 98.21C109.342 98.21 107.73 96.6538 107.73 93.5413C107.73 88.9288 111.649 86.6225 119.486 86.6225C123.949 86.6225 127.024 87.3913 128.711 88.9288C130.436 90.4288 131.299 93.2038 131.299 97.2538V108.673C131.299 110.623 131.842 111.598 132.93 111.598C134.205 111.598 134.955 109.666 135.18 105.804L136.024 105.86C135.874 109.16 135.255 111.429 134.167 112.666C133.08 113.904 131.299 114.523 128.824 114.523C124.324 114.523 121.736 113.135 121.061 110.36C120.574 111.785 119.842 112.835 118.867 113.51C117.892 114.185 116.467 114.523 114.592 114.523C109.042 114.523 106.267 112.254 106.267 107.716C106.267 105.054 107.317 103.235 109.417 102.26C111.555 101.248 114.817 100.741 119.205 100.741ZM116.955 107.66C116.955 109.61 117.049 110.866 117.236 111.429C117.461 111.991 117.855 112.273 118.417 112.273C119.017 112.273 119.561 111.804 120.049 110.866C120.574 109.891 120.836 108.56 120.836 106.873V101.641H120.442C118.117 101.641 116.955 103.348 116.955 106.76V107.66ZM136.352 71.7725H150.133V112.948H153.283V113.96H136.577V112.948H139.67V72.785H136.352V71.7725ZM169.168 114.523C164.331 114.523 160.693 113.285 158.256 110.81C155.856 108.298 154.656 104.829 154.656 100.404C154.656 95.9413 156.006 92.5288 158.706 90.1663C161.443 87.8038 164.912 86.6225 169.112 86.6225C177.624 86.6225 181.712 90.8975 181.374 99.4475H165.512V101.641C165.512 105.316 165.981 108.091 166.918 109.966C167.856 111.841 169.487 112.779 171.812 112.779C176.162 112.779 179.012 110.454 180.362 105.804L181.374 105.973C180.662 108.673 179.368 110.773 177.493 112.273C175.656 113.773 172.881 114.523 169.168 114.523ZM165.568 98.3225H171.362V95.5663C171.362 92.5288 171.174 90.4663 170.799 89.3788C170.462 88.2538 169.749 87.6913 168.662 87.6913C167.612 87.6913 166.824 88.2913 166.299 89.4913C165.812 90.6538 165.568 92.6788 165.568 95.5663V98.3225ZM209.236 87.635C207.586 87.635 206.404 88.535 205.692 90.335C204.979 92.135 204.623 95.1163 204.623 99.2788V102.204C204.623 105.916 205.036 108.579 205.861 110.191C206.686 111.804 208.204 112.61 210.417 112.61C212.629 112.61 214.392 111.86 215.704 110.36C217.017 108.86 217.861 107.154 218.236 105.241L219.248 105.354C218.536 108.579 217.223 110.904 215.311 112.329C213.361 113.791 210.679 114.523 207.267 114.523C202.917 114.523 199.579 113.36 197.254 111.035C194.929 108.673 193.767 105.241 193.767 100.741C193.767 96.2038 195.079 92.7163 197.704 90.2788C200.367 87.8413 204.061 86.6225 208.786 86.6225C212.123 86.6225 214.673 87.2788 216.436 88.5913C218.198 89.8663 219.079 91.4788 219.079 93.4288C219.079 95.3788 218.648 96.8038 217.786 97.7038C216.961 98.6038 215.798 99.0538 214.298 99.0538C212.836 99.0538 211.654 98.66 210.754 97.8725C209.854 97.085 209.404 95.9225 209.404 94.385C209.404 93.71 209.498 93.035 209.686 92.36H211.542C211.804 91.61 211.936 90.935 211.936 90.335C211.936 88.535 211.036 87.635 209.236 87.635ZM238.846 102.879V98.0975C238.846 94.46 238.639 91.8163 238.227 90.1663C237.852 88.4788 236.952 87.635 235.527 87.635C234.702 87.635 234.027 87.8788 233.502 88.3663C233.014 88.8163 232.658 89.585 232.433 90.6725C232.096 92.36 231.927 94.9288 231.927 98.3788V102.766C231.927 106.854 232.039 109.31 232.264 110.135C232.527 110.96 232.789 111.635 233.052 112.16C233.464 113.06 234.271 113.51 235.471 113.51C236.933 113.51 237.889 112.666 238.339 110.979C238.677 109.779 238.846 107.079 238.846 102.879ZM235.358 114.523C230.671 114.523 227.127 113.323 224.727 110.923C222.327 108.523 221.127 105.091 221.127 100.629C221.127 96.1288 222.402 92.6788 224.952 90.2788C227.539 87.8413 231.158 86.6225 235.808 86.6225C240.458 86.6225 243.927 87.7475 246.214 89.9975C248.502 92.21 249.646 95.6038 249.646 100.179C249.646 109.741 244.883 114.523 235.358 114.523ZM251.219 87.185H264.775V92.36C266.013 88.535 268.731 86.6225 272.931 86.6225C277.169 86.6225 279.738 88.6475 280.638 92.6975C281.95 88.6475 284.706 86.6225 288.906 86.6225C294.419 86.6225 297.175 89.7538 297.175 96.0163V112.948H300.325V113.96H284.744V112.948H286.713V94.6663C286.713 91.8163 286.469 90.1475 285.981 89.66C285.756 89.435 285.456 89.3225 285.081 89.3225C283.994 89.3225 283.038 90.0538 282.213 91.5163C281.388 92.9788 280.975 94.835 280.975 97.085V112.948H283V113.96H268.544V112.948H270.513V94.6663C270.513 91.8163 270.269 90.1475 269.781 89.66C269.556 89.435 269.256 89.3225 268.881 89.3225C267.831 89.3225 266.875 90.1288 266.013 91.7413C265.188 93.3163 264.775 95.21 264.775 97.4225V112.948H266.8V113.96H251.219V112.948H254.313V88.1975H251.219V87.185ZM309.42 83.3038C307.433 83.3038 306.008 82.7975 305.145 81.785C304.32 80.7725 303.908 79.5163 303.908 78.0163C303.908 76.5163 304.358 75.2788 305.258 74.3038C306.195 73.3288 307.602 72.8413 309.477 72.8413C311.352 72.8413 312.777 73.2913 313.752 74.1913C314.727 75.0538 315.214 76.31 315.214 77.96C315.214 79.5725 314.745 80.8663 313.808 81.8413C312.87 82.8163 311.408 83.3038 309.42 83.3038ZM300.927 87.185H314.708V112.948H317.858V113.96H301.152V112.948H304.245V88.1975H300.927V87.185ZM341.561 84.26L343.136 83.3038C343.361 82.1413 342.911 81.56 341.786 81.56C340.173 81.56 339.367 82.7975 339.367 85.2725C339.367 86.2475 339.498 87.3725 339.761 88.6475C342.611 90.56 344.036 93.0163 344.036 96.0163C344.036 98.9788 343.005 101.285 340.942 102.935C338.88 104.585 336.086 105.41 332.561 105.41C331.098 105.41 329.58 105.26 328.005 104.96C326.355 106.01 325.53 106.798 325.53 107.323C325.53 107.848 326.73 108.11 329.13 108.11H334.867C343.38 108.11 347.636 111.166 347.636 117.279C347.636 120.579 346.342 123.185 343.755 125.098C341.205 127.048 337.211 128.023 331.773 128.023C322.511 128.023 317.88 126.016 317.88 122.004C317.88 119.829 319.323 118.329 322.211 117.504L325.586 119.023C325.286 120.11 325.136 121.141 325.136 122.116C325.136 125.341 327.536 126.954 332.336 126.954C335.261 126.954 337.511 126.41 339.086 125.323C340.661 124.235 341.448 122.885 341.448 121.273C341.448 119.66 340.961 118.573 339.986 118.01C339.048 117.485 337.155 117.223 334.305 117.223H328.848C325.811 117.223 323.636 116.716 322.323 115.704C321.011 114.691 320.355 113.454 320.355 111.991C320.355 110.491 320.823 109.254 321.761 108.279C322.698 107.266 324.367 106.029 326.767 104.566C322.417 103.329 320.242 100.479 320.242 96.0163C320.242 93.2038 321.255 90.935 323.28 89.21C325.305 87.485 328.342 86.6225 332.392 86.6225C334.83 86.6225 336.911 87.0913 338.636 88.0288C338.411 87.0163 338.298 86.0975 338.298 85.2725C338.298 83.1725 338.861 81.6538 339.986 80.7163C341.111 79.7788 342.367 79.31 343.755 79.31C345.142 79.31 346.248 79.685 347.073 80.435C347.936 81.1475 348.367 82.1413 348.367 83.4163C348.367 84.6913 348.03 85.6475 347.355 86.285C346.68 86.885 345.855 87.185 344.88 87.185C343.942 87.185 343.155 86.9413 342.517 86.4538C341.917 85.9288 341.598 85.1975 341.561 84.26ZM329.636 94.7788V97.8163C329.636 100.329 329.842 102.035 330.255 102.935C330.705 103.835 331.361 104.285 332.223 104.285C333.123 104.285 333.761 103.854 334.136 102.991C334.548 102.091 334.755 100.273 334.755 97.535V94.7788C334.755 91.8538 334.567 89.9413 334.192 89.0413C333.817 88.1038 333.18 87.635 332.28 87.635C331.417 87.635 330.761 88.1225 330.311 89.0975C329.861 90.035 329.636 91.9288 329.636 94.7788ZM364.859 102.879V98.0975C364.859 94.46 364.653 91.8163 364.24 90.1663C363.865 88.4788 362.965 87.635 361.54 87.635C360.715 87.635 360.04 87.8788 359.515 88.3663C359.028 88.8163 358.671 89.585 358.446 90.6725C358.109 92.36 357.94 94.9288 357.94 98.3788V102.766C357.94 106.854 358.053 109.31 358.278 110.135C358.54 110.96 358.803 111.635 359.065 112.16C359.478 113.06 360.284 113.51 361.484 113.51C362.946 113.51 363.903 112.666 364.353 110.979C364.69 109.779 364.859 107.079 364.859 102.879ZM361.371 114.523C356.684 114.523 353.14 113.323 350.74 110.923C348.34 108.523 347.14 105.091 347.14 100.629C347.14 96.1288 348.415 92.6788 350.965 90.2788C353.553 87.8413 357.171 86.6225 361.821 86.6225C366.471 86.6225 369.94 87.7475 372.228 89.9975C374.515 92.21 375.659 95.6038 375.659 100.179C375.659 109.741 370.896 114.523 361.371 114.523ZM400.839 100.741H402.471V96.41C402.471 92.8475 402.264 90.4663 401.852 89.2663C401.477 88.0288 400.727 87.41 399.602 87.41C398.927 87.41 398.308 87.5975 397.746 87.9725C397.221 88.31 396.958 88.7975 396.958 89.435C396.958 90.035 397.071 90.6538 397.296 91.2913H398.702C399.002 92.0788 399.152 93.035 399.152 94.16C399.152 95.2475 398.683 96.2038 397.746 97.0288C396.808 97.8163 395.627 98.21 394.202 98.21C390.977 98.21 389.364 96.6538 389.364 93.5413C389.364 88.9288 393.283 86.6225 401.121 86.6225C405.583 86.6225 408.658 87.3913 410.346 88.9288C412.071 90.4288 412.933 93.2038 412.933 97.2538V108.673C412.933 110.623 413.477 111.598 414.564 111.598C415.839 111.598 416.589 109.666 416.814 105.804L417.658 105.86C417.508 109.16 416.889 111.429 415.802 112.666C414.714 113.904 412.933 114.523 410.458 114.523C405.958 114.523 403.371 113.135 402.696 110.36C402.208 111.785 401.477 112.835 400.502 113.51C399.527 114.185 398.102 114.523 396.227 114.523C390.677 114.523 387.902 112.254 387.902 107.716C387.902 105.054 388.952 103.235 391.052 102.26C393.189 101.248 396.452 100.741 400.839 100.741ZM398.589 107.66C398.589 109.61 398.683 110.866 398.871 111.429C399.096 111.991 399.489 112.273 400.052 112.273C400.652 112.273 401.196 111.804 401.683 110.866C402.208 109.891 402.471 108.56 402.471 106.873V101.641H402.077C399.752 101.641 398.589 103.348 398.589 106.76V107.66ZM440.493 84.26L442.068 83.3038C442.293 82.1413 441.843 81.56 440.718 81.56C439.105 81.56 438.299 82.7975 438.299 85.2725C438.299 86.2475 438.43 87.3725 438.693 88.6475C441.543 90.56 442.968 93.0163 442.968 96.0163C442.968 98.9788 441.936 101.285 439.874 102.935C437.811 104.585 435.018 105.41 431.493 105.41C430.03 105.41 428.511 105.26 426.936 104.96C425.286 106.01 424.461 106.798 424.461 107.323C424.461 107.848 425.661 108.11 428.061 108.11H433.799C442.311 108.11 446.568 111.166 446.568 117.279C446.568 120.579 445.274 123.185 442.686 125.098C440.136 127.048 436.143 128.023 430.705 128.023C421.443 128.023 416.811 126.016 416.811 122.004C416.811 119.829 418.255 118.329 421.143 117.504L424.518 119.023C424.218 120.11 424.068 121.141 424.068 122.116C424.068 125.341 426.468 126.954 431.268 126.954C434.193 126.954 436.443 126.41 438.018 125.323C439.593 124.235 440.38 122.885 440.38 121.273C440.38 119.66 439.893 118.573 438.918 118.01C437.98 117.485 436.086 117.223 433.236 117.223H427.78C424.743 117.223 422.568 116.716 421.255 115.704C419.943 114.691 419.286 113.454 419.286 111.991C419.286 110.491 419.755 109.254 420.693 108.279C421.63 107.266 423.299 106.029 425.699 104.566C421.349 103.329 419.174 100.479 419.174 96.0163C419.174 93.2038 420.186 90.935 422.211 89.21C424.236 87.485 427.274 86.6225 431.324 86.6225C433.761 86.6225 435.843 87.0913 437.568 88.0288C437.343 87.0163 437.23 86.0975 437.23 85.2725C437.23 83.1725 437.793 81.6538 438.918 80.7163C440.043 79.7788 441.299 79.31 442.686 79.31C444.074 79.31 445.18 79.685 446.005 80.435C446.868 81.1475 447.299 82.1413 447.299 83.4163C447.299 84.6913 446.961 85.6475 446.286 86.285C445.611 86.885 444.786 87.185 443.811 87.185C442.874 87.185 442.086 86.9413 441.449 86.4538C440.849 85.9288 440.53 85.1975 440.493 84.26ZM428.568 94.7788V97.8163C428.568 100.329 428.774 102.035 429.186 102.935C429.636 103.835 430.293 104.285 431.155 104.285C432.055 104.285 432.693 103.854 433.068 102.991C433.48 102.091 433.686 100.273 433.686 97.535V94.7788C433.686 91.8538 433.499 89.9413 433.124 89.0413C432.749 88.1038 432.111 87.635 431.211 87.635C430.349 87.635 429.693 88.1225 429.243 89.0975C428.793 90.035 428.568 91.9288 428.568 94.7788ZM463.791 102.879V98.0975C463.791 94.46 463.584 91.8163 463.172 90.1663C462.797 88.4788 461.897 87.635 460.472 87.635C459.647 87.635 458.972 87.8788 458.447 88.3663C457.959 88.8163 457.603 89.585 457.378 90.6725C457.041 92.36 456.872 94.9288 456.872 98.3788V102.766C456.872 106.854 456.984 109.31 457.209 110.135C457.472 110.96 457.734 111.635 457.997 112.16C458.409 113.06 459.216 113.51 460.416 113.51C461.878 113.51 462.834 112.666 463.284 110.979C463.622 109.779 463.791 107.079 463.791 102.879ZM460.303 114.523C455.616 114.523 452.072 113.323 449.672 110.923C447.272 108.523 446.072 105.091 446.072 100.629C446.072 96.1288 447.347 92.6788 449.897 90.2788C452.484 87.8413 456.103 86.6225 460.753 86.6225C465.403 86.6225 468.872 87.7475 471.159 89.9975C473.447 92.21 474.591 95.6038 474.591 100.179C474.591 109.741 469.828 114.523 460.303 114.523ZM494.951 88.76C493.564 88.76 492.345 89.66 491.295 91.46C490.245 93.26 489.72 95.3975 489.72 97.8725V112.948H493.714V113.96H476.164V112.948H479.258V88.1975H476.164V87.185H489.72V92.585C490.208 90.6725 491.145 89.21 492.533 88.1975C493.92 87.1475 495.495 86.6225 497.258 86.6225C499.02 86.6225 500.445 87.1288 501.533 88.1413C502.658 89.1163 503.22 90.5225 503.22 92.36C503.22 94.16 502.808 95.5475 501.983 96.5225C501.158 97.4975 499.883 97.985 498.158 97.985C496.47 97.985 495.214 97.4225 494.389 96.2975C493.601 95.1725 493.508 93.6163 494.108 91.6288H496.133C497.07 89.7163 496.676 88.76 494.951 88.76ZM516.69 100.741H518.322V96.41C518.322 92.8475 518.115 90.4663 517.703 89.2663C517.328 88.0288 516.578 87.41 515.453 87.41C514.778 87.41 514.159 87.5975 513.597 87.9725C513.072 88.31 512.809 88.7975 512.809 89.435C512.809 90.035 512.922 90.6538 513.147 91.2913H514.553C514.853 92.0788 515.003 93.035 515.003 94.16C515.003 95.2475 514.534 96.2038 513.597 97.0288C512.659 97.8163 511.478 98.21 510.053 98.21C506.828 98.21 505.215 96.6538 505.215 93.5413C505.215 88.9288 509.134 86.6225 516.972 86.6225C521.434 86.6225 524.509 87.3913 526.197 88.9288C527.922 90.4288 528.784 93.2038 528.784 97.2538V108.673C528.784 110.623 529.328 111.598 530.415 111.598C531.69 111.598 532.44 109.666 532.665 105.804L533.509 105.86C533.359 109.16 532.74 111.429 531.653 112.666C530.565 113.904 528.784 114.523 526.309 114.523C521.809 114.523 519.222 113.135 518.547 110.36C518.059 111.785 517.328 112.835 516.353 113.51C515.378 114.185 513.953 114.523 512.078 114.523C506.528 114.523 503.753 112.254 503.753 107.716C503.753 105.054 504.803 103.235 506.903 102.26C509.04 101.248 512.303 100.741 516.69 100.741ZM514.44 107.66C514.44 109.61 514.534 110.866 514.722 111.429C514.947 111.991 515.34 112.273 515.903 112.273C516.503 112.273 517.047 111.804 517.534 110.866C518.059 109.891 518.322 108.56 518.322 106.873V101.641H517.928C515.603 101.641 514.44 103.348 514.44 106.76V107.66ZM544.282 87.185H557.838V92.36C558.438 90.635 559.357 89.2475 560.594 88.1975C561.832 87.1475 563.707 86.6225 566.219 86.6225C572.032 86.6225 574.938 89.7538 574.938 96.0163V112.948H578.088V113.96H562.169V112.948H564.476V94.6663C564.476 92.4163 564.326 90.9725 564.026 90.335C563.726 89.66 563.182 89.3225 562.394 89.3225C561.194 89.3225 560.126 90.11 559.188 91.685C558.288 93.26 557.838 95.1725 557.838 97.4225V112.948H560.257V113.96H544.282V112.948H547.376V88.1975H544.282V87.185ZM597 102.879V98.0975C597 94.46 596.794 91.8163 596.381 90.1663C596.006 88.4788 595.106 87.635 593.681 87.635C592.856 87.635 592.181 87.8788 591.656 88.3663C591.169 88.8163 590.812 89.585 590.587 90.6725C590.25 92.36 590.081 94.9288 590.081 98.3788V102.766C590.081 106.854 590.194 109.31 590.419 110.135C590.681 110.96 590.944 111.635 591.206 112.16C591.619 113.06 592.425 113.51 593.625 113.51C595.087 113.51 596.044 112.666 596.494 110.979C596.831 109.779 597 107.079 597 102.879ZM593.512 114.523C588.825 114.523 585.281 113.323 582.881 110.923C580.481 108.523 579.281 105.091 579.281 100.629C579.281 96.1288 580.556 92.6788 583.106 90.2788C585.694 87.8413 589.312 86.6225 593.962 86.6225C598.612 86.6225 602.081 87.7475 604.369 89.9975C606.656 92.21 607.8 95.6038 607.8 100.179C607.8 109.741 603.037 114.523 593.512 114.523ZM642.768 102.598L647.437 86.3975L644.062 75.6538H640.856V74.585H658.293V75.6538H654.974L663.356 102.26L670.106 75.6538H664.424V74.585H675.674V75.6538H671.962L661.612 114.523H656.606L648.281 89.0975L640.968 114.523H636.074L621.899 75.6538H619.256V74.585H637.537V75.6538H633.599L642.768 102.598ZM676.555 71.7725H690.111V92.36C690.711 90.635 691.63 89.2475 692.867 88.1975C694.105 87.1475 695.98 86.6225 698.492 86.6225C704.305 86.6225 707.211 89.7538 707.211 96.0163V112.948H710.361V113.96H694.442V112.948H696.748V94.6663C696.748 92.4163 696.598 90.9725 696.298 90.335C695.998 89.66 695.455 89.3225 694.667 89.3225C693.467 89.3225 692.398 90.11 691.461 91.685C690.561 93.26 690.111 95.1725 690.111 97.4225V112.948H692.53V113.96H676.555V112.948H679.648V72.785H676.555V71.7725ZM724.716 100.741H726.348V96.41C726.348 92.8475 726.141 90.4663 725.729 89.2663C725.354 88.0288 724.604 87.41 723.479 87.41C722.804 87.41 722.185 87.5975 721.623 87.9725C721.098 88.31 720.835 88.7975 720.835 89.435C720.835 90.035 720.948 90.6538 721.173 91.2913H722.579C722.879 92.0788 723.029 93.035 723.029 94.16C723.029 95.2475 722.56 96.2038 721.623 97.0288C720.685 97.8163 719.504 98.21 718.079 98.21C714.854 98.21 713.241 96.6538 713.241 93.5413C713.241 88.9288 717.16 86.6225 724.998 86.6225C729.46 86.6225 732.535 87.3913 734.223 88.9288C735.948 90.4288 736.81 93.2038 736.81 97.2538V108.673C736.81 110.623 737.354 111.598 738.441 111.598C739.716 111.598 740.466 109.666 740.691 105.804L741.535 105.86C741.385 109.16 740.766 111.429 739.679 112.666C738.591 113.904 736.81 114.523 734.335 114.523C729.835 114.523 727.248 113.135 726.573 110.36C726.085 111.785 725.354 112.835 724.379 113.51C723.404 114.185 721.979 114.523 720.104 114.523C714.554 114.523 711.779 112.254 711.779 107.716C711.779 105.054 712.829 103.235 714.929 102.26C717.066 101.248 720.329 100.741 724.716 100.741ZM722.466 107.66C722.466 109.61 722.56 110.866 722.748 111.429C722.973 111.991 723.366 112.273 723.929 112.273C724.529 112.273 725.073 111.804 725.56 110.866C726.085 109.891 726.348 108.56 726.348 106.873V101.641H725.954C723.629 101.641 722.466 103.348 722.466 106.76V107.66ZM744.077 105.916V88.1975H740.983V87.185H744.077V79.9288L754.539 77.3413V87.185H761.852V88.1975H754.539V107.154C754.539 108.916 754.708 110.21 755.045 111.035C755.42 111.86 756.17 112.273 757.295 112.273C758.42 112.273 759.395 111.71 760.22 110.585C761.083 109.46 761.645 107.923 761.908 105.973L762.864 106.085C762.564 108.673 761.739 110.735 760.389 112.273C759.039 113.773 756.808 114.523 753.695 114.523C750.583 114.523 748.202 113.904 746.552 112.666C744.902 111.429 744.077 109.179 744.077 105.916ZM764.695 114.523V104.454H765.37C766.345 107.716 767.658 110.004 769.308 111.316C770.958 112.629 773.02 113.285 775.495 113.285C779.32 113.285 781.233 112.066 781.233 109.629C781.233 108.579 780.764 107.791 779.826 107.266C778.364 106.441 776.489 105.804 774.201 105.354C771.651 104.679 769.514 103.779 767.789 102.654C765.726 101.304 764.695 99.1663 764.695 96.2413C764.695 93.3163 765.595 90.9913 767.395 89.2663C769.195 87.5038 771.595 86.6225 774.595 86.6225C776.433 86.6225 778.326 87.0538 780.276 87.9163C780.989 88.2163 781.533 88.3663 781.908 88.3663C782.283 88.3663 782.601 88.235 782.864 87.9725C783.126 87.71 783.445 87.2225 783.82 86.51H784.439V95.1163H783.764C781.851 90.2413 778.889 87.8038 774.876 87.8038C773.114 87.8038 771.801 88.1225 770.939 88.76C770.076 89.36 769.645 90.1288 769.645 91.0663C769.645 91.6288 769.776 92.0788 770.039 92.4163C770.301 92.7163 770.508 92.9413 770.658 93.0913C770.808 93.2413 771.051 93.41 771.389 93.5975C771.726 93.7475 772.008 93.8788 772.233 93.9913C772.458 94.0663 772.795 94.1788 773.245 94.3288C773.733 94.4788 774.089 94.5725 774.314 94.61C776.864 95.2475 778.701 95.81 779.826 96.2975C780.951 96.7475 782.02 97.31 783.033 97.985C785.095 99.41 786.126 101.716 786.126 104.904C786.126 108.054 785.189 110.454 783.314 112.104C781.439 113.716 778.87 114.523 775.608 114.523C773.283 114.523 771.033 113.979 768.858 112.891C768.408 112.591 768.051 112.441 767.789 112.441C766.964 112.441 766.158 113.135 765.37 114.523H764.695ZM811.529 112.891L807.422 100.741H796.285L791.954 112.891H796.172V113.96H787.566V112.891H790.21L804.554 74.2475H809.166L823.341 112.891H825.929V113.96H807.535V112.891H811.529ZM802.079 84.7663L796.791 99.5038H806.972L802.079 84.7663ZM846.829 98.8288C846.829 94.9663 846.642 92.3788 846.267 91.0663C845.892 89.7163 845.161 89.0413 844.073 89.0413C842.986 89.0413 842.011 89.7538 841.148 91.1788C840.286 92.5663 839.854 94.4413 839.854 96.8038V107.098C839.854 108.71 840.173 110.079 840.811 111.204C841.448 112.329 842.386 112.891 843.623 112.891C844.861 112.891 845.704 112.066 846.154 110.416C846.604 108.766 846.829 105.879 846.829 101.754V98.8288ZM839.742 87.185V91.6288C841.204 88.2913 843.792 86.6225 847.504 86.6225C850.729 86.6225 853.223 87.785 854.986 90.11C856.786 92.435 857.686 95.96 857.686 100.685C857.686 105.41 856.711 108.898 854.761 111.148C852.848 113.398 849.961 114.523 846.098 114.523C844.298 114.523 842.948 114.298 842.048 113.848C841.148 113.398 840.417 112.704 839.854 111.766V126.335H847.111V127.348H826.298V126.335H829.392V88.1975H826.411V87.185H839.742ZM879.898 98.8288C879.898 94.9663 879.711 92.3788 879.336 91.0663C878.961 89.7163 878.23 89.0413 877.142 89.0413C876.055 89.0413 875.08 89.7538 874.217 91.1788C873.355 92.5663 872.923 94.4413 872.923 96.8038V107.098C872.923 108.71 873.242 110.079 873.88 111.204C874.517 112.329 875.455 112.891 876.692 112.891C877.93 112.891 878.773 112.066 879.223 110.416C879.673 108.766 879.898 105.879 879.898 101.754V98.8288ZM872.811 87.185V91.6288C874.273 88.2913 876.861 86.6225 880.573 86.6225C883.798 86.6225 886.292 87.785 888.055 90.11C889.855 92.435 890.755 95.96 890.755 100.685C890.755 105.41 889.78 108.898 887.83 111.148C885.917 113.398 883.03 114.523 879.167 114.523C877.367 114.523 876.017 114.298 875.117 113.848C874.217 113.398 873.486 112.704 872.923 111.766V126.335H880.18V127.348H859.367V126.335H862.461V88.1975H859.48V87.185H872.811Z" fill="black"/>
</svg>
