<svg width="1181" height="212" viewBox="0 0 1181 212" fill="none" xmlns="http://www.w3.org/2000/svg">
<path d="M1097.08 26.925H83.921C72.8753 26.925 63.921 35.8793 63.921 46.925V165.086C63.921 176.131 72.8753 185.086 83.921 185.086H1097.08C1108.12 185.086 1117.08 176.131 1117.08 165.086V46.925C1117.08 35.8794 1108.12 26.925 1097.08 26.925Z" fill="#8CBF47"/>
<path d="M936.906 164.424L945.682 130.859C938.61 117.772 936.379 102.509 939.4 87.8726C942.421 73.2358 950.49 60.2069 962.126 51.1775C973.763 42.148 988.186 37.7238 1002.75 38.717C1017.31 39.7103 1031.03 46.0542 1041.4 56.5844C1051.77 67.1147 1058.08 81.1246 1059.18 96.0426C1060.29 110.961 1056.1 125.786 1047.4 137.797C1038.7 149.808 1026.07 158.199 1011.82 161.429C997.566 164.66 982.657 162.514 969.827 155.384L936.906 164.424ZM971.454 142.804L973.554 144.074C983.875 150.405 996.1 152.645 1007.92 150.371C1019.74 148.097 1030.34 141.466 1037.72 131.73C1045.11 121.993 1048.75 109.825 1047.98 97.5197C1047.21 85.2148 1042.07 73.6246 1033.54 64.936C1025.01 56.2473 1013.66 51.0611 1001.66 50.3558C989.648 49.6505 977.803 53.4749 968.356 61.1074C958.909 68.74 952.514 79.6528 950.378 91.7869C948.241 103.921 950.51 116.437 956.757 126.974L958.027 129.126L953.125 147.862L971.454 142.804Z" fill="#1F3768"/>
<path fill-rule="evenodd" clip-rule="evenodd" d="M1021.06 109.53C1018.56 108.002 1015.32 106.301 1012.4 107.528C1010.15 108.475 1008.71 112.08 1007.25 113.985C1006.94 114.419 1006.48 114.722 1005.97 114.835C1005.45 114.948 1004.92 114.864 1004.46 114.598C996.229 111.286 989.333 105.218 984.891 97.3801C984.514 96.8865 984.335 96.2636 984.391 95.6392C984.448 95.0148 984.736 94.4363 985.195 94.0225C986.602 92.3222 988.345 90.3959 988.754 88.1037C989.164 85.8115 988.082 83.1427 987.159 81.098C985.983 78.4938 984.66 74.7811 982.12 73.3068C979.779 71.9508 976.692 72.7149 974.614 74.4582C972.89 75.9837 971.523 77.8871 970.615 80.0275C969.706 82.1679 969.279 84.4905 969.365 86.8231C969.373 88.1468 969.532 89.4649 969.837 90.751C970.641 93.8146 971.879 96.7407 973.511 99.4355C974.69 101.488 975.969 103.477 977.343 105.397C981.845 111.725 987.494 117.103 993.982 121.238C997.246 123.319 1000.73 125.015 1004.36 126.296C1008.43 127.673 1012.05 129.105 1016.44 128.244C1021.03 127.351 1025.57 124.434 1027.4 119.893C1027.99 118.544 1028.16 117.042 1027.9 115.588C1027.25 112.694 1023.37 110.95 1021.06 109.53Z" fill="#1F3768"/>
<path d="M127.825 85.625H142.844V86.6937H139.75V123.931H142.844V125H125.688V123.931H128.781V88.775H128.556L120.119 125H113.088L103.188 88.6062H102.963V123.931H106.056V125H98.4063V123.931H101.5V86.6937H98.4063V85.625H113.594L121.075 114.594L127.825 85.625ZM159.597 125.563C154.76 125.563 151.122 124.325 148.685 121.85C146.285 119.337 145.085 115.869 145.085 111.444C145.085 106.981 146.435 103.569 149.135 101.206C151.872 98.8437 155.341 97.6625 159.541 97.6625C168.054 97.6625 172.141 101.937 171.804 110.487H155.941V112.681C155.941 116.356 156.41 119.131 157.347 121.006C158.285 122.881 159.916 123.819 162.241 123.819C166.591 123.819 169.441 121.494 170.791 116.844L171.804 117.012C171.091 119.712 169.797 121.812 167.922 123.312C166.085 124.813 163.31 125.563 159.597 125.563ZM155.997 109.362H161.791V106.606C161.791 103.569 161.604 101.506 161.229 100.419C160.891 99.2937 160.179 98.7312 159.091 98.7312C158.041 98.7312 157.254 99.3312 156.729 100.531C156.241 101.694 155.997 103.719 155.997 106.606V109.362ZM199.665 98.675C198.015 98.675 196.834 99.575 196.121 101.375C195.409 103.175 195.053 106.156 195.053 110.319V113.244C195.053 116.956 195.465 119.619 196.29 121.231C197.115 122.844 198.634 123.65 200.846 123.65C203.059 123.65 204.821 122.9 206.134 121.4C207.446 119.9 208.29 118.194 208.665 116.281L209.678 116.394C208.965 119.619 207.653 121.944 205.74 123.369C203.79 124.831 201.109 125.563 197.696 125.563C193.346 125.563 190.009 124.4 187.684 122.075C185.359 119.712 184.196 116.281 184.196 111.781C184.196 107.244 185.509 103.756 188.134 101.319C190.796 98.8812 194.49 97.6625 199.215 97.6625C202.553 97.6625 205.103 98.3187 206.865 99.6312C208.628 100.906 209.509 102.519 209.509 104.469C209.509 106.419 209.078 107.844 208.215 108.744C207.39 109.644 206.228 110.094 204.728 110.094C203.265 110.094 202.084 109.7 201.184 108.912C200.284 108.125 199.834 106.962 199.834 105.425C199.834 104.75 199.928 104.075 200.115 103.4H201.971C202.234 102.65 202.365 101.975 202.365 101.375C202.365 99.575 201.465 98.675 199.665 98.675ZM210.557 82.8125H224.113V103.4C224.713 101.675 225.632 100.287 226.869 99.2375C228.107 98.1875 229.982 97.6625 232.494 97.6625C238.307 97.6625 241.213 100.794 241.213 107.056V123.987H244.363V125H228.444V123.987H230.751V105.706C230.751 103.456 230.601 102.012 230.301 101.375C230.001 100.7 229.457 100.362 228.669 100.362C227.469 100.362 226.401 101.15 225.463 102.725C224.563 104.3 224.113 106.212 224.113 108.463V123.987H226.532V125H210.557V123.987H213.651V83.825H210.557V82.8125ZM258.719 111.781H260.35V107.45C260.35 103.887 260.144 101.506 259.731 100.306C259.356 99.0687 258.606 98.45 257.481 98.45C256.806 98.45 256.188 98.6375 255.625 99.0125C255.1 99.35 254.838 99.8375 254.838 100.475C254.838 101.075 254.95 101.694 255.175 102.331H256.581C256.881 103.119 257.031 104.075 257.031 105.2C257.031 106.287 256.563 107.244 255.625 108.069C254.688 108.856 253.506 109.25 252.081 109.25C248.856 109.25 247.244 107.694 247.244 104.581C247.244 99.9687 251.163 97.6625 259 97.6625C263.463 97.6625 266.538 98.4312 268.225 99.9687C269.95 101.469 270.813 104.244 270.813 108.294V119.712C270.813 121.662 271.356 122.637 272.444 122.637C273.719 122.637 274.469 120.706 274.694 116.844L275.538 116.9C275.388 120.2 274.769 122.469 273.681 123.706C272.594 124.944 270.813 125.563 268.338 125.563C263.838 125.563 261.25 124.175 260.575 121.4C260.088 122.825 259.356 123.875 258.381 124.55C257.406 125.225 255.981 125.563 254.106 125.563C248.556 125.563 245.781 123.294 245.781 118.756C245.781 116.094 246.831 114.275 248.931 113.3C251.069 112.287 254.331 111.781 258.719 111.781ZM256.469 118.7C256.469 120.65 256.563 121.906 256.75 122.469C256.975 123.031 257.369 123.312 257.931 123.312C258.531 123.312 259.075 122.844 259.563 121.906C260.088 120.931 260.35 119.6 260.35 117.912V112.681H259.956C257.631 112.681 256.469 114.387 256.469 117.8V118.7ZM276.09 98.225H289.647V103.4C290.884 99.575 293.603 97.6625 297.803 97.6625C302.04 97.6625 304.609 99.6875 305.509 103.737C306.822 99.6875 309.578 97.6625 313.778 97.6625C319.29 97.6625 322.047 100.794 322.047 107.056V123.987H325.197V125H309.615V123.987H311.584V105.706C311.584 102.856 311.34 101.187 310.853 100.7C310.628 100.475 310.328 100.362 309.953 100.362C308.865 100.362 307.909 101.094 307.084 102.556C306.259 104.019 305.847 105.875 305.847 108.125V123.987H307.872V125H293.415V123.987H295.384V105.706C295.384 102.856 295.14 101.187 294.653 100.7C294.428 100.475 294.128 100.362 293.753 100.362C292.703 100.362 291.747 101.169 290.884 102.781C290.059 104.356 289.647 106.25 289.647 108.463V123.987H291.672V125H276.09V123.987H279.184V99.2375H276.09V98.225ZM340.817 125.563C335.979 125.563 332.342 124.325 329.904 121.85C327.504 119.337 326.304 115.869 326.304 111.444C326.304 106.981 327.654 103.569 330.354 101.206C333.092 98.8437 336.561 97.6625 340.761 97.6625C349.273 97.6625 353.361 101.937 353.023 110.487H337.161V112.681C337.161 116.356 337.629 119.131 338.567 121.006C339.504 122.881 341.136 123.819 343.461 123.819C347.811 123.819 350.661 121.494 352.011 116.844L353.023 117.012C352.311 119.712 351.017 121.812 349.142 123.312C347.304 124.813 344.529 125.563 340.817 125.563ZM337.217 109.362H343.011V106.606C343.011 103.569 342.823 101.506 342.448 100.419C342.111 99.2937 341.398 98.7312 340.311 98.7312C339.261 98.7312 338.473 99.3312 337.948 100.531C337.461 101.694 337.217 103.719 337.217 106.606V109.362ZM378.635 111.781H380.266V107.45C380.266 103.887 380.06 101.506 379.647 100.306C379.272 99.0687 378.522 98.45 377.397 98.45C376.722 98.45 376.103 98.6375 375.541 99.0125C375.016 99.35 374.753 99.8375 374.753 100.475C374.753 101.075 374.866 101.694 375.091 102.331H376.497C376.797 103.119 376.947 104.075 376.947 105.2C376.947 106.287 376.478 107.244 375.541 108.069C374.603 108.856 373.422 109.25 371.997 109.25C368.772 109.25 367.16 107.694 367.16 104.581C367.16 99.9687 371.078 97.6625 378.916 97.6625C383.378 97.6625 386.453 98.4312 388.141 99.9687C389.866 101.469 390.728 104.244 390.728 108.294V119.712C390.728 121.662 391.272 122.637 392.36 122.637C393.635 122.637 394.385 120.706 394.61 116.844L395.453 116.9C395.303 120.2 394.685 122.469 393.597 123.706C392.51 124.944 390.728 125.563 388.253 125.563C383.753 125.563 381.166 124.175 380.491 121.4C380.003 122.825 379.272 123.875 378.297 124.55C377.322 125.225 375.897 125.563 374.022 125.563C368.472 125.563 365.697 123.294 365.697 118.756C365.697 116.094 366.747 114.275 368.847 113.3C370.985 112.287 374.247 111.781 378.635 111.781ZM376.385 118.7C376.385 120.65 376.478 121.906 376.666 122.469C376.891 123.031 377.285 123.312 377.847 123.312C378.447 123.312 378.991 122.844 379.478 121.906C380.003 120.931 380.266 119.6 380.266 117.912V112.681H379.872C377.547 112.681 376.385 114.387 376.385 117.8V118.7ZM418.288 95.3L419.863 94.3437C420.088 93.1812 419.638 92.6 418.513 92.6C416.9 92.6 416.094 93.8375 416.094 96.3125C416.094 97.2875 416.225 98.4125 416.488 99.6875C419.338 101.6 420.763 104.056 420.763 107.056C420.763 110.019 419.731 112.325 417.669 113.975C415.606 115.625 412.813 116.45 409.288 116.45C407.825 116.45 406.306 116.3 404.731 116C403.081 117.05 402.256 117.837 402.256 118.362C402.256 118.887 403.456 119.15 405.856 119.15H411.594C420.106 119.15 424.363 122.206 424.363 128.319C424.363 131.619 423.069 134.225 420.481 136.138C417.931 138.088 413.938 139.062 408.5 139.062C399.238 139.062 394.606 137.056 394.606 133.044C394.606 130.869 396.05 129.369 398.938 128.544L402.313 130.063C402.013 131.15 401.863 132.181 401.863 133.156C401.863 136.381 404.263 137.994 409.063 137.994C411.988 137.994 414.238 137.45 415.813 136.363C417.388 135.275 418.175 133.925 418.175 132.313C418.175 130.7 417.688 129.613 416.713 129.05C415.775 128.525 413.881 128.263 411.031 128.263H405.575C402.538 128.263 400.363 127.756 399.05 126.744C397.738 125.731 397.081 124.494 397.081 123.031C397.081 121.531 397.55 120.294 398.488 119.319C399.425 118.306 401.094 117.069 403.494 115.606C399.144 114.369 396.969 111.519 396.969 107.056C396.969 104.244 397.981 101.975 400.006 100.25C402.031 98.525 405.069 97.6625 409.119 97.6625C411.556 97.6625 413.638 98.1312 415.363 99.0687C415.138 98.0562 415.025 97.1375 415.025 96.3125C415.025 94.2125 415.588 92.6937 416.713 91.7562C417.838 90.8187 419.094 90.35 420.481 90.35C421.869 90.35 422.975 90.725 423.8 91.475C424.663 92.1875 425.094 93.1812 425.094 94.4562C425.094 95.7312 424.756 96.6875 424.081 97.325C423.406 97.925 422.581 98.225 421.606 98.225C420.669 98.225 419.881 97.9812 419.244 97.4937C418.644 96.9687 418.325 96.2375 418.288 95.3ZM406.363 105.819V108.856C406.363 111.369 406.569 113.075 406.981 113.975C407.431 114.875 408.088 115.325 408.95 115.325C409.85 115.325 410.488 114.894 410.863 114.031C411.275 113.131 411.481 111.312 411.481 108.575V105.819C411.481 102.894 411.294 100.981 410.919 100.081C410.544 99.1437 409.906 98.675 409.006 98.675C408.144 98.675 407.488 99.1625 407.038 100.137C406.588 101.075 406.363 102.969 406.363 105.819ZM441.586 113.919V109.137C441.586 105.5 441.379 102.856 440.967 101.206C440.592 99.5187 439.692 98.675 438.267 98.675C437.442 98.675 436.767 98.9187 436.242 99.4062C435.754 99.8562 435.398 100.625 435.173 101.712C434.836 103.4 434.667 105.969 434.667 109.419V113.806C434.667 117.894 434.779 120.35 435.004 121.175C435.267 122 435.529 122.675 435.792 123.2C436.204 124.1 437.011 124.55 438.211 124.55C439.673 124.55 440.629 123.706 441.079 122.019C441.417 120.819 441.586 118.119 441.586 113.919ZM438.098 125.563C433.411 125.563 429.867 124.363 427.467 121.962C425.067 119.562 423.867 116.131 423.867 111.669C423.867 107.169 425.142 103.719 427.692 101.319C430.279 98.8812 433.898 97.6625 438.548 97.6625C443.198 97.6625 446.667 98.7875 448.954 101.037C451.242 103.25 452.386 106.644 452.386 111.219C452.386 120.781 447.623 125.563 438.098 125.563ZM472.746 99.8C471.359 99.8 470.14 100.7 469.09 102.5C468.04 104.3 467.515 106.437 467.515 108.912V123.987H471.509V125H453.959V123.987H457.053V99.2375H453.959V98.225H467.515V103.625C468.003 101.712 468.94 100.25 470.328 99.2375C471.715 98.1875 473.29 97.6625 475.053 97.6625C476.815 97.6625 478.24 98.1687 479.328 99.1812C480.453 100.156 481.015 101.562 481.015 103.4C481.015 105.2 480.603 106.587 479.778 107.562C478.953 108.537 477.678 109.025 475.953 109.025C474.265 109.025 473.009 108.462 472.184 107.337C471.396 106.212 471.303 104.656 471.903 102.669H473.928C474.865 100.756 474.471 99.8 472.746 99.8ZM494.485 111.781H496.117V107.45C496.117 103.887 495.91 101.506 495.498 100.306C495.123 99.0687 494.373 98.45 493.248 98.45C492.573 98.45 491.954 98.6375 491.392 99.0125C490.867 99.35 490.604 99.8375 490.604 100.475C490.604 101.075 490.717 101.694 490.942 102.331H492.348C492.648 103.119 492.798 104.075 492.798 105.2C492.798 106.287 492.329 107.244 491.392 108.069C490.454 108.856 489.273 109.25 487.848 109.25C484.623 109.25 483.01 107.694 483.01 104.581C483.01 99.9687 486.929 97.6625 494.767 97.6625C499.229 97.6625 502.304 98.4312 503.992 99.9687C505.717 101.469 506.579 104.244 506.579 108.294V119.712C506.579 121.662 507.123 122.637 508.21 122.637C509.485 122.637 510.235 120.706 510.46 116.844L511.304 116.9C511.154 120.2 510.535 122.469 509.448 123.706C508.36 124.944 506.579 125.563 504.104 125.563C499.604 125.563 497.017 124.175 496.342 121.4C495.854 122.825 495.123 123.875 494.148 124.55C493.173 125.225 491.748 125.563 489.873 125.563C484.323 125.563 481.548 123.294 481.548 118.756C481.548 116.094 482.598 114.275 484.698 113.3C486.835 112.287 490.098 111.781 494.485 111.781ZM492.235 118.7C492.235 120.65 492.329 121.906 492.517 122.469C492.742 123.031 493.135 123.312 493.698 123.312C494.298 123.312 494.842 122.844 495.329 121.906C495.854 120.931 496.117 119.6 496.117 117.912V112.681H495.723C493.398 112.681 492.235 114.387 492.235 117.8V118.7ZM522.077 98.225H535.633V103.4C536.233 101.675 537.152 100.287 538.389 99.2375C539.627 98.1875 541.502 97.6625 544.014 97.6625C549.827 97.6625 552.733 100.794 552.733 107.056V123.987H555.883V125H539.964V123.987H542.271V105.706C542.271 103.456 542.121 102.012 541.821 101.375C541.521 100.7 540.977 100.362 540.189 100.362C538.989 100.362 537.921 101.15 536.983 102.725C536.083 104.3 535.633 106.212 535.633 108.463V123.987H538.052V125H522.077V123.987H525.171V99.2375H522.077V98.225ZM574.795 113.919V109.137C574.795 105.5 574.589 102.856 574.176 101.206C573.801 99.5187 572.901 98.675 571.476 98.675C570.651 98.675 569.976 98.9187 569.451 99.4062C568.964 99.8562 568.607 100.625 568.382 101.712C568.045 103.4 567.876 105.969 567.876 109.419V113.806C567.876 117.894 567.989 120.35 568.214 121.175C568.476 122 568.739 122.675 569.001 123.2C569.414 124.1 570.22 124.55 571.42 124.55C572.882 124.55 573.839 123.706 574.289 122.019C574.626 120.819 574.795 118.119 574.795 113.919ZM571.307 125.563C566.62 125.563 563.076 124.363 560.676 121.962C558.276 119.562 557.076 116.131 557.076 111.669C557.076 107.169 558.351 103.719 560.901 101.319C563.489 98.8812 567.107 97.6625 571.757 97.6625C576.407 97.6625 579.876 98.7875 582.164 101.037C584.451 103.25 585.595 106.644 585.595 111.219C585.595 120.781 580.832 125.563 571.307 125.563ZM620.563 113.637L625.232 97.4375L621.857 86.6937H618.651V85.625H636.088V86.6937H632.769L641.151 113.3L647.901 86.6937H642.219V85.625H653.469V86.6937H649.757L639.407 125.563H634.401L626.076 100.137L618.763 125.563H613.869L599.694 86.6937H597.051V85.625H615.332V86.6937H611.394L620.563 113.637ZM654.35 82.8125H667.906V103.4C668.506 101.675 669.425 100.287 670.662 99.2375C671.9 98.1875 673.775 97.6625 676.287 97.6625C682.1 97.6625 685.006 100.794 685.006 107.056V123.987H688.156V125H672.237V123.987H674.543V105.706C674.543 103.456 674.393 102.012 674.093 101.375C673.793 100.7 673.25 100.362 672.462 100.362C671.262 100.362 670.193 101.15 669.256 102.725C668.356 104.3 667.906 106.212 667.906 108.463V123.987H670.325V125H654.35V123.987H657.443V83.825H654.35V82.8125ZM702.511 111.781H704.143V107.45C704.143 103.887 703.936 101.506 703.524 100.306C703.149 99.0687 702.399 98.45 701.274 98.45C700.599 98.45 699.98 98.6375 699.418 99.0125C698.893 99.35 698.63 99.8375 698.63 100.475C698.63 101.075 698.743 101.694 698.968 102.331H700.374C700.674 103.119 700.824 104.075 700.824 105.2C700.824 106.287 700.355 107.244 699.418 108.069C698.48 108.856 697.299 109.25 695.874 109.25C692.649 109.25 691.036 107.694 691.036 104.581C691.036 99.9687 694.955 97.6625 702.793 97.6625C707.255 97.6625 710.33 98.4312 712.018 99.9687C713.743 101.469 714.605 104.244 714.605 108.294V119.712C714.605 121.662 715.149 122.637 716.236 122.637C717.511 122.637 718.261 120.706 718.486 116.844L719.33 116.9C719.18 120.2 718.561 122.469 717.474 123.706C716.386 124.944 714.605 125.563 712.13 125.563C707.63 125.563 705.043 124.175 704.368 121.4C703.88 122.825 703.149 123.875 702.174 124.55C701.199 125.225 699.774 125.563 697.899 125.563C692.349 125.563 689.574 123.294 689.574 118.756C689.574 116.094 690.624 114.275 692.724 113.3C694.861 112.287 698.124 111.781 702.511 111.781ZM700.261 118.7C700.261 120.65 700.355 121.906 700.543 122.469C700.768 123.031 701.161 123.312 701.724 123.312C702.324 123.312 702.868 122.844 703.355 121.906C703.88 120.931 704.143 119.6 704.143 117.912V112.681H703.749C701.424 112.681 700.261 114.387 700.261 117.8V118.7ZM721.872 116.956V99.2375H718.778V98.225H721.872V90.9687L732.334 88.3812V98.225H739.647V99.2375H732.334V118.194C732.334 119.956 732.503 121.25 732.84 122.075C733.215 122.9 733.965 123.312 735.09 123.312C736.215 123.312 737.19 122.75 738.015 121.625C738.878 120.5 739.44 118.962 739.703 117.012L740.659 117.125C740.359 119.712 739.534 121.775 738.184 123.312C736.834 124.813 734.603 125.563 731.49 125.563C728.378 125.563 725.997 124.944 724.347 123.706C722.697 122.469 721.872 120.219 721.872 116.956ZM742.49 125.563V115.494H743.165C744.14 118.756 745.453 121.044 747.103 122.356C748.753 123.669 750.815 124.325 753.29 124.325C757.115 124.325 759.028 123.106 759.028 120.669C759.028 119.619 758.559 118.831 757.622 118.306C756.159 117.481 754.284 116.844 751.997 116.394C749.447 115.719 747.309 114.819 745.584 113.694C743.522 112.344 742.49 110.206 742.49 107.281C742.49 104.356 743.39 102.031 745.19 100.306C746.99 98.5437 749.39 97.6625 752.39 97.6625C754.228 97.6625 756.122 98.0937 758.072 98.9562C758.784 99.2562 759.328 99.4062 759.703 99.4062C760.078 99.4062 760.397 99.275 760.659 99.0125C760.922 98.75 761.24 98.2625 761.615 97.55H762.234V106.156H761.559C759.647 101.281 756.684 98.8437 752.672 98.8437C750.909 98.8437 749.597 99.1625 748.734 99.8C747.872 100.4 747.44 101.169 747.44 102.106C747.44 102.669 747.572 103.119 747.834 103.456C748.097 103.756 748.303 103.981 748.453 104.131C748.603 104.281 748.847 104.45 749.184 104.637C749.522 104.787 749.803 104.919 750.028 105.031C750.253 105.106 750.59 105.219 751.04 105.369C751.528 105.519 751.884 105.612 752.109 105.65C754.659 106.287 756.497 106.85 757.622 107.337C758.747 107.787 759.815 108.35 760.828 109.025C762.89 110.45 763.922 112.756 763.922 115.944C763.922 119.094 762.984 121.494 761.109 123.144C759.234 124.756 756.665 125.563 753.403 125.563C751.078 125.563 748.828 125.019 746.653 123.931C746.203 123.631 745.847 123.481 745.584 123.481C744.759 123.481 743.953 124.175 743.165 125.563H742.49ZM789.324 123.931L785.217 111.781H774.08L769.749 123.931H773.967V125H765.361V123.931H768.005L782.349 85.2875H786.961L801.136 123.931H803.724V125H785.33V123.931H789.324ZM779.874 95.8062L774.586 110.544H784.767L779.874 95.8062ZM824.625 109.869C824.625 106.006 824.437 103.419 824.062 102.106C823.687 100.756 822.956 100.081 821.868 100.081C820.781 100.081 819.806 100.794 818.943 102.219C818.081 103.606 817.65 105.481 817.65 107.844V118.137C817.65 119.75 817.968 121.119 818.606 122.244C819.243 123.369 820.181 123.931 821.418 123.931C822.656 123.931 823.5 123.106 823.95 121.456C824.4 119.806 824.625 116.919 824.625 112.794V109.869ZM817.537 98.225V102.669C819 99.3312 821.587 97.6625 825.3 97.6625C828.525 97.6625 831.018 98.825 832.781 101.15C834.581 103.475 835.481 107 835.481 111.725C835.481 116.45 834.506 119.937 832.556 122.187C830.643 124.438 827.756 125.563 823.893 125.563C822.093 125.563 820.743 125.338 819.843 124.887C818.943 124.437 818.212 123.744 817.65 122.806V137.375H824.906V138.388H804.093V137.375H807.187V99.2375H804.206V98.225H817.537ZM857.693 109.869C857.693 106.006 857.506 103.419 857.131 102.106C856.756 100.756 856.025 100.081 854.937 100.081C853.85 100.081 852.875 100.794 852.012 102.219C851.15 103.606 850.718 105.481 850.718 107.844V118.137C850.718 119.75 851.037 121.119 851.675 122.244C852.312 123.369 853.25 123.931 854.487 123.931C855.725 123.931 856.568 123.106 857.018 121.456C857.468 119.806 857.693 116.919 857.693 112.794V109.869ZM850.606 98.225V102.669C852.068 99.3312 854.656 97.6625 858.368 97.6625C861.593 97.6625 864.087 98.825 865.85 101.15C867.65 103.475 868.55 107 868.55 111.725C868.55 116.45 867.575 119.937 865.625 122.187C863.712 124.438 860.825 125.563 856.962 125.563C855.162 125.563 853.812 125.338 852.912 124.887C852.012 124.437 851.281 123.744 850.718 122.806V137.375H857.975V138.388H837.162V137.375H840.256V99.2375H837.275V98.225H850.606Z" fill="black"/>
</svg>
