<svg width="502" height="47" viewBox="0 0 502 47" fill="none" xmlns="http://www.w3.org/2000/svg">
<path d="M55.5031 37.3459V31.1541H55.9182C56.5178 33.1604 57.3249 34.5671 58.3396 35.3742C59.3543 36.1813 60.6226 36.5849 62.1446 36.5849C64.4968 36.5849 65.6729 35.8354 65.6729 34.3365C65.6729 33.6908 65.3846 33.2065 64.8081 32.8837C63.9087 32.3763 62.7557 31.9843 61.349 31.7076C59.7809 31.2925 58.4664 30.739 57.4056 30.0472C56.1373 29.217 55.5031 27.9025 55.5031 26.1038C55.5031 24.3051 56.0566 22.8753 57.1635 21.8145C58.2704 20.7307 59.7463 20.1887 61.5911 20.1887C62.7211 20.1887 63.8857 20.4539 65.0848 20.9843C65.523 21.1688 65.8574 21.261 66.088 21.261C66.3186 21.261 66.5146 21.1803 66.676 21.0189C66.8375 20.8575 67.0335 20.5577 67.2641 20.1195H67.6446V25.412H67.2295C66.0534 22.4141 64.2316 20.9151 61.7641 20.9151C60.6802 20.9151 59.8731 21.1112 59.3427 21.5032C58.8123 21.8722 58.5471 22.3449 58.5471 22.9214C58.5471 23.2673 58.6278 23.5441 58.7893 23.7516C58.9507 23.9361 59.0775 24.0745 59.1698 24.1667C59.262 24.2589 59.4119 24.3627 59.6195 24.478C59.827 24.5703 60 24.651 60.1383 24.7202C60.2767 24.7663 60.4842 24.8355 60.761 24.9277C61.0607 25.0199 61.2798 25.0776 61.4182 25.1007C62.9863 25.4927 64.1163 25.8386 64.8081 26.1384C65.4999 26.4151 66.1572 26.761 66.7798 27.1761C68.0481 28.0524 68.6823 29.4707 68.6823 31.4308C68.6823 33.3679 68.1058 34.8438 66.9528 35.8585C65.7997 36.8501 64.2201 37.3459 62.2138 37.3459C60.784 37.3459 59.4004 37.0115 58.0629 36.3428C57.7861 36.1583 57.567 36.066 57.4056 36.066C56.8983 36.066 56.4025 36.4927 55.9182 37.3459H55.5031ZM78.8035 37.3459C75.8286 37.3459 73.5917 36.5849 72.0928 35.0629C70.6169 33.5178 69.879 31.3847 69.879 28.6635C69.879 25.9193 70.7091 23.8208 72.3695 22.368C74.0529 20.9151 76.1861 20.1887 78.7689 20.1887C84.0037 20.1887 86.5173 22.8176 86.3097 28.0755H76.555V29.4245C76.555 31.6845 76.8433 33.391 77.4198 34.544C77.9963 35.6971 78.9995 36.2736 80.4292 36.2736C83.1043 36.2736 84.8569 34.8438 85.6871 31.9843L86.3097 32.0881C85.8716 33.7484 85.076 35.0398 83.9229 35.9623C82.793 36.8847 81.0865 37.3459 78.8035 37.3459ZM76.5896 27.3837H80.1525V25.6887C80.1525 23.8208 80.0372 22.5525 79.8066 21.8837C79.5991 21.1919 79.1609 20.846 78.4921 20.846C77.8464 20.846 77.3622 21.2149 77.0393 21.9529C76.7395 22.6678 76.5896 23.913 76.5896 25.6887V27.3837ZM99.0955 21.5032C98.2422 21.5032 97.4927 22.0566 96.847 23.1636C96.2013 24.2705 95.8785 25.5849 95.8785 27.1069V36.3774H98.3345V37H87.542V36.3774H89.4445V21.1573H87.542V20.5346H95.8785V23.8554C96.1783 22.6793 96.7548 21.7799 97.608 21.1573C98.4613 20.5116 99.4298 20.1887 100.514 20.1887C101.598 20.1887 102.474 20.5 103.143 21.1227C103.834 21.7223 104.18 22.587 104.18 23.717C104.18 24.8239 103.927 25.6772 103.419 26.2768C102.912 26.8763 102.128 27.1761 101.067 27.1761C100.029 27.1761 99.2569 26.8302 98.7495 26.1384C98.2653 25.4466 98.2076 24.4896 98.5766 23.2673H99.8219C100.398 22.0912 100.156 21.5032 99.0955 21.5032ZM118.202 18.7359L119.17 18.1479C119.309 17.433 119.032 17.0755 118.34 17.0755C117.349 17.0755 116.853 17.8365 116.853 19.3585C116.853 19.9581 116.934 20.6499 117.095 21.434C118.848 22.6101 119.724 24.1206 119.724 25.9654C119.724 27.7872 119.09 29.2055 117.821 30.2201C116.553 31.2348 114.835 31.7422 112.667 31.7422C111.768 31.7422 110.834 31.6499 109.865 31.4654C108.851 32.1111 108.343 32.5954 108.343 32.9183C108.343 33.2411 109.081 33.4025 110.557 33.4025H114.086C119.32 33.4025 121.938 35.282 121.938 39.0409C121.938 41.0702 121.142 42.6729 119.551 43.849C117.983 45.0482 115.527 45.6478 112.183 45.6478C106.487 45.6478 103.639 44.414 103.639 41.9465C103.639 40.609 104.527 39.6866 106.303 39.1792L108.378 40.1132C108.194 40.782 108.101 41.4161 108.101 42.0157C108.101 43.9989 109.577 44.9905 112.529 44.9905C114.328 44.9905 115.711 44.6562 116.68 43.9874C117.648 43.3186 118.133 42.4885 118.133 41.4968C118.133 40.5052 117.833 39.8365 117.233 39.4906C116.657 39.1677 115.492 39.0063 113.74 39.0063H110.384C108.516 39.0063 107.179 38.695 106.372 38.0723C105.565 37.4497 105.161 36.6887 105.161 35.7893C105.161 34.8669 105.449 34.1059 106.026 33.5063C106.602 32.8837 107.629 32.1227 109.104 31.2233C106.429 30.4623 105.092 28.7097 105.092 25.9654C105.092 24.2359 105.715 22.8407 106.96 21.7799C108.205 20.7191 110.073 20.1887 112.564 20.1887C114.063 20.1887 115.342 20.477 116.403 21.0535C116.265 20.4309 116.196 19.8659 116.196 19.3585C116.196 18.0671 116.542 17.1332 117.233 16.5567C117.925 15.9801 118.698 15.6919 119.551 15.6919C120.404 15.6919 121.084 15.9225 121.592 16.3837C122.122 16.8219 122.387 17.433 122.387 18.217C122.387 19.0011 122.18 19.5891 121.765 19.9812C121.35 20.3502 120.842 20.5346 120.243 20.5346C119.666 20.5346 119.182 20.3847 118.79 20.085C118.421 19.7621 118.225 19.3124 118.202 18.7359ZM110.869 25.2044V27.0724C110.869 28.6174 110.995 29.6667 111.249 30.2201C111.526 30.7736 111.929 31.0503 112.46 31.0503C113.013 31.0503 113.405 30.7851 113.636 30.2547C113.89 29.7013 114.016 28.5828 114.016 26.8994V25.2044C114.016 23.4057 113.901 22.2296 113.67 21.6761C113.44 21.0996 113.048 20.8114 112.494 20.8114C111.964 20.8114 111.56 21.1112 111.284 21.7107C111.007 22.2873 110.869 23.4518 110.869 25.2044ZM127.488 18.1479C126.266 18.1479 125.39 17.8365 124.859 17.2139C124.352 16.5913 124.098 15.8187 124.098 14.8963C124.098 13.9739 124.375 13.2129 124.929 12.6133C125.505 12.0137 126.37 11.7139 127.523 11.7139C128.676 11.7139 129.552 11.9906 130.152 12.5441C130.751 13.0745 131.051 13.847 131.051 14.8617C131.051 15.8533 130.763 16.6489 130.186 17.2485C129.61 17.8481 128.71 18.1479 127.488 18.1479ZM122.265 20.5346H130.74V36.3774H132.677V37H122.403V36.3774H124.306V21.1573H122.265V20.5346ZM144.555 30.1856V27.2453C144.555 25.0084 144.428 23.3826 144.174 22.368C143.944 21.3302 143.39 20.8114 142.514 20.8114C142.007 20.8114 141.592 20.9613 141.269 21.261C140.969 21.5378 140.75 22.0105 140.612 22.6793C140.404 23.717 140.3 25.2967 140.3 27.4183V30.1164C140.3 32.63 140.369 34.1405 140.508 34.6478C140.669 35.1551 140.831 35.5702 140.992 35.8931C141.246 36.4465 141.742 36.7233 142.479 36.7233C143.379 36.7233 143.967 36.2044 144.244 35.1667C144.451 34.4287 144.555 32.7684 144.555 30.1856ZM142.41 37.3459C139.528 37.3459 137.348 36.608 135.873 35.1321C134.397 33.6562 133.659 31.5461 133.659 28.8019C133.659 26.0346 134.443 23.913 136.011 22.4371C137.602 20.9382 139.827 20.1887 142.687 20.1887C145.547 20.1887 147.68 20.8805 149.086 22.2642C150.493 23.6248 151.196 25.7118 151.196 28.5252C151.196 34.4057 148.268 37.3459 142.41 37.3459ZM166.796 23.3365C167.903 23.3365 168.906 23.7631 169.805 24.6164L170.393 23.5787H174.164L173.057 29.8742C172.78 31.5346 172.642 32.8029 172.642 33.6793C172.642 34.5325 172.769 35.1782 173.022 35.6164C173.299 36.0314 173.829 36.239 174.614 36.239C175.651 36.239 176.62 35.5702 177.519 34.2327C178.442 32.8721 178.903 31.0619 178.903 28.8019C178.903 25.435 177.923 22.7946 175.963 20.8805C174.002 18.9434 171.27 17.9749 167.764 17.9749C164.282 17.9749 161.319 19.151 158.875 21.5032C156.43 23.8554 155.208 27.0147 155.208 30.9811C155.208 33.0105 155.565 34.7977 156.28 36.3428C157.018 37.8648 157.998 39.0639 159.22 39.9402C161.642 41.6467 164.467 42.5 167.695 42.5C170.924 42.5 173.668 41.543 175.928 39.6289L176.481 40.2516C175.467 41.1971 174.164 41.9465 172.573 42.5C171.005 43.0534 169.367 43.3302 167.661 43.3302C165.954 43.3302 164.294 43.088 162.68 42.6038C161.088 42.1195 159.647 41.3931 158.356 40.4245C157.087 39.456 156.084 38.1761 155.346 36.5849C154.608 34.9937 154.239 33.1719 154.239 31.1195C154.239 27.0839 155.508 23.7631 158.044 21.1573C160.604 18.5284 163.913 17.2139 167.972 17.2139C171.5 17.2139 174.348 18.217 176.516 20.2233C178.707 22.2065 179.802 24.9854 179.802 28.5598C179.802 31.4424 179.191 33.6101 177.969 35.0629C176.77 36.5157 175.017 37.2421 172.711 37.2421C170.428 37.2421 168.964 36.412 168.318 34.7516C167.718 36.3658 166.6 37.173 164.963 37.173C163.325 37.173 162.068 36.6656 161.192 35.6509C160.316 34.6363 159.878 33.391 159.878 31.9151C159.878 29.1248 160.593 27.0032 162.022 25.5503C163.452 24.0745 165.043 23.3365 166.796 23.3365ZM168.456 32.5032L169.632 25.1007C168.964 24.4088 168.249 24.0629 167.488 24.0629C166.727 24.0629 166.093 24.4204 165.585 25.1353C165.101 25.8501 164.744 26.761 164.513 27.8679C164.098 29.8512 163.89 31.7767 163.89 33.6447C163.89 35.5126 164.478 36.4465 165.654 36.4465C166.323 36.4465 166.911 36.0776 167.419 35.3396C167.926 34.6017 168.272 33.6562 168.456 32.5032ZM183.362 37.3459V31.1541H183.777C184.376 33.1604 185.184 34.5671 186.198 35.3742C187.213 36.1813 188.481 36.5849 190.003 36.5849C192.355 36.5849 193.532 35.8354 193.532 34.3365C193.532 33.6908 193.243 33.2065 192.667 32.8837C191.767 32.3763 190.614 31.9843 189.208 31.7076C187.64 31.2925 186.325 30.739 185.264 30.0472C183.996 29.217 183.362 27.9025 183.362 26.1038C183.362 24.3051 183.915 22.8753 185.022 21.8145C186.129 20.7307 187.605 20.1887 189.45 20.1887C190.58 20.1887 191.744 20.4539 192.944 20.9843C193.382 21.1688 193.716 21.261 193.947 21.261C194.177 21.261 194.373 21.1803 194.535 21.0189C194.696 20.8575 194.892 20.5577 195.123 20.1195H195.503V25.412H195.088C193.912 22.4141 192.09 20.9151 189.623 20.9151C188.539 20.9151 187.732 21.1112 187.201 21.5032C186.671 21.8722 186.406 22.3449 186.406 22.9214C186.406 23.2673 186.487 23.5441 186.648 23.7516C186.809 23.9361 186.936 24.0745 187.028 24.1667C187.121 24.2589 187.271 24.3627 187.478 24.478C187.686 24.5703 187.859 24.651 187.997 24.7202C188.135 24.7663 188.343 24.8355 188.62 24.9277C188.919 25.0199 189.139 25.0776 189.277 25.1007C190.845 25.4927 191.975 25.8386 192.667 26.1384C193.359 26.4151 194.016 26.761 194.639 27.1761C195.907 28.0524 196.541 29.4707 196.541 31.4308C196.541 33.3679 195.964 34.8438 194.811 35.8585C193.658 36.8501 192.079 37.3459 190.072 37.3459C188.643 37.3459 187.259 37.0115 185.922 36.3428C185.645 36.1583 185.426 36.066 185.264 36.066C184.757 36.066 184.261 36.4927 183.777 37.3459H183.362ZM197.565 11.0567H205.901V23.717C206.27 22.6562 206.835 21.803 207.596 21.1573C208.357 20.5116 209.51 20.1887 211.055 20.1887C214.63 20.1887 216.417 22.1143 216.417 25.9654V36.3774H218.354V37H208.565V36.3774H209.983V25.1353C209.983 23.7516 209.891 22.8638 209.706 22.4717C209.522 22.0566 209.187 21.8491 208.703 21.8491C207.965 21.8491 207.308 22.3334 206.731 23.3019C206.178 24.2705 205.901 25.4466 205.901 26.8302V36.3774H207.389V37H197.565V36.3774H199.467V11.6793H197.565V11.0567ZM219.676 37.3459V31.1541H220.091C220.69 33.1604 221.497 34.5671 222.512 35.3742C223.527 36.1813 224.795 36.5849 226.317 36.5849C228.669 36.5849 229.845 35.8354 229.845 34.3365C229.845 33.6908 229.557 33.2065 228.981 32.8837C228.081 32.3763 226.928 31.9843 225.522 31.7076C223.953 31.2925 222.639 30.739 221.578 30.0472C220.31 29.217 219.676 27.9025 219.676 26.1038C219.676 24.3051 220.229 22.8753 221.336 21.8145C222.443 20.7307 223.919 20.1887 225.764 20.1887C226.894 20.1887 228.058 20.4539 229.257 20.9843C229.696 21.1688 230.03 21.261 230.261 21.261C230.491 21.261 230.687 21.1803 230.849 21.0189C231.01 20.8575 231.206 20.5577 231.437 20.1195H231.817V25.412H231.402C230.226 22.4141 228.404 20.9151 225.937 20.9151C224.853 20.9151 224.046 21.1112 223.515 21.5032C222.985 21.8722 222.72 22.3449 222.72 22.9214C222.72 23.2673 222.8 23.5441 222.962 23.7516C223.123 23.9361 223.25 24.0745 223.342 24.1667C223.435 24.2589 223.584 24.3627 223.792 24.478C224 24.5703 224.173 24.651 224.311 24.7202C224.449 24.7663 224.657 24.8355 224.934 24.9277C225.233 25.0199 225.452 25.0776 225.591 25.1007C227.159 25.4927 228.289 25.8386 228.981 26.1384C229.673 26.4151 230.33 26.761 230.952 27.1761C232.221 28.0524 232.855 29.4707 232.855 31.4308C232.855 33.3679 232.278 34.8438 231.125 35.8585C229.972 36.8501 228.393 37.3459 226.386 37.3459C224.957 37.3459 223.573 37.0115 222.235 36.3428C221.959 36.1583 221.74 36.066 221.578 36.066C221.071 36.066 220.575 36.4927 220.091 37.3459H219.676ZM242.18 28.8711H243.184V26.2076C243.184 24.0168 243.057 22.5525 242.803 21.8145C242.572 21.0535 242.111 20.673 241.419 20.673C241.004 20.673 240.624 20.7883 240.278 21.0189C239.955 21.2265 239.794 21.5262 239.794 21.9183C239.794 22.2873 239.863 22.6678 240.001 23.0598H240.866C241.05 23.5441 241.143 24.1321 241.143 24.8239C241.143 25.4927 240.854 26.0807 240.278 26.5881C239.701 27.0724 238.975 27.3145 238.099 27.3145C236.115 27.3145 235.124 26.3575 235.124 24.4434C235.124 21.607 237.534 20.1887 242.353 20.1887C245.098 20.1887 246.989 20.6615 248.026 21.607C249.087 22.5294 249.618 24.2359 249.618 26.7264V33.7484C249.618 34.9476 249.952 35.5472 250.621 35.5472C251.405 35.5472 251.866 34.3595 252.004 31.9843L252.523 32.0189C252.431 34.0482 252.05 35.4434 251.382 36.2044C250.713 36.9654 249.618 37.3459 248.096 37.3459C245.328 37.3459 243.737 36.4927 243.322 34.7862C243.022 35.6625 242.572 36.3082 241.973 36.7233C241.373 37.1384 240.497 37.3459 239.344 37.3459C235.931 37.3459 234.225 35.9507 234.225 33.1604C234.225 31.5231 234.87 30.4046 236.162 29.8051C237.476 29.1824 239.482 28.8711 242.18 28.8711ZM240.797 33.1258C240.797 34.325 240.854 35.0975 240.97 35.4434C241.108 35.7893 241.35 35.9623 241.696 35.9623C242.065 35.9623 242.4 35.674 242.699 35.0975C243.022 34.4979 243.184 33.6793 243.184 32.6415V29.4245H242.941C241.512 29.4245 240.797 30.4738 240.797 32.5723V33.1258ZM259.885 29.8396C259.885 32.261 260.012 33.8753 260.266 34.6824C260.519 35.4665 260.981 35.8585 261.649 35.8585C262.341 35.8585 262.929 35.5587 263.413 34.9591C263.921 34.3595 264.174 33.4717 264.174 32.2956V24.7548C264.174 23.7631 263.978 22.9214 263.586 22.2296C263.194 21.5378 262.618 21.1919 261.857 21.1919C261.096 21.1919 260.577 21.6992 260.3 22.7139C260.024 23.7285 259.885 25.5042 259.885 28.0409V29.8396ZM264.624 37L264.244 34.5786C263.46 36.4235 261.868 37.3459 259.47 37.3459C257.487 37.3459 255.942 36.631 254.835 35.2013C253.751 33.7715 253.209 31.6384 253.209 28.8019C253.209 23.0598 255.492 20.1887 260.058 20.1887C262.087 20.1887 263.425 20.7537 264.071 21.8837V11.6793H261.961V11.0567H270.608V36.3774H272.303V37H264.624ZM272.177 21.1573V20.5346H282.52V21.1573H280.341L284.492 32.6415L288.228 21.1573H285.91V20.5346H290.58V21.1573H289.058L283.938 37H279.995L273.596 21.1573H272.177ZM301.228 30.1856V27.2453C301.228 25.0084 301.101 23.3826 300.848 22.368C300.617 21.3302 300.064 20.8114 299.187 20.8114C298.68 20.8114 298.265 20.9613 297.942 21.261C297.642 21.5378 297.423 22.0105 297.285 22.6793C297.077 23.717 296.974 25.2967 296.974 27.4183V30.1164C296.974 32.63 297.043 34.1405 297.181 34.6478C297.343 35.1551 297.504 35.5702 297.665 35.8931C297.919 36.4465 298.415 36.7233 299.153 36.7233C300.052 36.7233 300.64 36.2044 300.917 35.1667C301.125 34.4287 301.228 32.7684 301.228 30.1856ZM299.084 37.3459C296.201 37.3459 294.022 36.608 292.546 35.1321C291.07 33.6562 290.332 31.5461 290.332 28.8019C290.332 26.0346 291.116 23.913 292.684 22.4371C294.275 20.9382 296.501 20.1887 299.36 20.1887C302.22 20.1887 304.353 20.8805 305.76 22.2642C307.166 23.6248 307.87 25.7118 307.87 28.5252C307.87 34.4057 304.941 37.3459 299.084 37.3459ZM318.523 20.8114C317.508 20.8114 316.782 21.3648 316.343 22.4717C315.905 23.5787 315.686 25.412 315.686 27.9717V29.7705C315.686 32.0535 315.94 33.6908 316.447 34.6824C316.955 35.674 317.889 36.1698 319.249 36.1698C320.61 36.1698 321.694 35.7086 322.501 34.7862C323.308 33.8637 323.827 32.8145 324.057 31.6384L324.68 31.7076C324.242 33.6908 323.435 35.1206 322.259 35.9969C321.059 36.8962 319.411 37.3459 317.312 37.3459C314.637 37.3459 312.585 36.631 311.155 35.2013C309.725 33.7484 309.01 31.6384 309.01 28.8711C309.01 26.0807 309.817 23.9361 311.432 22.4371C313.069 20.9382 315.34 20.1887 318.246 20.1887C320.298 20.1887 321.867 20.5923 322.95 21.3994C324.034 22.1835 324.576 23.1751 324.576 24.3742C324.576 25.5734 324.311 26.4497 323.781 27.0032C323.273 27.5566 322.558 27.8334 321.636 27.8334C320.737 27.8334 320.01 27.5912 319.457 27.1069C318.903 26.6227 318.627 25.9078 318.627 24.9623C318.627 24.5472 318.684 24.1321 318.799 23.717H319.941C320.102 23.2558 320.183 22.8407 320.183 22.4717C320.183 21.3648 319.63 20.8114 318.523 20.8114ZM333.86 28.8711H334.864V26.2076C334.864 24.0168 334.737 22.5525 334.483 21.8145C334.252 21.0535 333.791 20.673 333.099 20.673C332.684 20.673 332.304 20.7883 331.958 21.0189C331.635 21.2265 331.474 21.5262 331.474 21.9183C331.474 22.2873 331.543 22.6678 331.681 23.0598H332.546C332.73 23.5441 332.823 24.1321 332.823 24.8239C332.823 25.4927 332.534 26.0807 331.958 26.5881C331.381 27.0724 330.655 27.3145 329.779 27.3145C327.795 27.3145 326.804 26.3575 326.804 24.4434C326.804 21.607 329.214 20.1887 334.033 20.1887C336.778 20.1887 338.669 20.6615 339.706 21.607C340.767 22.5294 341.297 24.2359 341.297 26.7264V33.7484C341.297 34.9476 341.632 35.5472 342.301 35.5472C343.085 35.5472 343.546 34.3595 343.684 31.9843L344.203 32.0189C344.111 34.0482 343.73 35.4434 343.062 36.2044C342.393 36.9654 341.297 37.3459 339.775 37.3459C337.008 37.3459 335.417 36.4927 335.002 34.7862C334.702 35.6625 334.252 36.3082 333.653 36.7233C333.053 37.1384 332.177 37.3459 331.024 37.3459C327.611 37.3459 325.904 35.9507 325.904 33.1604C325.904 31.5231 326.55 30.4046 327.842 29.8051C329.156 29.1824 331.162 28.8711 333.86 28.8711ZM332.477 33.1258C332.477 34.325 332.534 35.0975 332.65 35.4434C332.788 35.7893 333.03 35.9623 333.376 35.9623C333.745 35.9623 334.079 35.674 334.379 35.0975C334.702 34.4979 334.864 33.6793 334.864 32.6415V29.4245H334.621C333.192 29.4245 332.477 30.4738 332.477 32.5723V33.1258ZM354.229 20.8114C353.214 20.8114 352.488 21.3648 352.049 22.4717C351.611 23.5787 351.392 25.412 351.392 27.9717V29.7705C351.392 32.0535 351.646 33.6908 352.153 34.6824C352.66 35.674 353.594 36.1698 354.955 36.1698C356.316 36.1698 357.399 35.7086 358.207 34.7862C359.014 33.8637 359.533 32.8145 359.763 31.6384L360.386 31.7076C359.948 33.6908 359.141 35.1206 357.964 35.9969C356.765 36.8962 355.116 37.3459 353.018 37.3459C350.343 37.3459 348.29 36.631 346.861 35.2013C345.431 33.7484 344.716 31.6384 344.716 28.8711C344.716 26.0807 345.523 23.9361 347.137 22.4371C348.775 20.9382 351.046 20.1887 353.952 20.1887C356.004 20.1887 357.572 20.5923 358.656 21.3994C359.74 22.1835 360.282 23.1751 360.282 24.3742C360.282 25.5734 360.017 26.4497 359.486 27.0032C358.979 27.5566 358.264 27.8334 357.342 27.8334C356.442 27.8334 355.716 27.5912 355.163 27.1069C354.609 26.6227 354.332 25.9078 354.332 24.9623C354.332 24.5472 354.39 24.1321 354.505 23.717H355.647C355.808 23.2558 355.889 22.8407 355.889 22.4717C355.889 21.3648 355.336 20.8114 354.229 20.8114ZM366.349 18.1479C365.127 18.1479 364.251 17.8365 363.72 17.2139C363.213 16.5913 362.959 15.8187 362.959 14.8963C362.959 13.9739 363.236 13.2129 363.79 12.6133C364.366 12.0137 365.231 11.7139 366.384 11.7139C367.537 11.7139 368.413 11.9906 369.013 12.5441C369.612 13.0745 369.912 13.847 369.912 14.8617C369.912 15.8533 369.624 16.6489 369.047 17.2485C368.471 17.8481 367.571 18.1479 366.349 18.1479ZM361.126 20.5346H369.601V36.3774H371.538V37H361.264V36.3774H363.167V21.1573H361.126V20.5346ZM380.545 28.8711H381.548V26.2076C381.548 24.0168 381.421 22.5525 381.167 21.8145C380.937 21.0535 380.476 20.673 379.784 20.673C379.369 20.673 378.988 20.7883 378.642 21.0189C378.319 21.2265 378.158 21.5262 378.158 21.9183C378.158 22.2873 378.227 22.6678 378.366 23.0598H379.23C379.415 23.5441 379.507 24.1321 379.507 24.8239C379.507 25.4927 379.219 26.0807 378.642 26.5881C378.066 27.0724 377.339 27.3145 376.463 27.3145C374.48 27.3145 373.488 26.3575 373.488 24.4434C373.488 21.607 375.898 20.1887 380.718 20.1887C383.462 20.1887 385.353 20.6615 386.391 21.607C387.452 22.5294 387.982 24.2359 387.982 26.7264V33.7484C387.982 34.9476 388.316 35.5472 388.985 35.5472C389.769 35.5472 390.23 34.3595 390.369 31.9843L390.888 32.0189C390.795 34.0482 390.415 35.4434 389.746 36.2044C389.077 36.9654 387.982 37.3459 386.46 37.3459C383.693 37.3459 382.101 36.4927 381.686 34.7862C381.387 35.6625 380.937 36.3082 380.337 36.7233C379.738 37.1384 378.861 37.3459 377.708 37.3459C374.295 37.3459 372.589 35.9507 372.589 33.1604C372.589 31.5231 373.235 30.4046 374.526 29.8051C375.84 29.1824 377.847 28.8711 380.545 28.8711ZM379.161 33.1258C379.161 34.325 379.219 35.0975 379.334 35.4434C379.473 35.7893 379.715 35.9623 380.061 35.9623C380.43 35.9623 380.764 35.674 381.064 35.0975C381.387 34.4979 381.548 33.6793 381.548 32.6415V29.4245H381.306C379.876 29.4245 379.161 30.4738 379.161 32.5723V33.1258ZM395.413 37.3459C394.421 37.3459 393.672 37.0577 393.165 36.4811C392.68 35.8816 392.438 35.1667 392.438 34.3365C392.438 33.4832 392.692 32.7684 393.199 32.1918C393.73 31.6153 394.468 31.3271 395.413 31.3271C396.359 31.3271 397.108 31.5692 397.662 32.0535C398.215 32.5377 398.492 33.2642 398.492 34.2327C398.492 35.2013 398.226 35.9623 397.696 36.5157C397.189 37.0692 396.428 37.3459 395.413 37.3459ZM408.684 28.8711H409.687V26.2076C409.687 24.0168 409.56 22.5525 409.307 21.8145C409.076 21.0535 408.615 20.673 407.923 20.673C407.508 20.673 407.127 20.7883 406.781 21.0189C406.459 21.2265 406.297 21.5262 406.297 21.9183C406.297 22.2873 406.366 22.6678 406.505 23.0598H407.369C407.554 23.5441 407.646 24.1321 407.646 24.8239C407.646 25.4927 407.358 26.0807 406.781 26.5881C406.205 27.0724 405.478 27.3145 404.602 27.3145C402.619 27.3145 401.627 26.3575 401.627 24.4434C401.627 21.607 404.037 20.1887 408.857 20.1887C411.601 20.1887 413.492 20.6615 414.53 21.607C415.591 22.5294 416.121 24.2359 416.121 26.7264V33.7484C416.121 34.9476 416.455 35.5472 417.124 35.5472C417.908 35.5472 418.369 34.3595 418.508 31.9843L419.027 32.0189C418.934 34.0482 418.554 35.4434 417.885 36.2044C417.216 36.9654 416.121 37.3459 414.599 37.3459C411.832 37.3459 410.241 36.4927 409.825 34.7862C409.526 35.6625 409.076 36.3082 408.476 36.7233C407.877 37.1384 407 37.3459 405.847 37.3459C402.434 37.3459 400.728 35.9507 400.728 33.1604C400.728 31.5231 401.374 30.4046 402.665 29.8051C403.98 29.1824 405.986 28.8711 408.684 28.8711ZM407.3 33.1258C407.3 34.325 407.358 35.0975 407.473 35.4434C407.612 35.7893 407.854 35.9623 408.2 35.9623C408.569 35.9623 408.903 35.674 409.203 35.0975C409.526 34.4979 409.687 33.6793 409.687 32.6415V29.4245H409.445C408.015 29.4245 407.3 30.4738 407.3 32.5723V33.1258ZM426.389 29.8396C426.389 32.261 426.515 33.8753 426.769 34.6824C427.023 35.4665 427.484 35.8585 428.153 35.8585C428.845 35.8585 429.433 35.5587 429.917 34.9591C430.424 34.3595 430.678 33.4717 430.678 32.2956V24.7548C430.678 23.7631 430.482 22.9214 430.09 22.2296C429.698 21.5378 429.121 21.1919 428.36 21.1919C427.599 21.1919 427.08 21.6992 426.804 22.7139C426.527 23.7285 426.389 25.5042 426.389 28.0409V29.8396ZM431.128 37L430.747 34.5786C429.963 36.4235 428.372 37.3459 425.974 37.3459C423.99 37.3459 422.445 36.631 421.338 35.2013C420.254 33.7715 419.713 31.6384 419.713 28.8019C419.713 23.0598 421.996 20.1887 426.562 20.1887C428.591 20.1887 429.928 20.7537 430.574 21.8837V11.6793H428.464V11.0567H437.112V36.3774H438.807V37H431.128ZM438.681 21.1573V20.5346H449.024V21.1573H446.844L450.995 32.6415L454.731 21.1573H452.414V20.5346H457.083V21.1573H455.561L450.442 37H446.498L440.099 21.1573H438.681ZM459.19 37.3459C458.199 37.3459 457.449 37.0577 456.942 36.4811C456.458 35.8816 456.216 35.1667 456.216 34.3365C456.216 33.4832 456.469 32.7684 456.977 32.1918C457.507 31.6153 458.245 31.3271 459.19 31.3271C460.136 31.3271 460.885 31.5692 461.439 32.0535C461.992 32.5377 462.269 33.2642 462.269 34.2327C462.269 35.2013 462.004 35.9623 461.473 36.5157C460.966 37.0692 460.205 37.3459 459.19 37.3459ZM476.785 27.695C476.785 25.3197 476.67 23.7285 476.439 22.9214C476.209 22.0912 475.759 21.6761 475.09 21.6761C474.421 21.6761 473.822 22.0912 473.291 22.9214C472.761 23.7516 472.496 24.8931 472.496 26.3459V32.7799C472.496 33.7715 472.692 34.6132 473.084 35.305C473.499 35.9969 474.076 36.3428 474.813 36.3428C475.574 36.3428 476.093 35.8354 476.37 34.8208C476.647 33.8061 476.785 32.0304 476.785 29.4937V27.695ZM472.496 11.0567V23.1636C473.372 21.1803 474.871 20.1887 476.993 20.1887C481.305 20.1887 483.461 23.0598 483.461 28.8019C483.461 31.7306 482.862 33.8868 481.662 35.2704C480.486 36.6541 478.711 37.3459 476.335 37.3459C475.136 37.3459 474.214 37.1614 473.568 36.7925C472.946 36.4235 472.519 35.8124 472.288 34.9591L472.046 37H464.159V36.3774H466.062V11.6793H464.159V11.0567H472.496ZM496.049 21.5032C495.195 21.5032 494.446 22.0566 493.8 23.1636C493.154 24.2705 492.832 25.5849 492.832 27.1069V36.3774H495.288V37H484.495V36.3774H486.398V21.1573H484.495V20.5346H492.832V23.8554C493.131 22.6793 493.708 21.7799 494.561 21.1573C495.414 20.5116 496.383 20.1887 497.467 20.1887C498.551 20.1887 499.427 20.5 500.096 21.1227C500.788 21.7223 501.133 22.587 501.133 23.717C501.133 24.8239 500.88 25.6772 500.372 26.2768C499.865 26.8763 499.081 27.1761 498.02 27.1761C496.983 27.1761 496.21 26.8302 495.703 26.1384C495.218 25.4466 495.161 24.4896 495.53 23.2673H496.775C497.352 22.0912 497.109 21.5032 496.049 21.5032Z" fill="#8CBF47"/>
<path d="M3.69 6.3374L20.95 25.9272C21.93 27.0372 23.35 27.6772 24.83 27.6772C26.31 27.6772 27.73 27.0372 28.71 25.9272L45.68 6.67725C45.82 6.51725 45.99 6.39736 46.16 6.29736C45.44 5.98736 44.65 5.80737 43.81 5.80737H5.86C5.06 5.80737 4.3 5.96732 3.61 6.25732C3.64 6.27732 3.67 6.3074 3.69 6.3374Z" fill="#1F3768"/>
<path d="M48.78 8.54736C48.7 8.74736 48.6 8.93742 48.45 9.10742L31.48 28.3574C29.8 30.2674 27.38 31.3574 24.84 31.3574C22.3 31.3574 19.88 30.2674 18.2 28.3574L0.939999 8.76733C0.909999 8.72733 0.879998 8.68745 0.849998 8.63745C0.319999 9.51745 0 10.5475 0 11.6575V38.1672C0 41.4072 2.63 44.0273 5.86 44.0273H43.82C47.06 44.0273 49.68 41.3972 49.68 38.1672V11.6575C49.68 10.5175 49.35 9.45736 48.78 8.54736Z" fill="#1F3768"/>
</svg>
