<svg width="1143" height="648" viewBox="0 0 1143 648" fill="none" xmlns="http://www.w3.org/2000/svg">
<g filter="url(#filter0_d)">
<path d="M1138.01 0H4V637.88H1138.01V0Z" fill="#8CBF47"/>
</g>
<g filter="url(#filter1_d)">
<path d="M7 639.88H676.11L713.5 609.14C810.52 529.38 824.5 386.08 744.75 289.07L508.73 2H7V639.88Z" fill="#1F3768"/>
</g>
<g filter="url(#filter2_d)">
<path d="M89.6861 479.95H100.496V480.719H98.269V507.521H100.496V508.29H88.1476V507.521H90.3743V482.217H90.2124L84.1395 508.29H79.0789L71.9534 482.096H71.7915V507.521H74.0182V508.29H68.5121V507.521H70.7388V480.719H68.5121V479.95H79.4432L84.8278 500.8L89.6861 479.95ZM112.554 508.695C109.072 508.695 106.454 507.804 104.7 506.023C102.972 504.214 102.109 501.718 102.109 498.533C102.109 495.321 103.08 492.865 105.024 491.165C106.994 489.464 109.491 488.614 112.514 488.614C118.64 488.614 121.582 491.691 121.339 497.845H109.922V499.424C109.922 502.069 110.26 504.066 110.935 505.416C111.609 506.765 112.783 507.44 114.457 507.44C117.588 507.44 119.639 505.766 120.611 502.42L121.339 502.541C120.827 504.484 119.895 505.996 118.546 507.075C117.223 508.155 115.226 508.695 112.554 508.695ZM109.963 497.035H114.133V495.051C114.133 492.865 113.998 491.381 113.728 490.598C113.485 489.788 112.972 489.383 112.19 489.383C111.434 489.383 110.867 489.815 110.489 490.679C110.138 491.516 109.963 492.973 109.963 495.051V497.035ZM141.392 489.343C140.205 489.343 139.355 489.991 138.842 491.286C138.329 492.582 138.073 494.727 138.073 497.723V499.829C138.073 502.501 138.369 504.417 138.963 505.578C139.557 506.738 140.65 507.318 142.243 507.318C143.835 507.318 145.104 506.779 146.048 505.699C146.993 504.619 147.6 503.391 147.87 502.015L148.599 502.096C148.086 504.417 147.141 506.09 145.765 507.116C144.361 508.169 142.431 508.695 139.975 508.695C136.844 508.695 134.442 507.858 132.769 506.185C131.096 504.484 130.259 502.015 130.259 498.776C130.259 495.51 131.204 493 133.093 491.246C135.009 489.491 137.668 488.614 141.068 488.614C143.471 488.614 145.306 489.086 146.575 490.031C147.843 490.949 148.477 492.109 148.477 493.513C148.477 494.916 148.167 495.942 147.546 496.59C146.952 497.237 146.116 497.561 145.036 497.561C143.983 497.561 143.133 497.278 142.485 496.711C141.838 496.144 141.514 495.308 141.514 494.201C141.514 493.715 141.581 493.229 141.716 492.744H143.052C143.241 492.204 143.336 491.718 143.336 491.286C143.336 489.991 142.688 489.343 141.392 489.343ZM149.232 477.926H158.989V492.744C159.421 491.502 160.082 490.503 160.972 489.748C161.863 488.992 163.213 488.614 165.021 488.614C169.205 488.614 171.296 490.868 171.296 495.375V507.561H173.563V508.29H162.106V507.561H163.766V494.404C163.766 492.784 163.658 491.745 163.442 491.286C163.226 490.8 162.835 490.557 162.268 490.557C161.404 490.557 160.635 491.124 159.96 492.258C159.313 493.391 158.989 494.768 158.989 496.387V507.561H160.73V508.29H149.232V507.561H151.458V478.655H149.232V477.926ZM183.896 498.776H185.07V495.659C185.07 493.094 184.921 491.381 184.625 490.517C184.355 489.626 183.815 489.181 183.005 489.181C182.519 489.181 182.074 489.316 181.669 489.586C181.291 489.829 181.102 490.18 181.102 490.638C181.102 491.07 181.183 491.516 181.345 491.974H182.357C182.573 492.541 182.681 493.229 182.681 494.039C182.681 494.822 182.344 495.51 181.669 496.104C180.994 496.671 180.144 496.954 179.119 496.954C176.797 496.954 175.637 495.834 175.637 493.594C175.637 490.274 178.457 488.614 184.098 488.614C187.31 488.614 189.523 489.167 190.738 490.274C191.979 491.354 192.6 493.351 192.6 496.266V504.484C192.6 505.888 192.992 506.59 193.774 506.59C194.692 506.59 195.232 505.2 195.394 502.42L196.001 502.46C195.893 504.835 195.448 506.468 194.665 507.359C193.882 508.25 192.6 508.695 190.819 508.695C187.58 508.695 185.718 507.696 185.232 505.699C184.881 506.725 184.355 507.48 183.653 507.966C182.951 508.452 181.926 508.695 180.576 508.695C176.581 508.695 174.584 507.062 174.584 503.796C174.584 501.88 175.34 500.571 176.851 499.869C178.39 499.14 180.738 498.776 183.896 498.776ZM182.276 503.756C182.276 505.159 182.344 506.063 182.479 506.468C182.641 506.873 182.924 507.075 183.329 507.075C183.761 507.075 184.152 506.738 184.503 506.063C184.881 505.362 185.07 504.403 185.07 503.189V499.424H184.786C183.113 499.424 182.276 500.652 182.276 503.108V503.756ZM196.399 489.019H206.156V492.744C207.047 489.991 209.003 488.614 212.026 488.614C215.076 488.614 216.925 490.072 217.573 492.987C218.517 490.072 220.501 488.614 223.524 488.614C227.492 488.614 229.476 490.868 229.476 495.375V507.561H231.743V508.29H220.528V507.561H221.945V494.404C221.945 492.352 221.77 491.151 221.419 490.8C221.257 490.638 221.041 490.557 220.771 490.557C219.988 490.557 219.3 491.084 218.706 492.136C218.113 493.189 217.816 494.525 217.816 496.144V507.561H219.273V508.29H208.868V507.561H210.285V494.404C210.285 492.352 210.11 491.151 209.759 490.8C209.597 490.638 209.381 490.557 209.111 490.557C208.356 490.557 207.667 491.138 207.047 492.298C206.453 493.432 206.156 494.795 206.156 496.387V507.561H207.613V508.29H196.399V507.561H198.626V489.748H196.399V489.019ZM242.985 508.695C239.504 508.695 236.886 507.804 235.131 506.023C233.404 504.214 232.54 501.718 232.54 498.533C232.54 495.321 233.512 492.865 235.455 491.165C237.425 489.464 239.922 488.614 242.945 488.614C249.072 488.614 252.014 491.691 251.771 497.845H240.354V499.424C240.354 502.069 240.691 504.066 241.366 505.416C242.041 506.765 243.215 507.44 244.888 507.44C248.019 507.44 250.07 505.766 251.042 502.42L251.771 502.541C251.258 504.484 250.327 505.996 248.977 507.075C247.655 508.155 245.657 508.695 242.985 508.695ZM240.394 497.035H244.564V495.051C244.564 492.865 244.429 491.381 244.159 490.598C243.917 489.788 243.404 489.383 242.621 489.383C241.865 489.383 241.298 489.815 240.921 490.679C240.57 491.516 240.394 492.973 240.394 495.051V497.035ZM270.204 498.776H271.378V495.659C271.378 493.094 271.23 491.381 270.933 490.517C270.663 489.626 270.123 489.181 269.314 489.181C268.828 489.181 268.382 489.316 267.978 489.586C267.6 489.829 267.411 490.18 267.411 490.638C267.411 491.07 267.492 491.516 267.654 491.974H268.666C268.882 492.541 268.99 493.229 268.99 494.039C268.99 494.822 268.652 495.51 267.978 496.104C267.303 496.671 266.453 496.954 265.427 496.954C263.106 496.954 261.945 495.834 261.945 493.594C261.945 490.274 264.766 488.614 270.407 488.614C273.619 488.614 275.832 489.167 277.046 490.274C278.288 491.354 278.909 493.351 278.909 496.266V504.484C278.909 505.888 279.3 506.59 280.083 506.59C281 506.59 281.54 505.2 281.702 502.42L282.309 502.46C282.201 504.835 281.756 506.468 280.973 507.359C280.191 508.25 278.909 508.695 277.127 508.695C273.888 508.695 272.026 507.696 271.54 505.699C271.189 506.725 270.663 507.48 269.961 507.966C269.26 508.452 268.234 508.695 266.884 508.695C262.89 508.695 260.893 507.062 260.893 503.796C260.893 501.88 261.648 500.571 263.16 499.869C264.698 499.14 267.046 498.776 270.204 498.776ZM268.585 503.756C268.585 505.159 268.652 506.063 268.787 506.468C268.949 506.873 269.233 507.075 269.637 507.075C270.069 507.075 270.461 506.738 270.812 506.063C271.189 505.362 271.378 504.403 271.378 503.189V499.424H271.095C269.422 499.424 268.585 500.652 268.585 503.108V503.756ZM298.744 486.914L299.878 486.225C300.04 485.389 299.716 484.97 298.906 484.97C297.746 484.97 297.165 485.861 297.165 487.642C297.165 488.344 297.26 489.154 297.449 490.072C299.5 491.448 300.526 493.216 300.526 495.375C300.526 497.507 299.783 499.167 298.299 500.355C296.815 501.542 294.804 502.136 292.267 502.136C291.214 502.136 290.121 502.028 288.987 501.812C287.8 502.568 287.206 503.135 287.206 503.513C287.206 503.891 288.07 504.08 289.797 504.08H293.927C300.053 504.08 303.117 506.279 303.117 510.679C303.117 513.054 302.186 514.93 300.323 516.306C298.488 517.71 295.613 518.411 291.7 518.411C285.033 518.411 281.7 516.967 281.7 514.079C281.7 512.514 282.739 511.434 284.817 510.841L287.246 511.934C287.031 512.716 286.923 513.459 286.923 514.16C286.923 516.482 288.65 517.642 292.105 517.642C294.21 517.642 295.829 517.251 296.963 516.468C298.097 515.685 298.663 514.714 298.663 513.553C298.663 512.393 298.312 511.61 297.611 511.205C296.936 510.827 295.573 510.638 293.522 510.638H289.595C287.408 510.638 285.843 510.274 284.898 509.545C283.954 508.816 283.481 507.926 283.481 506.873C283.481 505.793 283.819 504.903 284.493 504.201C285.168 503.472 286.369 502.582 288.097 501.529C284.966 500.638 283.4 498.587 283.4 495.375C283.4 493.351 284.129 491.718 285.587 490.476C287.044 489.235 289.23 488.614 292.145 488.614C293.9 488.614 295.398 488.951 296.639 489.626C296.477 488.897 296.396 488.236 296.396 487.642C296.396 486.131 296.801 485.038 297.611 484.363C298.42 483.688 299.325 483.351 300.323 483.351C301.322 483.351 302.118 483.621 302.712 484.161C303.333 484.673 303.643 485.389 303.643 486.306C303.643 487.224 303.4 487.912 302.914 488.371C302.429 488.803 301.835 489.019 301.133 489.019C300.458 489.019 299.891 488.844 299.433 488.493C299.001 488.115 298.771 487.588 298.744 486.914ZM290.161 494.484V496.671C290.161 498.479 290.31 499.707 290.607 500.355C290.931 501.003 291.403 501.327 292.024 501.327C292.671 501.327 293.13 501.016 293.4 500.395C293.697 499.748 293.846 498.439 293.846 496.468V494.484C293.846 492.379 293.711 491.003 293.441 490.355C293.171 489.68 292.712 489.343 292.064 489.343C291.443 489.343 290.971 489.694 290.647 490.395C290.323 491.07 290.161 492.433 290.161 494.484ZM315.513 500.314V496.873C315.513 494.255 315.364 492.352 315.068 491.165C314.798 489.95 314.15 489.343 313.124 489.343C312.53 489.343 312.045 489.518 311.667 489.869C311.316 490.193 311.06 490.746 310.898 491.529C310.655 492.744 310.533 494.592 310.533 497.076V500.233C310.533 503.175 310.614 504.943 310.776 505.537C310.965 506.131 311.154 506.617 311.343 506.995C311.64 507.642 312.22 507.966 313.084 507.966C314.136 507.966 314.825 507.359 315.149 506.144C315.391 505.281 315.513 503.337 315.513 500.314ZM313.003 508.695C309.629 508.695 307.078 507.831 305.351 506.104C303.624 504.376 302.76 501.907 302.76 498.695C302.76 495.456 303.678 492.973 305.513 491.246C307.375 489.491 309.98 488.614 313.327 488.614C316.673 488.614 319.17 489.424 320.817 491.043C322.463 492.636 323.286 495.078 323.286 498.371C323.286 505.254 319.858 508.695 313.003 508.695ZM337.941 490.153C336.942 490.153 336.065 490.8 335.309 492.096C334.553 493.391 334.175 494.93 334.175 496.711V507.561H337.05V508.29H324.418V507.561H326.645V489.748H324.418V489.019H334.175V492.906C334.526 491.529 335.201 490.476 336.2 489.748C337.198 488.992 338.332 488.614 339.601 488.614C340.869 488.614 341.895 488.978 342.677 489.707C343.487 490.409 343.892 491.421 343.892 492.744C343.892 494.039 343.595 495.038 343.001 495.74C342.408 496.441 341.49 496.792 340.248 496.792C339.034 496.792 338.13 496.387 337.536 495.578C336.969 494.768 336.901 493.648 337.333 492.217H338.791C339.466 490.841 339.182 490.153 337.941 490.153ZM353.587 498.776H354.761V495.659C354.761 493.094 354.613 491.381 354.316 490.517C354.046 489.626 353.506 489.181 352.696 489.181C352.21 489.181 351.765 489.316 351.36 489.586C350.982 489.829 350.793 490.18 350.793 490.638C350.793 491.07 350.874 491.516 351.036 491.974H352.049C352.264 492.541 352.372 493.229 352.372 494.039C352.372 494.822 352.035 495.51 351.36 496.104C350.686 496.671 349.835 496.954 348.81 496.954C346.489 496.954 345.328 495.834 345.328 493.594C345.328 490.274 348.148 488.614 353.789 488.614C357.001 488.614 359.214 489.167 360.429 490.274C361.671 491.354 362.291 493.351 362.291 496.266V504.484C362.291 505.888 362.683 506.59 363.465 506.59C364.383 506.59 364.923 505.2 365.085 502.42L365.692 502.46C365.584 504.835 365.139 506.468 364.356 507.359C363.573 508.25 362.291 508.695 360.51 508.695C357.271 508.695 355.409 507.696 354.923 505.699C354.572 506.725 354.046 507.48 353.344 507.966C352.642 508.452 351.617 508.695 350.267 508.695C346.273 508.695 344.275 507.062 344.275 503.796C344.275 501.88 345.031 500.571 346.543 499.869C348.081 499.14 350.429 498.776 353.587 498.776ZM351.968 503.756C351.968 505.159 352.035 506.063 352.17 506.468C352.332 506.873 352.615 507.075 353.02 507.075C353.452 507.075 353.843 506.738 354.194 506.063C354.572 505.362 354.761 504.403 354.761 503.189V499.424H354.478C352.804 499.424 351.968 500.652 351.968 503.108V503.756ZM373.446 489.019H383.203V492.744C383.635 491.502 384.296 490.503 385.187 489.748C386.077 488.992 387.427 488.614 389.235 488.614C393.419 488.614 395.51 490.868 395.51 495.375V507.561H397.778V508.29H386.32V507.561H387.98V494.404C387.98 492.784 387.872 491.745 387.656 491.286C387.44 490.8 387.049 490.557 386.482 490.557C385.618 490.557 384.849 491.124 384.174 492.258C383.527 493.391 383.203 494.768 383.203 496.387V507.561H384.944V508.29H373.446V507.561H375.672V489.748H373.446V489.019ZM411.389 500.314V496.873C411.389 494.255 411.241 492.352 410.944 491.165C410.674 489.95 410.026 489.343 409.001 489.343C408.407 489.343 407.921 489.518 407.543 489.869C407.192 490.193 406.936 490.746 406.774 491.529C406.531 492.744 406.409 494.592 406.409 497.076V500.233C406.409 503.175 406.49 504.943 406.652 505.537C406.841 506.131 407.03 506.617 407.219 506.995C407.516 507.642 408.096 507.966 408.96 507.966C410.013 507.966 410.701 507.359 411.025 506.144C411.268 505.281 411.389 503.337 411.389 500.314ZM408.879 508.695C405.505 508.695 402.955 507.831 401.227 506.104C399.5 504.376 398.636 501.907 398.636 498.695C398.636 495.456 399.554 492.973 401.389 491.246C403.252 489.491 405.856 488.614 409.203 488.614C412.55 488.614 415.046 489.424 416.693 491.043C418.339 492.636 419.162 495.078 419.162 498.371C419.162 505.254 415.735 508.695 408.879 508.695ZM444.33 500.112L447.691 488.452L445.262 480.719H442.954V479.95H455.504V480.719H453.116L459.148 499.869L464.006 480.719H459.917V479.95H468.015V480.719H465.342L457.893 508.695H454.29L448.298 490.395L443.035 508.695H439.513L429.31 480.719H427.408V479.95H440.565V480.719H437.731L444.33 500.112ZM468.648 477.926H478.405V492.744C478.837 491.502 479.498 490.503 480.389 489.748C481.28 488.992 482.629 488.614 484.437 488.614C488.621 488.614 490.713 490.868 490.713 495.375V507.561H492.98V508.29H481.522V507.561H483.182V494.404C483.182 492.784 483.074 491.745 482.858 491.286C482.643 490.8 482.251 490.557 481.684 490.557C480.821 490.557 480.051 491.124 479.377 492.258C478.729 493.391 478.405 494.768 478.405 496.387V507.561H480.146V508.29H468.648V507.561H470.875V478.655H468.648V477.926ZM503.312 498.776H504.486V495.659C504.486 493.094 504.338 491.381 504.041 490.517C503.771 489.626 503.231 489.181 502.421 489.181C501.936 489.181 501.49 489.316 501.085 489.586C500.708 489.829 500.519 490.18 500.519 490.638C500.519 491.07 500.6 491.516 500.762 491.974H501.774C501.99 492.541 502.098 493.229 502.098 494.039C502.098 494.822 501.76 495.51 501.085 496.104C500.411 496.671 499.561 496.954 498.535 496.954C496.214 496.954 495.053 495.834 495.053 493.594C495.053 490.274 497.874 488.614 503.515 488.614C506.726 488.614 508.94 489.167 510.154 490.274C511.396 491.354 512.017 493.351 512.017 496.266V504.484C512.017 505.888 512.408 506.59 513.191 506.59C514.108 506.59 514.648 505.2 514.81 502.42L515.417 502.46C515.309 504.835 514.864 506.468 514.081 507.359C513.299 508.25 512.017 508.695 510.235 508.695C506.996 508.695 505.134 507.696 504.648 505.699C504.297 506.725 503.771 507.48 503.069 507.966C502.368 508.452 501.342 508.695 499.992 508.695C495.998 508.695 494.001 507.062 494.001 503.796C494.001 501.88 494.756 500.571 496.268 499.869C497.806 499.14 500.154 498.776 503.312 498.776ZM501.693 503.756C501.693 505.159 501.76 506.063 501.895 506.468C502.057 506.873 502.341 507.075 502.745 507.075C503.177 507.075 503.569 506.738 503.919 506.063C504.297 505.362 504.486 504.403 504.486 503.189V499.424H504.203C502.529 499.424 501.693 500.652 501.693 503.108V503.756ZM517.246 502.501V489.748H515.02V489.019H517.246V483.796L524.777 481.934V489.019H530.04V489.748H524.777V503.391C524.777 504.66 524.898 505.591 525.141 506.185C525.411 506.779 525.951 507.075 526.761 507.075C527.57 507.075 528.272 506.671 528.866 505.861C529.487 505.051 529.891 503.945 530.08 502.541L530.769 502.622C530.553 504.484 529.959 505.969 528.987 507.075C528.016 508.155 526.41 508.695 524.169 508.695C521.929 508.695 520.215 508.25 519.028 507.359C517.84 506.468 517.246 504.849 517.246 502.501ZM532.087 508.695V501.448H532.572C533.274 503.796 534.219 505.443 535.406 506.387C536.594 507.332 538.078 507.804 539.86 507.804C542.613 507.804 543.989 506.927 543.989 505.173C543.989 504.417 543.652 503.85 542.977 503.472C541.925 502.878 540.575 502.42 538.929 502.096C537.093 501.61 535.555 500.962 534.313 500.152C532.829 499.181 532.087 497.642 532.087 495.537C532.087 493.432 532.734 491.758 534.03 490.517C535.325 489.248 537.053 488.614 539.212 488.614C540.535 488.614 541.898 488.924 543.301 489.545C543.814 489.761 544.205 489.869 544.475 489.869C544.745 489.869 544.974 489.775 545.163 489.586C545.352 489.397 545.582 489.046 545.852 488.533H546.297V494.727H545.811C544.435 491.219 542.302 489.464 539.414 489.464C538.146 489.464 537.201 489.694 536.58 490.153C535.96 490.584 535.649 491.138 535.649 491.812C535.649 492.217 535.744 492.541 535.933 492.784C536.122 493 536.27 493.162 536.378 493.27C536.486 493.378 536.661 493.499 536.904 493.634C537.147 493.742 537.35 493.837 537.512 493.918C537.674 493.972 537.917 494.053 538.24 494.161C538.591 494.269 538.848 494.336 539.01 494.363C540.845 494.822 542.167 495.227 542.977 495.578C543.787 495.901 544.556 496.306 545.285 496.792C546.769 497.818 547.512 499.478 547.512 501.772C547.512 504.039 546.837 505.766 545.487 506.954C544.138 508.115 542.289 508.695 539.941 508.695C538.267 508.695 536.648 508.304 535.083 507.521C534.759 507.305 534.502 507.197 534.313 507.197C533.72 507.197 533.139 507.696 532.572 508.695H532.087ZM565.795 507.521L562.839 498.776H554.823L551.706 507.521H554.742V508.29H548.548V507.521H550.451L560.774 479.707H564.094L574.297 507.521H576.159V508.29H562.92V507.521H565.795ZM558.993 487.278L555.187 497.885H562.515L558.993 487.278ZM591.202 497.399C591.202 494.619 591.067 492.757 590.797 491.812C590.527 490.841 590.001 490.355 589.218 490.355C588.436 490.355 587.734 490.868 587.113 491.893C586.492 492.892 586.182 494.242 586.182 495.942V503.351C586.182 504.511 586.411 505.497 586.87 506.306C587.329 507.116 588.004 507.521 588.894 507.521C589.785 507.521 590.392 506.927 590.716 505.739C591.04 504.552 591.202 502.474 591.202 499.505V497.399ZM586.101 489.019V492.217C587.154 489.815 589.016 488.614 591.688 488.614C594.009 488.614 595.804 489.451 597.072 491.124C598.368 492.798 599.016 495.335 599.016 498.735C599.016 502.136 598.314 504.646 596.911 506.266C595.534 507.885 593.456 508.695 590.676 508.695C589.38 508.695 588.409 508.533 587.761 508.209C587.113 507.885 586.587 507.386 586.182 506.711V517.197H591.405V517.926H576.425V517.197H578.652V489.748H576.506V489.019H586.101ZM615.003 497.399C615.003 494.619 614.868 492.757 614.598 491.812C614.328 490.841 613.802 490.355 613.019 490.355C612.237 490.355 611.535 490.868 610.914 491.893C610.293 492.892 609.983 494.242 609.983 495.942V503.351C609.983 504.511 610.212 505.497 610.671 506.306C611.13 507.116 611.805 507.521 612.695 507.521C613.586 507.521 614.193 506.927 614.517 505.739C614.841 504.552 615.003 502.474 615.003 499.505V497.399ZM609.902 489.019V492.217C610.955 489.815 612.817 488.614 615.489 488.614C617.81 488.614 619.605 489.451 620.874 491.124C622.169 492.798 622.817 495.335 622.817 498.735C622.817 502.136 622.115 504.646 620.712 506.266C619.335 507.885 617.257 508.695 614.477 508.695C613.181 508.695 612.21 508.533 611.562 508.209C610.914 507.885 610.388 507.386 609.983 506.711V517.197H615.206V517.926H600.226V517.197H602.453V489.748H600.307V489.019H609.902Z" fill="white"/>
</g>
<g filter="url(#filter3_d)">
<path d="M806.5 451.47H650.38V529.83H806.5V451.47Z" fill="#8CBF47"/>
</g>
<g filter="url(#filter4_d)">
<path d="M646.78 453.94V527.36H47.1V453.94H646.78V453.94ZM650.38 451.47H43.5V529.83H650.38V451.47Z" fill="#8CBF47"/>
</g>
<g filter="url(#filter5_d)">
<path d="M692.08 520.29L696.85 502.48C694.15 497.6 692.72 492.14 692.72 486.59C692.72 468.46 707.47 453.7 725.61 453.7C743.74 453.7 758.5 468.45 758.5 486.59C758.5 504.72 743.75 519.48 725.61 519.48C720.17 519.48 714.79 518.11 709.98 515.5L692.08 520.29ZM710.87 508.82L712 509.49C716.14 511.96 720.85 513.26 725.62 513.26C740.33 513.26 752.29 501.3 752.29 486.59C752.29 471.88 740.32 459.92 725.62 459.92C710.91 459.92 698.95 471.88 698.95 486.59C698.95 491.45 700.3 496.23 702.85 500.42L703.54 501.56L700.88 511.5L710.87 508.82Z" fill="white"/>
<path fill-rule="evenodd" clip-rule="evenodd" d="M737.85 491.16C736.5 490.35 734.73 489.45 733.14 490.1C731.92 490.6 731.14 492.52 730.34 493.49C729.93 493.99 729.45 494.07 728.82 493.82C724.23 491.99 720.71 488.92 718.17 484.7C717.74 484.04 717.82 483.53 718.33 482.92C719.1 482.02 720.06 481 720.26 479.78C720.47 478.57 719.9 477.15 719.4 476.06C718.76 474.68 718.04 472.71 716.66 471.92C715.39 471.2 713.71 471.6 712.58 472.53C710.62 474.12 709.68 476.62 709.71 479.1C709.72 479.8 709.8 480.5 709.97 481.18C710.37 482.81 711.12 484.34 711.97 485.79C712.61 486.88 713.31 487.94 714.06 488.96C716.52 492.3 719.57 495.2 723.11 497.36C724.88 498.44 726.78 499.39 728.75 500.04C730.96 500.77 732.93 501.53 735.32 501.08C737.82 500.61 740.29 499.06 741.28 496.65C741.57 495.94 741.72 495.14 741.56 494.39C741.21 492.84 739.11 491.92 737.85 491.16Z" fill="white"/>
</g>
<g filter="url(#filter6_d)">
<path d="M31.58 151.89H52.748C59.996 151.89 65.396 152.946 68.948 155.058C72.5 157.122 74.276 160.842 74.276 166.218C74.276 172.17 72.116 176.274 67.796 178.53C63.764 180.594 58.124 181.626 50.876 181.626H50.3V200.922H59.3V202.29H31.58V200.922H36.26V153.258H31.58V151.89ZM50.3 153.258V180.258H51.812C54.692 180.258 56.684 179.274 57.788 177.306C58.892 175.338 59.444 172.146 59.444 167.73V164.274C59.444 160.194 58.916 157.338 57.86 155.706C56.852 154.074 54.98 153.258 52.244 153.258H50.3ZM100.901 170.034C99.1248 170.034 97.5648 171.186 96.2208 173.49C94.8768 175.794 94.2048 178.53 94.2048 181.698V200.994H99.3168V202.29H76.8528V200.994H80.8128V169.314H76.8528V168.018H94.2048V174.93C94.8288 172.482 96.0288 170.61 97.8048 169.314C99.5808 167.97 101.597 167.298 103.853 167.298C106.109 167.298 107.933 167.946 109.325 169.242C110.765 170.49 111.485 172.29 111.485 174.642C111.485 176.946 110.957 178.722 109.901 179.97C108.845 181.218 107.213 181.842 105.005 181.842C102.845 181.842 101.237 181.122 100.181 179.682C99.1728 178.242 99.0528 176.25 99.8208 173.706H102.413C103.613 171.258 103.109 170.034 100.901 170.034ZM131.086 203.01C124.894 203.01 120.238 201.426 117.118 198.258C114.046 195.042 112.51 190.602 112.51 184.938C112.51 179.226 114.238 174.858 117.694 171.834C121.198 168.81 125.638 167.298 131.014 167.298C141.91 167.298 147.142 172.77 146.71 183.714H126.406V186.522C126.406 191.226 127.006 194.778 128.206 197.178C129.406 199.578 131.494 200.778 134.47 200.778C140.038 200.778 143.686 197.802 145.414 191.85L146.71 192.066C145.798 195.522 144.142 198.21 141.742 200.13C139.39 202.05 135.838 203.01 131.086 203.01ZM126.478 182.274H133.894V178.746C133.894 174.858 133.654 172.218 133.174 170.826C132.742 169.386 131.83 168.666 130.438 168.666C129.094 168.666 128.086 169.434 127.414 170.97C126.79 172.458 126.478 175.05 126.478 178.746V182.274ZM169.435 168.594C167.323 168.594 165.811 169.746 164.899 172.05C163.987 174.354 163.531 178.17 163.531 183.498V187.242C163.531 191.994 164.059 195.402 165.115 197.466C166.171 199.53 168.115 200.562 170.947 200.562C173.779 200.562 176.035 199.602 177.715 197.682C179.395 195.762 180.475 193.578 180.955 191.13L182.251 191.274C181.339 195.402 179.659 198.378 177.211 200.202C174.715 202.074 171.283 203.01 166.915 203.01C161.347 203.01 157.075 201.522 154.099 198.546C151.123 195.522 149.635 191.13 149.635 185.37C149.635 179.562 151.315 175.098 154.675 171.978C158.083 168.858 162.811 167.298 168.859 167.298C173.131 167.298 176.395 168.138 178.651 169.818C180.907 171.45 182.035 173.514 182.035 176.01C182.035 178.506 181.483 180.33 180.379 181.482C179.323 182.634 177.835 183.21 175.915 183.21C174.043 183.21 172.531 182.706 171.379 181.698C170.227 180.69 169.651 179.202 169.651 177.234C169.651 176.37 169.771 175.506 170.011 174.642H172.387C172.723 173.682 172.891 172.818 172.891 172.05C172.891 169.746 171.739 168.594 169.435 168.594ZM194.663 163.05C192.119 163.05 190.295 162.402 189.191 161.106C188.135 159.81 187.607 158.202 187.607 156.282C187.607 154.362 188.183 152.778 189.335 151.53C190.535 150.282 192.335 149.658 194.735 149.658C197.135 149.658 198.959 150.234 200.207 151.386C201.455 152.49 202.079 154.098 202.079 156.21C202.079 158.274 201.479 159.93 200.279 161.178C199.079 162.426 197.207 163.05 194.663 163.05ZM183.791 168.018H201.431V200.994H205.463V202.29H184.079V200.994H188.039V169.314H183.791V168.018ZM208.587 203.01V190.122H209.451C210.699 194.298 212.379 197.226 214.491 198.906C216.603 200.586 219.243 201.426 222.411 201.426C227.307 201.426 229.755 199.866 229.755 196.746C229.755 195.402 229.155 194.394 227.955 193.722C226.083 192.666 223.683 191.85 220.755 191.274C217.491 190.41 214.755 189.258 212.547 187.818C209.907 186.09 208.587 183.354 208.587 179.61C208.587 175.866 209.739 172.89 212.043 170.682C214.347 168.426 217.419 167.298 221.259 167.298C223.611 167.298 226.035 167.85 228.531 168.954C229.443 169.338 230.139 169.53 230.619 169.53C231.099 169.53 231.507 169.362 231.843 169.026C232.179 168.69 232.587 168.066 233.067 167.154H233.859V178.17H232.995C230.547 171.93 226.755 168.81 221.619 168.81C219.363 168.81 217.683 169.218 216.579 170.034C215.475 170.802 214.923 171.786 214.923 172.986C214.923 173.706 215.091 174.282 215.427 174.714C215.763 175.098 216.027 175.386 216.219 175.578C216.411 175.77 216.723 175.986 217.155 176.226C217.587 176.418 217.947 176.586 218.235 176.73C218.523 176.826 218.955 176.97 219.531 177.162C220.155 177.354 220.611 177.474 220.899 177.522C224.163 178.338 226.515 179.058 227.955 179.682C229.395 180.258 230.763 180.978 232.059 181.842C234.699 183.666 236.019 186.618 236.019 190.698C236.019 194.73 234.819 197.802 232.419 199.914C230.019 201.978 226.731 203.01 222.555 203.01C219.579 203.01 216.699 202.314 213.915 200.922C213.339 200.538 212.883 200.346 212.547 200.346C211.491 200.346 210.459 201.234 209.451 203.01H208.587ZM255.43 185.37H257.518V179.826C257.518 175.266 257.254 172.218 256.726 170.682C256.246 169.098 255.286 168.306 253.846 168.306C252.982 168.306 252.19 168.546 251.47 169.026C250.798 169.458 250.462 170.082 250.462 170.898C250.462 171.666 250.606 172.458 250.894 173.274H252.694C253.078 174.282 253.27 175.506 253.27 176.946C253.27 178.338 252.67 179.562 251.47 180.618C250.27 181.626 248.758 182.13 246.934 182.13C242.806 182.13 240.742 180.138 240.742 176.154C240.742 170.25 245.758 167.298 255.79 167.298C261.502 167.298 265.438 168.282 267.598 170.25C269.806 172.17 270.91 175.722 270.91 180.906V195.522C270.91 198.018 271.606 199.266 272.998 199.266C274.63 199.266 275.59 196.794 275.878 191.85L276.958 191.922C276.766 196.146 275.974 199.05 274.582 200.634C273.19 202.218 270.91 203.01 267.742 203.01C261.982 203.01 258.67 201.234 257.806 197.682C257.182 199.506 256.246 200.85 254.998 201.714C253.75 202.578 251.926 203.01 249.526 203.01C242.422 203.01 238.87 200.106 238.87 194.298C238.87 190.89 240.214 188.562 242.902 187.314C245.638 186.018 249.814 185.37 255.43 185.37ZM252.55 194.226C252.55 196.722 252.67 198.33 252.91 199.05C253.198 199.77 253.702 200.13 254.422 200.13C255.19 200.13 255.886 199.53 256.51 198.33C257.182 197.082 257.518 195.378 257.518 193.218V186.522H257.014C254.038 186.522 252.55 188.706 252.55 193.074V194.226ZM305.219 187.386C305.219 192.426 305.483 195.786 306.011 197.466C306.539 199.098 307.499 199.914 308.891 199.914C310.331 199.914 311.555 199.29 312.563 198.042C313.619 196.794 314.147 194.946 314.147 192.498V176.802C314.147 174.738 313.739 172.986 312.923 171.546C312.107 170.106 310.907 169.386 309.323 169.386C307.739 169.386 306.659 170.442 306.083 172.554C305.507 174.666 305.219 178.362 305.219 183.642V187.386ZM315.083 202.29L314.291 197.25C312.659 201.09 309.347 203.01 304.355 203.01C300.227 203.01 297.011 201.522 294.707 198.546C292.451 195.57 291.323 191.13 291.323 185.226C291.323 173.274 296.075 167.298 305.579 167.298C309.803 167.298 312.587 168.474 313.931 170.826V149.586H309.539V148.29H327.539V200.994H331.067V202.29H315.083ZM351.867 203.01C345.675 203.01 341.019 201.426 337.899 198.258C334.827 195.042 333.291 190.602 333.291 184.938C333.291 179.226 335.019 174.858 338.475 171.834C341.979 168.81 346.419 167.298 351.795 167.298C362.691 167.298 367.923 172.77 367.491 183.714H347.187V186.522C347.187 191.226 347.787 194.778 348.987 197.178C350.187 199.578 352.275 200.778 355.251 200.778C360.819 200.778 364.467 197.802 366.195 191.85L367.491 192.066C366.579 195.522 364.923 198.21 362.523 200.13C360.171 202.05 356.619 203.01 351.867 203.01ZM347.259 182.274H354.675V178.746C354.675 174.858 354.435 172.218 353.955 170.826C353.523 169.386 352.611 168.666 351.219 168.666C349.875 168.666 348.867 169.434 348.195 170.97C347.571 172.458 347.259 175.05 347.259 178.746V182.274ZM73.34 299.29H56.924L56.132 294.034C55.364 295.954 54.212 297.442 52.676 298.498C51.188 299.506 48.956 300.01 45.98 300.01C38.54 300.01 34.82 296.002 34.82 287.986V266.314H30.788V265.018H48.212V289.714C48.212 292.594 48.404 294.49 48.788 295.402C49.22 296.314 50.036 296.77 51.236 296.77C52.484 296.77 53.588 296.026 54.548 294.538C55.508 293.05 55.988 290.986 55.988 288.346V266.314H52.676V265.018H69.38V297.994H73.34V299.29ZM74.8138 265.018H92.1658V271.642C93.7498 266.746 97.2298 264.298 102.606 264.298C108.03 264.298 111.318 266.89 112.47 272.074C114.15 266.89 117.678 264.298 123.054 264.298C130.11 264.298 133.638 268.306 133.638 276.322V297.994H137.67V299.29H117.726V297.994H120.246V274.594C120.246 270.946 119.934 268.81 119.31 268.186C119.022 267.898 118.638 267.754 118.158 267.754C116.766 267.754 115.542 268.69 114.486 270.562C113.43 272.434 112.902 274.81 112.902 277.69V297.994H115.494V299.29H96.9898V297.994H99.5098V274.594C99.5098 270.946 99.1978 268.81 98.5738 268.186C98.2858 267.898 97.9018 267.754 97.4218 267.754C96.0778 267.754 94.8538 268.786 93.7498 270.85C92.6938 272.866 92.1658 275.29 92.1658 278.122V297.994H94.7578V299.29H74.8138V297.994H78.7738V266.314H74.8138V265.018ZM157.664 300.01C151.472 300.01 146.816 298.426 143.696 295.258C140.624 292.042 139.088 287.602 139.088 281.938C139.088 276.226 140.816 271.858 144.272 268.834C147.776 265.81 152.216 264.298 157.592 264.298C168.488 264.298 173.72 269.77 173.288 280.714H152.984V283.522C152.984 288.226 153.584 291.778 154.784 294.178C155.984 296.578 158.072 297.778 161.048 297.778C166.616 297.778 170.264 294.802 171.992 288.85L173.288 289.066C172.376 292.522 170.72 295.21 168.32 297.13C165.968 299.05 162.416 300.01 157.664 300.01ZM153.056 279.274H160.472V275.746C160.472 271.858 160.232 269.218 159.752 267.826C159.32 266.386 158.408 265.666 157.016 265.666C155.672 265.666 154.664 266.434 153.992 267.97C153.368 269.458 153.056 272.05 153.056 275.746V279.274ZM176.806 300.01V287.122H177.67C178.918 291.298 180.598 294.226 182.71 295.906C184.822 297.586 187.462 298.426 190.63 298.426C195.526 298.426 197.974 296.866 197.974 293.746C197.974 292.402 197.374 291.394 196.174 290.722C194.302 289.666 191.902 288.85 188.974 288.274C185.71 287.41 182.974 286.258 180.766 284.818C178.126 283.09 176.806 280.354 176.806 276.61C176.806 272.866 177.958 269.89 180.262 267.682C182.566 265.426 185.638 264.298 189.478 264.298C191.83 264.298 194.254 264.85 196.75 265.954C197.662 266.338 198.358 266.53 198.838 266.53C199.318 266.53 199.726 266.362 200.062 266.026C200.398 265.69 200.806 265.066 201.286 264.154H202.078V275.17H201.214C198.766 268.93 194.974 265.81 189.838 265.81C187.582 265.81 185.902 266.218 184.798 267.034C183.694 267.802 183.142 268.786 183.142 269.986C183.142 270.706 183.31 271.282 183.646 271.714C183.982 272.098 184.246 272.386 184.438 272.578C184.63 272.77 184.942 272.986 185.374 273.226C185.806 273.418 186.166 273.586 186.454 273.73C186.742 273.826 187.174 273.97 187.75 274.162C188.374 274.354 188.83 274.474 189.118 274.522C192.382 275.338 194.734 276.058 196.174 276.682C197.614 277.258 198.982 277.978 200.278 278.842C202.918 280.666 204.238 283.618 204.238 287.698C204.238 291.73 203.038 294.802 200.638 296.914C198.238 298.978 194.95 300.01 190.774 300.01C187.798 300.01 184.918 299.314 182.134 297.922C181.558 297.538 181.102 297.346 180.766 297.346C179.71 297.346 178.678 298.234 177.67 300.01H176.806ZM232.156 279.922C232.156 274.978 231.916 271.666 231.436 269.986C230.956 268.258 230.02 267.394 228.628 267.394C227.236 267.394 225.988 268.306 224.884 270.13C223.78 271.906 223.228 274.306 223.228 277.33V290.506C223.228 292.57 223.636 294.322 224.452 295.762C225.268 297.202 226.468 297.922 228.052 297.922C229.636 297.922 230.716 296.866 231.292 294.754C231.868 292.642 232.156 288.946 232.156 283.666V279.922ZM223.084 265.018V270.706C224.956 266.434 228.268 264.298 233.02 264.298C237.148 264.298 240.34 265.786 242.596 268.762C244.9 271.738 246.052 276.25 246.052 282.298C246.052 288.346 244.804 292.81 242.308 295.69C239.86 298.57 236.164 300.01 231.22 300.01C228.916 300.01 227.188 299.722 226.036 299.146C224.884 298.57 223.948 297.682 223.228 296.482V315.13H232.516V316.426H205.876V315.13H209.836V266.314H206.02V265.018H223.084ZM267.14 300.01C260.948 300.01 256.292 298.426 253.172 295.258C250.1 292.042 248.564 287.602 248.564 281.938C248.564 276.226 250.292 271.858 253.748 268.834C257.252 265.81 261.692 264.298 267.068 264.298C277.964 264.298 283.196 269.77 282.764 280.714H262.46V283.522C262.46 288.226 263.06 291.778 264.26 294.178C265.46 296.578 267.548 297.778 270.524 297.778C276.092 297.778 279.74 294.802 281.468 288.85L282.764 289.066C281.852 292.522 280.196 295.21 277.796 297.13C275.444 299.05 271.892 300.01 267.14 300.01ZM262.532 279.274H269.948V275.746C269.948 271.858 269.708 269.218 269.228 267.826C268.796 266.386 267.884 265.666 266.492 265.666C265.148 265.666 264.14 266.434 263.468 267.97C262.844 269.458 262.532 272.05 262.532 275.746V279.274ZM305.489 265.594C303.377 265.594 301.865 266.746 300.953 269.05C300.041 271.354 299.585 275.17 299.585 280.498V284.242C299.585 288.994 300.113 292.402 301.169 294.466C302.225 296.53 304.169 297.562 307.001 297.562C309.833 297.562 312.089 296.602 313.769 294.682C315.449 292.762 316.529 290.578 317.009 288.13L318.305 288.274C317.393 292.402 315.713 295.378 313.265 297.202C310.769 299.074 307.337 300.01 302.969 300.01C297.401 300.01 293.129 298.522 290.153 295.546C287.177 292.522 285.689 288.13 285.689 282.37C285.689 276.562 287.369 272.098 290.729 268.978C294.137 265.858 298.865 264.298 304.913 264.298C309.185 264.298 312.449 265.138 314.705 266.818C316.961 268.45 318.089 270.514 318.089 273.01C318.089 275.506 317.537 277.33 316.433 278.482C315.377 279.634 313.889 280.21 311.969 280.21C310.097 280.21 308.585 279.706 307.433 278.698C306.281 277.69 305.705 276.202 305.705 274.234C305.705 273.37 305.825 272.506 306.065 271.642H308.441C308.777 270.682 308.945 269.818 308.945 269.05C308.945 266.746 307.793 265.594 305.489 265.594ZM330.718 260.05C328.174 260.05 326.35 259.402 325.246 258.106C324.19 256.81 323.662 255.202 323.662 253.282C323.662 251.362 324.238 249.778 325.39 248.53C326.59 247.282 328.39 246.658 330.79 246.658C333.19 246.658 335.014 247.234 336.262 248.386C337.51 249.49 338.134 251.098 338.134 253.21C338.134 255.274 337.534 256.93 336.334 258.178C335.134 259.426 333.262 260.05 330.718 260.05ZM319.846 265.018H337.486V297.994H341.518V299.29H320.134V297.994H324.094V266.314H319.846V265.018ZM360.266 282.37H362.354V276.826C362.354 272.266 362.09 269.218 361.562 267.682C361.082 266.098 360.122 265.306 358.682 265.306C357.818 265.306 357.026 265.546 356.306 266.026C355.634 266.458 355.298 267.082 355.298 267.898C355.298 268.666 355.442 269.458 355.73 270.274H357.53C357.914 271.282 358.106 272.506 358.106 273.946C358.106 275.338 357.506 276.562 356.306 277.618C355.106 278.626 353.594 279.13 351.77 279.13C347.642 279.13 345.578 277.138 345.578 273.154C345.578 267.25 350.594 264.298 360.626 264.298C366.338 264.298 370.274 265.282 372.434 267.25C374.642 269.17 375.746 272.722 375.746 277.906V292.522C375.746 295.018 376.442 296.266 377.834 296.266C379.466 296.266 380.426 293.794 380.714 288.85L381.794 288.922C381.602 293.146 380.81 296.05 379.418 297.634C378.026 299.218 375.746 300.01 372.578 300.01C366.818 300.01 363.506 298.234 362.642 294.682C362.018 296.506 361.082 297.85 359.834 298.714C358.586 299.578 356.762 300.01 354.362 300.01C347.258 300.01 343.706 297.106 343.706 291.298C343.706 287.89 345.05 285.562 347.738 284.314C350.474 283.018 354.65 282.37 360.266 282.37ZM357.386 291.226C357.386 293.722 357.506 295.33 357.746 296.05C358.034 296.77 358.538 297.13 359.258 297.13C360.026 297.13 360.722 296.53 361.346 295.33C362.018 294.082 362.354 292.378 362.354 290.218V283.522H361.85C358.874 283.522 357.386 285.706 357.386 290.074V291.226ZM382.213 245.29H399.853V297.994H403.885V299.29H382.501V297.994H386.461V246.586H382.213V245.29ZM415.867 260.05C413.323 260.05 411.499 259.402 410.395 258.106C409.339 256.81 408.811 255.202 408.811 253.282C408.811 251.362 409.387 249.778 410.539 248.53C411.739 247.282 413.539 246.658 415.939 246.658C418.339 246.658 420.163 247.234 421.411 248.386C422.659 249.49 423.283 251.098 423.283 253.21C423.283 255.274 422.683 256.93 421.483 258.178C420.283 259.426 418.411 260.05 415.867 260.05ZM404.995 265.018H422.635V297.994H426.667V299.29H405.283V297.994H409.243V266.314H404.995V265.018ZM429.79 300.01V287.122H430.654C431.902 291.298 433.582 294.226 435.694 295.906C437.806 297.586 440.446 298.426 443.614 298.426C448.51 298.426 450.958 296.866 450.958 293.746C450.958 292.402 450.358 291.394 449.158 290.722C447.286 289.666 444.886 288.85 441.958 288.274C438.694 287.41 435.958 286.258 433.75 284.818C431.11 283.09 429.79 280.354 429.79 276.61C429.79 272.866 430.942 269.89 433.246 267.682C435.55 265.426 438.622 264.298 442.462 264.298C444.814 264.298 447.238 264.85 449.734 265.954C450.646 266.338 451.342 266.53 451.822 266.53C452.302 266.53 452.71 266.362 453.046 266.026C453.382 265.69 453.79 265.066 454.27 264.154H455.062V275.17H454.198C451.75 268.93 447.958 265.81 442.822 265.81C440.566 265.81 438.886 266.218 437.782 267.034C436.678 267.802 436.126 268.786 436.126 269.986C436.126 270.706 436.294 271.282 436.63 271.714C436.966 272.098 437.23 272.386 437.422 272.578C437.614 272.77 437.926 272.986 438.358 273.226C438.79 273.418 439.15 273.586 439.438 273.73C439.726 273.826 440.158 273.97 440.734 274.162C441.358 274.354 441.814 274.474 442.102 274.522C445.366 275.338 447.718 276.058 449.158 276.682C450.598 277.258 451.966 277.978 453.262 278.842C455.902 280.666 457.222 283.618 457.222 287.698C457.222 291.73 456.022 294.802 453.622 296.914C451.222 298.978 447.934 300.01 443.758 300.01C440.782 300.01 437.902 299.314 435.118 297.922C434.542 297.538 434.086 297.346 433.75 297.346C432.694 297.346 431.662 298.234 430.654 300.01H429.79ZM462.25 288.994V266.314H458.29V265.018H462.25V255.73L475.642 252.418V265.018H485.002V266.314H475.642V290.578C475.642 292.834 475.858 294.49 476.29 295.546C476.77 296.602 477.73 297.13 479.17 297.13C480.61 297.13 481.858 296.41 482.914 294.97C484.018 293.53 484.738 291.562 485.074 289.066L486.298 289.21C485.914 292.522 484.858 295.162 483.13 297.13C481.402 299.05 478.546 300.01 474.562 300.01C470.578 300.01 467.53 299.218 465.418 297.634C463.306 296.05 462.25 293.17 462.25 288.994ZM504.266 282.37H506.354V276.826C506.354 272.266 506.09 269.218 505.562 267.682C505.082 266.098 504.122 265.306 502.682 265.306C501.818 265.306 501.026 265.546 500.306 266.026C499.634 266.458 499.298 267.082 499.298 267.898C499.298 268.666 499.442 269.458 499.73 270.274H501.53C501.914 271.282 502.106 272.506 502.106 273.946C502.106 275.338 501.506 276.562 500.306 277.618C499.106 278.626 497.594 279.13 495.77 279.13C491.642 279.13 489.578 277.138 489.578 273.154C489.578 267.25 494.594 264.298 504.626 264.298C510.338 264.298 514.274 265.282 516.434 267.25C518.642 269.17 519.746 272.722 519.746 277.906V292.522C519.746 295.018 520.442 296.266 521.834 296.266C523.466 296.266 524.426 293.794 524.714 288.85L525.794 288.922C525.602 293.146 524.81 296.05 523.418 297.634C522.026 299.218 519.746 300.01 516.578 300.01C510.818 300.01 507.506 298.234 506.642 294.682C506.018 296.506 505.082 297.85 503.834 298.714C502.586 299.578 500.762 300.01 498.362 300.01C491.258 300.01 487.706 297.106 487.706 291.298C487.706 287.89 489.05 285.562 491.738 284.314C494.474 283.018 498.65 282.37 504.266 282.37ZM501.386 291.226C501.386 293.722 501.506 295.33 501.746 296.05C502.034 296.77 502.538 297.13 503.258 297.13C504.026 297.13 504.722 296.53 505.346 295.33C506.018 294.082 506.354 292.378 506.354 290.218V283.522H505.85C502.874 283.522 501.386 285.706 501.386 290.074V291.226ZM50.156 397.01C43.964 397.01 39.308 395.426 36.188 392.258C33.116 389.042 31.58 384.602 31.58 378.938C31.58 373.226 33.308 368.858 36.764 365.834C40.268 362.81 44.708 361.298 50.084 361.298C60.98 361.298 66.212 366.77 65.78 377.714H45.476V380.522C45.476 385.226 46.076 388.778 47.276 391.178C48.476 393.578 50.564 394.778 53.54 394.778C59.108 394.778 62.756 391.802 64.484 385.85L65.78 386.066C64.868 389.522 63.212 392.21 60.812 394.13C58.46 396.05 54.908 397.01 50.156 397.01ZM45.548 376.274H52.964V372.746C52.964 368.858 52.724 366.218 52.244 364.826C51.812 363.386 50.9 362.666 49.508 362.666C48.164 362.666 47.156 363.434 46.484 364.97C45.86 366.458 45.548 369.05 45.548 372.746V376.274ZM68.345 362.018H85.697V368.642C87.281 363.746 90.761 361.298 96.137 361.298C101.561 361.298 104.849 363.89 106.001 369.074C107.681 363.89 111.209 361.298 116.585 361.298C123.641 361.298 127.169 365.306 127.169 373.322V394.994H131.201V396.29H111.257V394.994H113.777V371.594C113.777 367.946 113.465 365.81 112.841 365.186C112.553 364.898 112.169 364.754 111.689 364.754C110.297 364.754 109.073 365.69 108.017 367.562C106.961 369.434 106.433 371.81 106.433 374.69V394.994H109.025V396.29H90.521V394.994H93.041V371.594C93.041 367.946 92.729 365.81 92.105 365.186C91.817 364.898 91.433 364.754 90.953 364.754C89.609 364.754 88.385 365.786 87.281 367.85C86.225 369.866 85.697 372.29 85.697 375.122V394.994H88.289V396.29H68.345V394.994H72.305V363.314H68.345V362.018ZM182.947 370.226C182.947 380.114 180.163 387.002 174.595 390.89C169.459 394.49 162.403 396.29 153.427 396.29H133.051V394.922H137.803V347.258H133.051V345.89H155.299C164.515 345.89 171.427 347.786 176.035 351.578C180.643 355.322 182.947 361.538 182.947 370.226ZM151.843 394.922H154.579C159.427 394.922 162.883 393.218 164.947 389.81C167.059 386.354 168.115 380.594 168.115 372.53V368.354C168.115 357.554 166.051 351.05 161.923 348.842C159.955 347.786 157.171 347.258 153.571 347.258H151.843V394.922ZM197.195 357.05C194.651 357.05 192.827 356.402 191.723 355.106C190.667 353.81 190.139 352.202 190.139 350.282C190.139 348.362 190.715 346.778 191.867 345.53C193.067 344.282 194.867 343.658 197.267 343.658C199.667 343.658 201.491 344.234 202.739 345.386C203.987 346.49 204.611 348.098 204.611 350.21C204.611 352.274 204.011 353.93 202.811 355.178C201.611 356.426 199.739 357.05 197.195 357.05ZM186.323 362.018H203.963V394.994H207.995V396.29H186.611V394.994H190.571V363.314H186.323V362.018ZM233.51 364.034C231.734 364.034 230.174 365.186 228.83 367.49C227.486 369.794 226.814 372.53 226.814 375.698V394.994H231.926V396.29H209.462V394.994H213.422V363.314H209.462V362.018H226.814V368.93C227.438 366.482 228.638 364.61 230.414 363.314C232.19 361.97 234.206 361.298 236.462 361.298C238.718 361.298 240.542 361.946 241.934 363.242C243.374 364.49 244.094 366.29 244.094 368.642C244.094 370.946 243.566 372.722 242.51 373.97C241.454 375.218 239.822 375.842 237.614 375.842C235.454 375.842 233.846 375.122 232.79 373.682C231.782 372.242 231.662 370.25 232.43 367.706H235.022C236.222 365.258 235.718 364.034 233.51 364.034ZM263.695 397.01C257.503 397.01 252.847 395.426 249.727 392.258C246.655 389.042 245.119 384.602 245.119 378.938C245.119 373.226 246.847 368.858 250.303 365.834C253.807 362.81 258.247 361.298 263.623 361.298C274.519 361.298 279.751 366.77 279.319 377.714H259.015V380.522C259.015 385.226 259.615 388.778 260.815 391.178C262.015 393.578 264.103 394.778 267.079 394.778C272.647 394.778 276.295 391.802 278.023 385.85L279.319 386.066C278.407 389.522 276.751 392.21 274.351 394.13C271.999 396.05 268.447 397.01 263.695 397.01ZM259.087 376.274H266.503V372.746C266.503 368.858 266.263 366.218 265.783 364.826C265.351 363.386 264.439 362.666 263.047 362.666C261.703 362.666 260.695 363.434 260.023 364.97C259.399 366.458 259.087 369.05 259.087 372.746V376.274ZM292.468 357.05C289.924 357.05 288.1 356.402 286.996 355.106C285.94 353.81 285.412 352.202 285.412 350.282C285.412 348.362 285.988 346.778 287.14 345.53C288.34 344.282 290.14 343.658 292.54 343.658C294.94 343.658 296.764 344.234 298.012 345.386C299.26 346.49 299.884 348.098 299.884 350.21C299.884 352.274 299.284 353.93 298.084 355.178C296.884 356.426 295.012 357.05 292.468 357.05ZM281.596 362.018H299.236V394.994H303.268V396.29H281.884V394.994H285.844V363.314H281.596V362.018ZM308.336 385.994V363.314H304.376V362.018H308.336V352.73L321.728 349.418V362.018H331.088V363.314H321.728V387.578C321.728 389.834 321.944 391.49 322.376 392.546C322.856 393.602 323.816 394.13 325.256 394.13C326.696 394.13 327.944 393.41 329 391.97C330.104 390.53 330.824 388.562 331.16 386.066L332.384 386.21C332 389.522 330.944 392.162 329.216 394.13C327.488 396.05 324.632 397.01 320.648 397.01C316.664 397.01 313.616 396.218 311.504 394.634C309.392 393.05 308.336 390.17 308.336 385.994ZM356.328 382.106V375.986C356.328 371.33 356.064 367.946 355.536 365.834C355.056 363.674 353.904 362.594 352.08 362.594C351.024 362.594 350.16 362.906 349.488 363.53C348.864 364.106 348.408 365.09 348.12 366.482C347.688 368.642 347.472 371.93 347.472 376.346V381.962C347.472 387.194 347.616 390.338 347.904 391.394C348.24 392.45 348.576 393.314 348.912 393.986C349.44 395.138 350.472 395.714 352.008 395.714C353.88 395.714 355.104 394.634 355.68 392.474C356.112 390.938 356.328 387.482 356.328 382.106ZM351.864 397.01C345.864 397.01 341.328 395.474 338.256 392.402C335.184 389.33 333.648 384.938 333.648 379.226C333.648 373.466 335.28 369.05 338.544 365.978C341.856 362.858 346.488 361.298 352.44 361.298C358.392 361.298 362.832 362.738 365.76 365.618C368.688 368.45 370.152 372.794 370.152 378.65C370.152 390.89 364.056 397.01 351.864 397.01ZM386.183 345.89H408.143V347.258H404.183V394.922H408.143V396.29H386.183V394.922H390.143V347.258H386.183V345.89ZM410.697 362.018H428.049V368.642C429.633 363.746 433.113 361.298 438.489 361.298C443.913 361.298 447.201 363.89 448.353 369.074C450.033 363.89 453.561 361.298 458.937 361.298C465.993 361.298 469.521 365.306 469.521 373.322V394.994H473.553V396.29H453.609V394.994H456.129V371.594C456.129 367.946 455.817 365.81 455.193 365.186C454.905 364.898 454.521 364.754 454.041 364.754C452.649 364.754 451.425 365.69 450.369 367.562C449.313 369.434 448.785 371.81 448.785 374.69V394.994H451.377V396.29H432.873V394.994H435.393V371.594C435.393 367.946 435.081 365.81 434.457 365.186C434.169 364.898 433.785 364.754 433.305 364.754C431.961 364.754 430.737 365.786 429.633 367.85C428.577 369.866 428.049 372.29 428.049 375.122V394.994H430.641V396.29H410.697V394.994H414.657V363.314H410.697V362.018ZM497.867 382.106V375.986C497.867 371.33 497.603 367.946 497.075 365.834C496.595 363.674 495.443 362.594 493.619 362.594C492.563 362.594 491.699 362.906 491.027 363.53C490.403 364.106 489.947 365.09 489.659 366.482C489.227 368.642 489.011 371.93 489.011 376.346V381.962C489.011 387.194 489.155 390.338 489.443 391.394C489.779 392.45 490.115 393.314 490.451 393.986C490.979 395.138 492.011 395.714 493.547 395.714C495.419 395.714 496.643 394.634 497.219 392.474C497.651 390.938 497.867 387.482 497.867 382.106ZM493.403 397.01C487.403 397.01 482.867 395.474 479.795 392.402C476.723 389.33 475.187 384.938 475.187 379.226C475.187 373.466 476.819 369.05 480.083 365.978C483.395 362.858 488.027 361.298 493.979 361.298C499.931 361.298 504.371 362.738 507.299 365.618C510.227 368.45 511.691 372.794 511.691 378.65C511.691 390.89 505.595 397.01 493.403 397.01ZM539.984 376.922C539.984 371.978 539.744 368.666 539.264 366.986C538.784 365.258 537.848 364.394 536.456 364.394C535.064 364.394 533.816 365.258 532.712 366.986C531.608 368.714 531.056 371.09 531.056 374.114V387.506C531.056 389.57 531.464 391.322 532.28 392.762C533.144 394.202 534.344 394.922 535.88 394.922C537.464 394.922 538.544 393.866 539.12 391.754C539.696 389.642 539.984 385.946 539.984 380.666V376.922ZM531.056 342.29V367.49C532.88 363.362 536 361.298 540.416 361.298C549.392 361.298 553.88 367.274 553.88 379.226C553.88 385.322 552.632 389.81 550.136 392.69C547.688 395.57 543.992 397.01 539.048 397.01C536.552 397.01 534.632 396.626 533.288 395.858C531.992 395.09 531.104 393.818 530.624 392.042L530.12 396.29H513.704V394.994H517.664V343.586H513.704V342.29H531.056ZM566.617 357.05C564.073 357.05 562.249 356.402 561.145 355.106C560.089 353.81 559.561 352.202 559.561 350.282C559.561 348.362 560.137 346.778 561.289 345.53C562.489 344.282 564.289 343.658 566.689 343.658C569.089 343.658 570.913 344.234 572.161 345.386C573.409 346.49 574.033 348.098 574.033 350.21C574.033 352.274 573.433 353.93 572.233 355.178C571.033 356.426 569.161 357.05 566.617 357.05ZM555.745 362.018H573.385V394.994H577.417V396.29H556.033V394.994H559.993V363.314H555.745V362.018ZM578.596 342.29H596.236V394.994H600.268V396.29H578.884V394.994H582.844V343.586H578.596V342.29ZM612.249 357.05C609.705 357.05 607.881 356.402 606.777 355.106C605.721 353.81 605.193 352.202 605.193 350.282C605.193 348.362 605.769 346.778 606.921 345.53C608.121 344.282 609.921 343.658 612.321 343.658C614.721 343.658 616.545 344.234 617.793 345.386C619.041 346.49 619.665 348.098 619.665 350.21C619.665 352.274 619.065 353.93 617.865 355.178C616.665 356.426 614.793 357.05 612.249 357.05ZM601.377 362.018H619.017V394.994H623.049V396.29H601.665V394.994H605.625V363.314H601.377V362.018ZM641.797 379.37H643.885V373.826C643.885 369.266 643.621 366.218 643.093 364.682C642.613 363.098 641.653 362.306 640.213 362.306C639.349 362.306 638.557 362.546 637.837 363.026C637.165 363.458 636.829 364.082 636.829 364.898C636.829 365.666 636.973 366.458 637.261 367.274H639.061C639.445 368.282 639.637 369.506 639.637 370.946C639.637 372.338 639.037 373.562 637.837 374.618C636.637 375.626 635.125 376.13 633.301 376.13C629.173 376.13 627.109 374.138 627.109 370.154C627.109 364.25 632.125 361.298 642.157 361.298C647.869 361.298 651.805 362.282 653.965 364.25C656.173 366.17 657.277 369.722 657.277 374.906V389.522C657.277 392.018 657.973 393.266 659.365 393.266C660.997 393.266 661.957 390.794 662.245 385.85L663.325 385.922C663.133 390.146 662.341 393.05 660.949 394.634C659.557 396.218 657.277 397.01 654.109 397.01C648.349 397.01 645.037 395.234 644.173 391.682C643.549 393.506 642.613 394.85 641.365 395.714C640.117 396.578 638.293 397.01 635.893 397.01C628.789 397.01 625.237 394.106 625.237 388.298C625.237 384.89 626.581 382.562 629.269 381.314C632.005 380.018 636.181 379.37 641.797 379.37ZM638.917 388.226C638.917 390.722 639.037 392.33 639.277 393.05C639.565 393.77 640.069 394.13 640.789 394.13C641.557 394.13 642.253 393.53 642.877 392.33C643.549 391.082 643.885 389.378 643.885 387.218V380.522H643.381C640.405 380.522 638.917 382.706 638.917 387.074V388.226ZM637.333 356.906L641.869 343.154L645.253 342.434C646.741 342.098 647.869 342.29 648.637 343.01C649.453 343.682 649.861 344.618 649.861 345.818C649.861 346.97 649.165 348.17 647.773 349.418L638.125 357.41L637.333 356.906ZM688.081 364.034C686.305 364.034 684.745 365.186 683.401 367.49C682.057 369.794 681.385 372.53 681.385 375.698V394.994H686.497V396.29H664.033V394.994H667.993V363.314H664.033V362.018H681.385V368.93C682.009 366.482 683.209 364.61 684.985 363.314C686.761 361.97 688.777 361.298 691.033 361.298C693.289 361.298 695.113 361.946 696.505 363.242C697.945 364.49 698.665 366.29 698.665 368.642C698.665 370.946 698.137 372.722 697.081 373.97C696.025 375.218 694.393 375.842 692.185 375.842C690.025 375.842 688.417 375.122 687.361 373.682C686.353 372.242 686.233 370.25 687.001 367.706H689.593C690.793 365.258 690.289 364.034 688.081 364.034ZM710.265 357.05C707.721 357.05 705.897 356.402 704.793 355.106C703.737 353.81 703.209 352.202 703.209 350.282C703.209 348.362 703.785 346.778 704.937 345.53C706.137 344.282 707.937 343.658 710.337 343.658C712.737 343.658 714.561 344.234 715.809 345.386C717.057 346.49 717.681 348.098 717.681 350.21C717.681 352.274 717.081 353.93 715.881 355.178C714.681 356.426 712.809 357.05 710.265 357.05ZM699.393 362.018H717.033V394.994H721.065V396.29H699.681V394.994H703.641V363.314H699.393V362.018ZM745.789 382.106V375.986C745.789 371.33 745.525 367.946 744.997 365.834C744.517 363.674 743.365 362.594 741.541 362.594C740.485 362.594 739.621 362.906 738.949 363.53C738.325 364.106 737.869 365.09 737.581 366.482C737.149 368.642 736.933 371.93 736.933 376.346V381.962C736.933 387.194 737.077 390.338 737.365 391.394C737.701 392.45 738.037 393.314 738.373 393.986C738.901 395.138 739.933 395.714 741.469 395.714C743.341 395.714 744.565 394.634 745.141 392.474C745.573 390.938 745.789 387.482 745.789 382.106ZM741.325 397.01C735.325 397.01 730.789 395.474 727.717 392.402C724.645 389.33 723.109 384.938 723.109 379.226C723.109 373.466 724.741 369.05 728.005 365.978C731.317 362.858 735.949 361.298 741.901 361.298C747.853 361.298 752.293 362.738 755.221 365.618C758.149 368.45 759.613 372.794 759.613 378.65C759.613 390.89 753.517 397.01 741.325 397.01ZM762.903 356.114C762.903 352.994 764.319 350.378 767.151 348.266C769.983 346.154 774.015 345.098 779.247 345.098C784.527 345.098 788.583 346.106 791.415 348.122C794.295 350.138 795.735 353.114 795.735 357.05C795.735 359.642 795.087 361.946 793.791 363.962C792.543 365.93 790.791 367.946 788.535 370.01L777.663 379.658V383.834H775.863V368.714C775.863 367.898 776.127 367.226 776.655 366.698L781.119 362.162C782.511 360.77 783.471 359.474 783.999 358.274C784.527 357.026 784.791 355.418 784.791 353.45C784.791 348.794 782.631 346.466 778.311 346.466C776.247 346.466 774.735 347.018 773.775 348.122C772.815 349.226 772.335 350.282 772.335 351.29C772.335 352.298 772.479 353.186 772.767 353.954H775.071C775.455 354.962 775.647 356.186 775.647 357.626C775.647 359.018 775.047 360.242 773.847 361.298C772.647 362.306 771.063 362.81 769.095 362.81C767.127 362.81 765.591 362.186 764.487 360.938C763.431 359.642 762.903 358.034 762.903 356.114ZM776.583 397.01C774.807 397.01 773.463 396.506 772.551 395.498C771.687 394.442 771.255 393.146 771.255 391.61C771.255 390.026 771.735 388.73 772.695 387.722C773.655 386.666 774.975 386.138 776.655 386.138C778.335 386.138 779.679 386.594 780.687 387.506C781.695 388.37 782.199 389.666 782.199 391.394C782.199 393.122 781.719 394.49 780.759 395.498C779.799 396.506 778.407 397.01 776.583 397.01Z" fill="white"/>
</g>
<g filter="url(#filter7_d)">
<path d="M1138.01 0H4V637.88H1138.01V0Z" fill="#8CBF47"/>
</g>
<g filter="url(#filter8_d)">
<path d="M7 638H675.69L713.056 607.351C810.015 527.826 823.987 384.948 744.287 288.224L508.415 2H7V638Z" fill="#1F3768"/>
</g>
<g filter="url(#filter9_d)">
<path d="M1138 101L1014.01 191.253C932.668 250.465 914.685 364.447 973.853 445.847C1003.36 486.452 1049.32 508 1095.93 508C1110.04 508 1124.21 506.019 1138 501.998V101Z" fill="#1F3768"/>
</g>
<g filter="url(#filter10_d)">
<path d="M806.5 451.47H650.38V529.83H806.5V451.47Z" fill="#8CBF47"/>
</g>
<g filter="url(#filter11_d)">
<path d="M646.78 453.94V527.36H47.1V453.94H646.78V453.94ZM650.38 451.47H43.5V529.83H650.38V451.47Z" fill="#8CBF47"/>
</g>
<g filter="url(#filter12_d)">
<path d="M692.08 520.29L696.85 502.48C694.15 497.6 692.72 492.14 692.72 486.59C692.72 468.46 707.47 453.7 725.61 453.7C743.74 453.7 758.5 468.45 758.5 486.59C758.5 504.72 743.75 519.48 725.61 519.48C720.17 519.48 714.79 518.11 709.98 515.5L692.08 520.29ZM710.87 508.82L712 509.49C716.14 511.96 720.85 513.26 725.62 513.26C740.33 513.26 752.29 501.3 752.29 486.59C752.29 471.88 740.32 459.92 725.62 459.92C710.91 459.92 698.95 471.88 698.95 486.59C698.95 491.45 700.3 496.23 702.85 500.42L703.54 501.56L700.88 511.5L710.87 508.82Z" fill="white"/>
<path fill-rule="evenodd" clip-rule="evenodd" d="M737.85 491.16C736.5 490.35 734.73 489.45 733.14 490.1C731.92 490.6 731.14 492.52 730.34 493.49C729.93 493.99 729.45 494.07 728.82 493.82C724.23 491.99 720.71 488.92 718.17 484.7C717.74 484.04 717.82 483.53 718.33 482.92C719.1 482.02 720.06 481 720.26 479.78C720.47 478.57 719.9 477.15 719.4 476.06C718.76 474.68 718.04 472.71 716.66 471.92C715.39 471.2 713.71 471.6 712.58 472.53C710.62 474.12 709.68 476.62 709.71 479.1C709.72 479.8 709.8 480.5 709.97 481.18C710.37 482.81 711.12 484.34 711.97 485.79C712.61 486.88 713.31 487.94 714.06 488.96C716.52 492.3 719.57 495.2 723.11 497.36C724.88 498.44 726.78 499.39 728.75 500.04C730.96 500.77 732.93 501.53 735.32 501.08C737.82 500.61 740.29 499.06 741.28 496.65C741.57 495.94 741.72 495.14 741.56 494.39C741.21 492.84 739.11 491.92 737.85 491.16Z" fill="white"/>
</g>
<defs>
<filter id="filter0_d" x="0" y="0" width="1142.01" height="645.88" filterUnits="userSpaceOnUse" color-interpolation-filters="sRGB">
<feFlood flood-opacity="0" result="BackgroundImageFix"/>
<feColorMatrix in="SourceAlpha" type="matrix" values="0 0 0 0 0 0 0 0 0 0 0 0 0 0 0 0 0 0 127 0"/>
<feOffset dy="4"/>
<feGaussianBlur stdDeviation="2"/>
<feColorMatrix type="matrix" values="0 0 0 0 0 0 0 0 0 0 0 0 0 0 0 0 0 0 0.25 0"/>
<feBlend mode="normal" in2="BackgroundImageFix" result="effect1_dropShadow"/>
<feBlend mode="normal" in="SourceGraphic" in2="effect1_dropShadow" result="shape"/>
</filter>
<filter id="filter1_d" x="3" y="2" width="797.496" height="645.88" filterUnits="userSpaceOnUse" color-interpolation-filters="sRGB">
<feFlood flood-opacity="0" result="BackgroundImageFix"/>
<feColorMatrix in="SourceAlpha" type="matrix" values="0 0 0 0 0 0 0 0 0 0 0 0 0 0 0 0 0 0 127 0"/>
<feOffset dy="4"/>
<feGaussianBlur stdDeviation="2"/>
<feColorMatrix type="matrix" values="0 0 0 0 0 0 0 0 0 0 0 0 0 0 0 0 0 0 0.25 0"/>
<feBlend mode="normal" in2="BackgroundImageFix" result="effect1_dropShadow"/>
<feBlend mode="normal" in="SourceGraphic" in2="effect1_dropShadow" result="shape"/>
</filter>
<filter id="filter2_d" x="64.5121" y="477.926" width="562.305" height="48.4855" filterUnits="userSpaceOnUse" color-interpolation-filters="sRGB">
<feFlood flood-opacity="0" result="BackgroundImageFix"/>
<feColorMatrix in="SourceAlpha" type="matrix" values="0 0 0 0 0 0 0 0 0 0 0 0 0 0 0 0 0 0 127 0"/>
<feOffset dy="4"/>
<feGaussianBlur stdDeviation="2"/>
<feColorMatrix type="matrix" values="0 0 0 0 0 0 0 0 0 0 0 0 0 0 0 0 0 0 0.25 0"/>
<feBlend mode="normal" in2="BackgroundImageFix" result="effect1_dropShadow"/>
<feBlend mode="normal" in="SourceGraphic" in2="effect1_dropShadow" result="shape"/>
</filter>
<filter id="filter3_d" x="646.38" y="451.47" width="164.12" height="86.36" filterUnits="userSpaceOnUse" color-interpolation-filters="sRGB">
<feFlood flood-opacity="0" result="BackgroundImageFix"/>
<feColorMatrix in="SourceAlpha" type="matrix" values="0 0 0 0 0 0 0 0 0 0 0 0 0 0 0 0 0 0 127 0"/>
<feOffset dy="4"/>
<feGaussianBlur stdDeviation="2"/>
<feColorMatrix type="matrix" values="0 0 0 0 0 0 0 0 0 0 0 0 0 0 0 0 0 0 0.25 0"/>
<feBlend mode="normal" in2="BackgroundImageFix" result="effect1_dropShadow"/>
<feBlend mode="normal" in="SourceGraphic" in2="effect1_dropShadow" result="shape"/>
</filter>
<filter id="filter4_d" x="39.5" y="451.47" width="614.88" height="86.36" filterUnits="userSpaceOnUse" color-interpolation-filters="sRGB">
<feFlood flood-opacity="0" result="BackgroundImageFix"/>
<feColorMatrix in="SourceAlpha" type="matrix" values="0 0 0 0 0 0 0 0 0 0 0 0 0 0 0 0 0 0 127 0"/>
<feOffset dy="4"/>
<feGaussianBlur stdDeviation="2"/>
<feColorMatrix type="matrix" values="0 0 0 0 0 0 0 0 0 0 0 0 0 0 0 0 0 0 0.25 0"/>
<feBlend mode="normal" in2="BackgroundImageFix" result="effect1_dropShadow"/>
<feBlend mode="normal" in="SourceGraphic" in2="effect1_dropShadow" result="shape"/>
</filter>
<filter id="filter5_d" x="688.08" y="453.7" width="74.42" height="74.59" filterUnits="userSpaceOnUse" color-interpolation-filters="sRGB">
<feFlood flood-opacity="0" result="BackgroundImageFix"/>
<feColorMatrix in="SourceAlpha" type="matrix" values="0 0 0 0 0 0 0 0 0 0 0 0 0 0 0 0 0 0 127 0"/>
<feOffset dy="4"/>
<feGaussianBlur stdDeviation="2"/>
<feColorMatrix type="matrix" values="0 0 0 0 0 0 0 0 0 0 0 0 0 0 0 0 0 0 0.25 0"/>
<feBlend mode="normal" in2="BackgroundImageFix" result="effect1_dropShadow"/>
<feBlend mode="normal" in="SourceGraphic" in2="effect1_dropShadow" result="shape"/>
</filter>
<filter id="filter6_d" x="26.788" y="148.29" width="772.947" height="256.72" filterUnits="userSpaceOnUse" color-interpolation-filters="sRGB">
<feFlood flood-opacity="0" result="BackgroundImageFix"/>
<feColorMatrix in="SourceAlpha" type="matrix" values="0 0 0 0 0 0 0 0 0 0 0 0 0 0 0 0 0 0 127 0"/>
<feOffset dy="4"/>
<feGaussianBlur stdDeviation="2"/>
<feColorMatrix type="matrix" values="0 0 0 0 0 0 0 0 0 0 0 0 0 0 0 0 0 0 0.25 0"/>
<feBlend mode="normal" in2="BackgroundImageFix" result="effect1_dropShadow"/>
<feBlend mode="normal" in="SourceGraphic" in2="effect1_dropShadow" result="shape"/>
</filter>
<filter id="filter7_d" x="0" y="0" width="1142.01" height="645.88" filterUnits="userSpaceOnUse" color-interpolation-filters="sRGB">
<feFlood flood-opacity="0" result="BackgroundImageFix"/>
<feColorMatrix in="SourceAlpha" type="matrix" values="0 0 0 0 0 0 0 0 0 0 0 0 0 0 0 0 0 0 127 0"/>
<feOffset dy="4"/>
<feGaussianBlur stdDeviation="2"/>
<feColorMatrix type="matrix" values="0 0 0 0 0 0 0 0 0 0 0 0 0 0 0 0 0 0 0.25 0"/>
<feBlend mode="normal" in2="BackgroundImageFix" result="effect1_dropShadow"/>
<feBlend mode="normal" in="SourceGraphic" in2="effect1_dropShadow" result="shape"/>
</filter>
<filter id="filter8_d" x="3" y="2" width="797" height="644" filterUnits="userSpaceOnUse" color-interpolation-filters="sRGB">
<feFlood flood-opacity="0" result="BackgroundImageFix"/>
<feColorMatrix in="SourceAlpha" type="matrix" values="0 0 0 0 0 0 0 0 0 0 0 0 0 0 0 0 0 0 127 0"/>
<feOffset dy="4"/>
<feGaussianBlur stdDeviation="2"/>
<feColorMatrix type="matrix" values="0 0 0 0 0 0 0 0 0 0 0 0 0 0 0 0 0 0 0.25 0"/>
<feBlend mode="normal" in2="BackgroundImageFix" result="effect1_dropShadow"/>
<feBlend mode="normal" in="SourceGraphic" in2="effect1_dropShadow" result="shape"/>
</filter>
<filter id="filter9_d" x="935" y="101" width="207" height="415" filterUnits="userSpaceOnUse" color-interpolation-filters="sRGB">
<feFlood flood-opacity="0" result="BackgroundImageFix"/>
<feColorMatrix in="SourceAlpha" type="matrix" values="0 0 0 0 0 0 0 0 0 0 0 0 0 0 0 0 0 0 127 0"/>
<feOffset dy="4"/>
<feGaussianBlur stdDeviation="2"/>
<feColorMatrix type="matrix" values="0 0 0 0 0 0 0 0 0 0 0 0 0 0 0 0 0 0 0.25 0"/>
<feBlend mode="normal" in2="BackgroundImageFix" result="effect1_dropShadow"/>
<feBlend mode="normal" in="SourceGraphic" in2="effect1_dropShadow" result="shape"/>
</filter>
<filter id="filter10_d" x="646.38" y="451.47" width="164.12" height="86.36" filterUnits="userSpaceOnUse" color-interpolation-filters="sRGB">
<feFlood flood-opacity="0" result="BackgroundImageFix"/>
<feColorMatrix in="SourceAlpha" type="matrix" values="0 0 0 0 0 0 0 0 0 0 0 0 0 0 0 0 0 0 127 0"/>
<feOffset dy="4"/>
<feGaussianBlur stdDeviation="2"/>
<feColorMatrix type="matrix" values="0 0 0 0 0 0 0 0 0 0 0 0 0 0 0 0 0 0 0.25 0"/>
<feBlend mode="normal" in2="BackgroundImageFix" result="effect1_dropShadow"/>
<feBlend mode="normal" in="SourceGraphic" in2="effect1_dropShadow" result="shape"/>
</filter>
<filter id="filter11_d" x="39.5" y="451.47" width="614.88" height="86.36" filterUnits="userSpaceOnUse" color-interpolation-filters="sRGB">
<feFlood flood-opacity="0" result="BackgroundImageFix"/>
<feColorMatrix in="SourceAlpha" type="matrix" values="0 0 0 0 0 0 0 0 0 0 0 0 0 0 0 0 0 0 127 0"/>
<feOffset dy="4"/>
<feGaussianBlur stdDeviation="2"/>
<feColorMatrix type="matrix" values="0 0 0 0 0 0 0 0 0 0 0 0 0 0 0 0 0 0 0.25 0"/>
<feBlend mode="normal" in2="BackgroundImageFix" result="effect1_dropShadow"/>
<feBlend mode="normal" in="SourceGraphic" in2="effect1_dropShadow" result="shape"/>
</filter>
<filter id="filter12_d" x="688.08" y="453.7" width="74.42" height="74.59" filterUnits="userSpaceOnUse" color-interpolation-filters="sRGB">
<feFlood flood-opacity="0" result="BackgroundImageFix"/>
<feColorMatrix in="SourceAlpha" type="matrix" values="0 0 0 0 0 0 0 0 0 0 0 0 0 0 0 0 0 0 127 0"/>
<feOffset dy="4"/>
<feGaussianBlur stdDeviation="2"/>
<feColorMatrix type="matrix" values="0 0 0 0 0 0 0 0 0 0 0 0 0 0 0 0 0 0 0.25 0"/>
<feBlend mode="normal" in2="BackgroundImageFix" result="effect1_dropShadow"/>
<feBlend mode="normal" in="SourceGraphic" in2="effect1_dropShadow" result="shape"/>
</filter>
</defs>
</svg>
