<svg id="Camada_1" data-name="Camada 1" xmlns="http://www.w3.org/2000/svg" viewBox="0 0 1522 533"><defs><style>.cls-1{font-size:37.23px;}.cls-1,.cls-11,.cls-13{fill:#8cbf47;}.cls-1,.cls-11{font-family:AbrilFatface-Regular, Abril Fatface;}.cls-2{letter-spacing:-0.01em;}.cls-3{letter-spacing:-0.02em;}.cls-4{letter-spacing:-0.03em;}.cls-5{letter-spacing:-0.07em;}.cls-12,.cls-6{fill:#1f3768;}.cls-7{letter-spacing:0em;}.cls-8{letter-spacing:-0.02em;}.cls-9{letter-spacing:-0.03em;}.cls-10{letter-spacing:-0.07em;}.cls-11{font-size:38.55px;}.cls-12{fill-rule:evenodd;}</style></defs><text class="cls-1" transform="translate(454.51 131.21)">se<tspan class="cls-2" x="35.36" y="0">r</tspan><tspan x="53.42" y="0">gio@shsa</tspan><tspan class="cls-3" x="213.27" y="0">d</tspan><tspan class="cls-4" x="234.41" y="0">v</tspan><tspan x="253.29" y="0">ocacia.a</tspan><tspan class="cls-3" x="392.44" y="0">d</tspan><tspan class="cls-5" x="413.58" y="0">v</tspan><tspan x="430.78" y="0">.br </tspan></text><path class="cls-6" d="M400,100.8l18.58,21.08a5.58,5.58,0,0,0,8.35,0l18.26-20.72a2,2,0,0,1,.52-.41,6.47,6.47,0,0,0-2.53-.53H402.31a6.26,6.26,0,0,0-2.42.49Z"/><path class="cls-6" d="M448.5,103.18a1.85,1.85,0,0,1-.36.6L429.88,124.5a9.52,9.52,0,0,1-14.29,0L397,103.42a.71.71,0,0,1-.1-.14,6.3,6.3,0,0,0-.91,3.25v28.54a6.32,6.32,0,0,0,6.31,6.31h40.85a6.32,6.32,0,0,0,6.31-6.31V106.53A6.28,6.28,0,0,0,448.5,103.18Z"/><text class="cls-1" transform="translate(1050.71 131.21)"><tspan class="cls-3">ww</tspan><tspan class="cls-5" x="60.61" y="0">w</tspan><tspan class="cls-7" x="89.05" y="0">.shsa</tspan><tspan class="cls-8" x="174.59" y="0">d</tspan><tspan class="cls-9" x="195.74" y="0">v</tspan><tspan x="214.61" y="0">ocacia.a</tspan><tspan class="cls-8" x="353.76" y="0">d</tspan><tspan class="cls-10" x="374.91" y="0">v</tspan><tspan x="392.1" y="0">.br</tspan></text><path class="cls-6" d="M1021.14,97.27a23.53,23.53,0,1,0,23.53,23.53A23.56,23.56,0,0,0,1021.14,97.27Zm20.21,21.91h-8.85c-.22-7.34-1.93-13.56-4.55-17.48A20.3,20.3,0,0,1,1041.35,119.18Zm-20.21,21.9c-3.67,0-7.74-7.58-8.11-18.65h16.22C1028.88,133.5,1024.81,141.08,1021.14,141.08Zm-8.11-21.9c.37-11.08,4.44-18.66,8.11-18.66s7.74,7.58,8.11,18.66Zm1.29-17.48c-2.62,3.92-4.32,10.14-4.54,17.48h-8.85A20.31,20.31,0,0,1,1014.32,101.7Zm-13.39,20.73h8.85c.22,7.33,1.92,13.56,4.54,17.47A20.31,20.31,0,0,1,1000.93,122.43Zm27,17.47c2.62-3.91,4.33-10.14,4.55-17.47h8.85A20.3,20.3,0,0,1,1028,139.9Z"/><text class="cls-11" transform="translate(790.71 283.32)">(11) 9 7226-6100</text><path class="cls-6" d="M682.48,315.91l6.22-23.2a42.93,42.93,0,1,1,17.1,17ZM707,301l1.47.87A34.82,34.82,0,1,0,696.5,290l.91,1.48-3.48,12.95Z"/><path class="cls-12" d="M742.1,278c-1.76-1.05-4.06-2.23-6.14-1.38-1.59.65-2.61,3.15-3.64,4.42a1.52,1.52,0,0,1-2,.43,27.78,27.78,0,0,1-13.86-11.88,1.7,1.7,0,0,1,.21-2.32c1-1.17,2.25-2.51,2.52-4.09s-.47-3.43-1.12-4.84c-.84-1.8-1.77-4.37-3.58-5.39a4.92,4.92,0,0,0-5.32.79,10.83,10.83,0,0,0-3.74,8.56,12.34,12.34,0,0,0,.34,2.71,22.5,22.5,0,0,0,2.6,6,47.45,47.45,0,0,0,2.72,4.13,41.87,41.87,0,0,0,11.79,10.95,35.65,35.65,0,0,0,7.35,3.5c2.88.95,5.45,1.94,8.56,1.35,3.26-.62,6.47-2.64,7.76-5.77a5.09,5.09,0,0,0,.36-2.95C746.49,280.16,743.74,279,742.1,278Z"/><path class="cls-13" d="M287,209.8c2.17,54.13-95.27,47.64-119.09-6.5,6.45-17.74,19.9-35,36.81-52-.18,31.58,6.49,52,17.32,62.8l2.17-10.83c6.67,12.65,17.69,22.09,30.31,26l-4.33-6.5c8.66,4.33,15.83,3.48,23.82,2.17l-4.33-2.17C279.74,222.8,285.15,218.1,287,209.8Z"/><path class="cls-6" d="M268.94,215.54c-54.13,2.16-47.64-95.28,6.49-119.1,17.75,6.46,35,19.9,52,36.82-31.58-.18-52,6.49-62.79,17.32l10.82,2.16c-12.64,6.68-22.08,17.7-26,30.32l6.49-4.33c-3.6,7.25-3.47,15.83-2.16,23.82l2.16-4.34C255.93,208.3,260.64,213.7,268.94,215.54Z"/><path class="cls-13" d="M263.2,197.49c-2.17-54.13,95.27-47.63,119.09,6.5-6.45,17.75-19.9,35-36.81,52,.18-31.58-6.5-52-17.32-62.8L326,204c-6.68-12.65-17.69-22.09-30.31-26l4.33,6.5c-6.53-2.85-15.83-3.48-23.82-2.16l4.33,2.16C270.43,184.49,265,189.2,263.2,197.49Z"/><path class="cls-6" d="M281.24,191.75c54.13-2.16,47.64,95.28-6.49,119.1-17.75-6.46-35-19.9-52-36.81,31.57.17,52-6.5,62.79-17.33l-10.82-2.16c12.64-6.68,22.08-17.7,26-30.32l-6.5,4.33c3.58-5.77,3.48-15.83,2.17-23.81l-2.17,4.33C294.25,199,289.54,193.59,281.24,191.75Z"/><path class="cls-6" d="M59.31,455.21a46.23,46.23,0,0,0,5.38,9.33l-8.18.09a13.84,13.84,0,0,0-1.42-6.06l-2-4.64H41l-1.75,3.72c-.59,1.29-1.93,4.27-1.74,7H29.08c1.15-1.33,2.16-2.57,5-8.22L47.37,430h.27Zm-16.4-5.33h8.36l-4-9.23Z"/><path class="cls-6" d="M87.43,430a28.66,28.66,0,0,0-.82,7.35v23.29a9.7,9.7,0,0,0,.82,4H82.06v-4c-1.75,1.94-3.59,4-7,4-4.64,0-9-4-9-10.2,0-6.89,6.06-13.32,12.82-13.32a10.53,10.53,0,0,1,3.26.5v-4.27a15.82,15.82,0,0,0-1-6.06Zm-5.37,15.8A6,6,0,0,0,77.6,444a8.22,8.22,0,0,0-4.55,1.51,12.38,12.38,0,0,0-2,7c0,8.32,7.12,8.59,8,8.59a4.32,4.32,0,0,0,2.94-1Z"/><path class="cls-6" d="M96.62,440.51a9.7,9.7,0,0,0-.22,1.75,17.37,17.37,0,0,0,.82,3.63l3.17,11.58,3.31-11.22a19.27,19.27,0,0,0,.87-5.74h5.06a17.34,17.34,0,0,0-2.8,6l-5.33,18.15H97.68l-3.86-14.15c-.32-.92-1.56-5-1.88-5.74a15.48,15.48,0,0,0-2.39-4.23Z"/><path class="cls-6" d="M133.2,451.81c0,10.48-8.78,13.19-11.72,13.19-4.68,0-10.7-3.08-10.7-11.44,0-10,6.75-12.08,10.7-13.28C128.05,440.05,133.2,444.69,133.2,451.81Zm-4.32,1c0-4.87-3.08-9.24-7.35-9.24-3.12,0-5.84,3-5.84,8.09,0,6.89,4.6,10.29,9,9.92A10.2,10.2,0,0,0,128.88,452.78Z"/><path class="cls-6" d="M153.05,446.12a6.39,6.39,0,0,0-5.15-2.44c-5.33,0-6.84,4.83-6.84,8.36,0,7,4.5,9,7.58,9a17,17,0,0,0,5.15-.92l-2.49,3.86a12.47,12.47,0,0,1-3.9.6,10.93,10.93,0,0,1-11.17-11.3c0-3.31,1.57-12.64,12.59-12.64a22.59,22.59,0,0,1,4.64.46Z"/><path class="cls-6" d="M158.84,441.48l3-.65a10.68,10.68,0,0,1,2.12-.18c4.45,0,6.34,2.53,6.84,3.4a5.76,5.76,0,0,1,.69,3.49l.18,13.74a17.14,17.14,0,0,0,.88,3.35h-5.42v-3.35c-1.75,1.29-2.26,1.7-4,3.12a11.6,11.6,0,0,1-1.92.23c-1.89,0-6.07-1.65-6.07-5.56,0-4.13,5.33-6.48,8.45-7.72a11.21,11.21,0,0,0,3.5-1.74v-1.24a3.93,3.93,0,0,0-.28-1.93,5.58,5.58,0,0,0-4.78-2.3,8.5,8.5,0,0,0-4.55,1.56Zm8.32,12.63H161a8.59,8.59,0,0,0-.87,3.63c0,2.67,2.16,3.54,4.55,3.54a7.53,7.53,0,0,0,2.48-.42Z"/><path class="cls-6" d="M193.71,446.12a6.37,6.37,0,0,0-5.14-2.44c-5.33,0-6.85,4.83-6.85,8.36,0,7,4.5,9,7.58,9a17,17,0,0,0,5.15-.92L192,463.94a12.49,12.49,0,0,1-3.91.6,10.93,10.93,0,0,1-11.16-11.3c0-3.31,1.56-12.64,12.59-12.64a22.67,22.67,0,0,1,4.64.46Z"/><path class="cls-6" d="M204,440.51c-.6,1.15-1.15,2.16-1.15,6V458c0,4.37.73,5.61,1.38,6.66h-7.4c1.06-1.61,1.42-2.2,1.42-6.94V446.58a11.27,11.27,0,0,0-1.24-6.07Zm-.1-6.66a3.36,3.36,0,0,1-3.26,3.44,3.28,3.28,0,0,1-3.26-3.53,3.24,3.24,0,0,1,3.17-3.45A3.52,3.52,0,0,1,203.91,433.85Z"/><path class="cls-6" d="M211.45,441.48l3-.65a10.68,10.68,0,0,1,2.12-.18c4.45,0,6.34,2.53,6.84,3.4a5.76,5.76,0,0,1,.69,3.49l.19,13.74a16.91,16.91,0,0,0,.87,3.35h-5.42v-3.35c-1.75,1.29-2.25,1.7-4,3.12a11.9,11.9,0,0,1-1.93.23c-1.89,0-6.07-1.65-6.07-5.56,0-4.13,5.33-6.48,8.45-7.72a11.21,11.21,0,0,0,3.5-1.74v-1.24a3.81,3.81,0,0,0-.28-1.93,5.58,5.58,0,0,0-4.78-2.3,8.5,8.5,0,0,0-4.55,1.56Zm8.32,12.63h-6.16a8.59,8.59,0,0,0-.87,3.63c0,2.67,2.16,3.54,4.55,3.54a7.53,7.53,0,0,0,2.48-.42Z"/><path class="cls-6" d="M278.07,436v4.32a24.3,24.3,0,0,0-6.24-.6,48.26,48.26,0,0,1-1.61,15.62c4.5,4,6,4.6,11.25,6.71l-4.64,2.8c-2.29-.32-3.26-.73-8.54-5.56a11.78,11.78,0,0,1-3.36,3.17,18.72,18.72,0,0,1-9.32,2.48c-5.56,0-11.44-2.66-11.44-8.86a9.07,9.07,0,0,1,5-8.18,6.92,6.92,0,0,1-2.44-5.47c0-4.41,3.63-7.08,7.54-7.08a6.92,6.92,0,0,1,7.17,6.76,7.36,7.36,0,0,1-2.53,5.37,28.58,28.58,0,0,1,7.81,4.46,53.24,53.24,0,0,0,1.06-12.22,29.73,29.73,0,0,0-4.87.23V436Zm-24.35,14c-1.15.45-4.91,2-4.91,5.6,0,2.67,2.34,5.05,7.16,5.05a10.26,10.26,0,0,0,9-4.41C261.44,453,258.87,451.63,253.72,450Zm-3.08-7.54a3.44,3.44,0,0,0,6.85-.09,3.45,3.45,0,0,0-6.85.09Z"/><path class="cls-6" d="M326.09,436.7a18.26,18.26,0,0,0-9-2.48c-7.67,0-13.05,5.69-13.05,13.37,0,7,4.6,13.09,12.68,13.09A15.55,15.55,0,0,0,326.92,457l-.28,5.33a21.81,21.81,0,0,1-10.75,2.62c-13.37,0-17.28-10.57-17.28-16.77,0-9.19,7.72-18.29,20.08-18.29a20.14,20.14,0,0,1,7.4,1.33Z"/><path class="cls-6" d="M350.9,451.81c0,10.48-8.77,13.19-11.71,13.19-4.69,0-10.71-3.08-10.71-11.44,0-10,6.76-12.08,10.71-13.28C345.76,440.05,350.9,444.69,350.9,451.81Zm-4.32,1c0-4.87-3.07-9.24-7.35-9.24-3.12,0-5.83,3-5.83,8.09,0,6.89,4.59,10.29,9,9.92A10.2,10.2,0,0,0,346.58,452.78Z"/><path class="cls-6" d="M364,441.43a7.49,7.49,0,0,1,3.68-1.1,6.23,6.23,0,0,1,6.06,6.29V460.5a8.14,8.14,0,0,0,.87,4.13h-6.15a9.27,9.27,0,0,0,.73-4V447.36c0-.83-.83-3.13-4.36-3.13a6.5,6.5,0,0,0-4.28,1.38V459.3a26.48,26.48,0,0,0,.42,5.33h-6.11a18.18,18.18,0,0,0,1.19-7.35V444.37a35.21,35.21,0,0,0-.64-3.86h5.19l-.05,4.69Z"/><path class="cls-6" d="M392,445.43a6.6,6.6,0,0,0-4.46-2.12,3.27,3.27,0,0,0-3.49,3.22c0,1.84,1,2.48,4.09,4.55,2.48,1.65,4.13,3.31,4.13,6.66,0,4.09-2.71,6.94-7.85,6.94a20.22,20.22,0,0,1-5.79-.87l.32-6.21c2.2,3.17,3.35,4.46,5.28,4.46a3.26,3.26,0,0,0,3.54-3.26c0-2.07-1.29-2.9-3.81-4.51-1.57-1-4.6-3.07-4.6-6.93,0-2.67,2.3-6.76,8-6.76a11.23,11.23,0,0,1,4.6,1Z"/><path class="cls-6" d="M402.92,440.56a5.73,5.73,0,0,0-1.15,4v13.24a3.62,3.62,0,0,0,3.77,3.17,7.72,7.72,0,0,0,4.5-1.66V446.21a11.58,11.58,0,0,0-.92-5.56l6.75-.09a9.4,9.4,0,0,0-1.19,4.45v14a15.41,15.41,0,0,0,.83,5.65h-5.65a43.6,43.6,0,0,0,.18-4.87l-3.63,3.95a7.67,7.67,0,0,1-3.45,1c-.82,0-3.95-.37-5.88-4.41l.09-13.6c.05-3.4-.45-4.6-1.24-6.11Z"/><path class="cls-6" d="M428,429.94a41.71,41.71,0,0,0-.83,7.81v19.76a13.32,13.32,0,0,0,1.47,7.12h-7.81a12.21,12.21,0,0,0,1.75-5.47l0-22.55a14.75,14.75,0,0,0-1-5.38Z"/><path class="cls-6" d="M445.37,441.11v3h-6.11v8.64c0,5.42,0,6,.23,6.66a3.41,3.41,0,0,0,3,2,14.16,14.16,0,0,0,3.12-.51L443,464.26a17.76,17.76,0,0,1-3.95.51c-3.63,0-4.6-2.66-4.6-3.95,0-1,.14-1.84.14-3.35V444.14H431.5c.69-.83,1.42-1.56,7.76-8.09v5.06Z"/><path class="cls-6" d="M469.59,451.81c0,10.48-8.78,13.19-11.72,13.19-4.68,0-10.7-3.08-10.7-11.44,0-10,6.75-12.08,10.7-13.28C464.44,440.05,469.59,444.69,469.59,451.81Zm-4.32,1c0-4.87-3.08-9.24-7.35-9.24-3.13,0-5.84,3-5.84,8.09,0,6.89,4.6,10.29,9,9.92A10.2,10.2,0,0,0,465.27,452.78Z"/><path class="cls-6" d="M479.7,440.56a14.47,14.47,0,0,0-.23,3.3v2.95c1.42-2.76,3.08-6.12,7-6.12a4.09,4.09,0,0,1,2.2.6l-.78,5.79c-1.24-1.15-1.88-1.75-3.67-1.75a6.42,6.42,0,0,0-4.78,2.12V459c0,3.49.37,4.27,1.19,5.65h-7a6.76,6.76,0,0,0,1.2-4.59v-15.3a11.11,11.11,0,0,0-.78-4.18Z"/><path class="cls-6" d="M497.85,440.51c-.6,1.15-1.15,2.16-1.15,6V458c0,4.37.73,5.61,1.38,6.66h-7.4c1.06-1.61,1.42-2.2,1.42-6.94V446.58a11.27,11.27,0,0,0-1.24-6.07Zm-.09-6.66a3.37,3.37,0,0,1-3.27,3.44,3.28,3.28,0,0,1-3.26-3.53,3.24,3.24,0,0,1,3.17-3.45A3.53,3.53,0,0,1,497.76,433.85Z"/><path class="cls-6" d="M505.29,441.48l3-.65a10.73,10.73,0,0,1,2.12-.18c4.45,0,6.34,2.53,6.84,3.4a5.76,5.76,0,0,1,.69,3.49l.19,13.74a16.91,16.91,0,0,0,.87,3.35h-5.42v-3.35c-1.75,1.29-2.25,1.7-3.95,3.12a11.9,11.9,0,0,1-1.93.23c-1.89,0-6.07-1.65-6.07-5.56,0-4.13,5.33-6.48,8.46-7.72a11.24,11.24,0,0,0,3.49-1.74v-1.24a3.81,3.81,0,0,0-.28-1.93,5.58,5.58,0,0,0-4.78-2.3A8.52,8.52,0,0,0,504,445.7Zm8.32,12.63h-6.16a8.74,8.74,0,0,0-.87,3.63c0,2.67,2.16,3.54,4.55,3.54a7.53,7.53,0,0,0,2.48-.42Z"/><path class="cls-6" d="M211.07,335.21c-3.59-2.59-8.16-5.89-15.45-5.89-7.07,0-12.61,4.2-12.61,10.09,0,7.1,6.85,10.8,17.07,16.19,11.75,6.2,15,12.1,15,19.29,0,12.39-10.56,21.39-27.63,21.39a48.8,48.8,0,0,1-14-2V378.39c3.7,3.9,8.49,9.09,16,9.09,7.07,0,12.19-5.19,12.19-10.49s-4.46-8.49-6.86-9.89c-17.4-10-24.36-14-24.36-25.39,0-11.89,10.77-21.69,24.15-21.69,7.39,0,12.61,2.1,16.53,3.6Z"/><path class="cls-6" d="M254.69,320.62c-1.41,3.5-3.26,7.7-3.26,17.19V353h34.92V339.71c0-10.29-1.74-15.09-3.16-19.09h18.6c-1.85,4.9-3.15,8.5-3.15,20v34.68c0,12.39,1.41,16.09,3.15,20.49h-18.6c1.74-4.6,3.16-8.1,3.16-20.09V362.5H251.43v12.39c0,11.89,1.63,16.49,3,20.89H236c1.42-3.5,3.16-8.1,3.16-19.29V339.91c0-10.69-1.85-15.89-3.16-19.29Z"/><path class="cls-6" d="M364.13,335.21c-3.59-2.59-8.16-5.89-15.45-5.89-7.07,0-12.62,4.2-12.62,10.09,0,7.1,6.85,10.8,17.08,16.19,11.75,6.2,15,12.1,15,19.29,0,12.39-10.55,21.39-27.63,21.39a48.73,48.73,0,0,1-14-2V378.39c3.7,3.9,8.48,9.09,16,9.09,7.07,0,12.18-5.19,12.18-10.49s-4.46-8.49-6.85-9.89c-17.41-10-24.37-14-24.37-25.39,0-11.89,10.77-21.69,24.15-21.69,7.4,0,12.62,2.1,16.54,3.6Z"/></svg>