<svg width="461" height="47" viewBox="0 0 461 47" fill="none" xmlns="http://www.w3.org/2000/svg">
<path d="M61.5176 21.1573V20.5346H70.4421V21.1573H69.0239L72.1371 32.8145L75.2157 21.1573H72.8289V20.5346H77.4987V21.1573H76.0459L71.8949 37H67.156L64.1465 26.3805L60.895 37H56.2598L51.1403 21.1573H49.5837V20.5346H60.0648V21.1573H57.9893L61.1717 32.9183L63.6623 24.8239L62.7975 21.1573H61.5176ZM89.6904 21.1573V20.5346H98.615V21.1573H97.1967L100.31 32.8145L103.389 21.1573H101.002V20.5346H105.672V21.1573H104.219L100.068 37H95.3288L92.3194 26.3805L89.0678 37H84.4326L79.3131 21.1573H77.7565V20.5346H88.2376V21.1573H86.1622L89.3445 32.9183L91.8351 24.8239L90.9703 21.1573H89.6904ZM117.863 21.1573V20.5346H126.788V21.1573H125.37L128.483 32.8145L131.561 21.1573H129.175V20.5346H133.844V21.1573H132.392L128.241 37H123.502L120.492 26.3805L117.241 37H112.605L107.486 21.1573H105.929V20.5346H116.41V21.1573H114.335L117.517 32.9183L120.008 24.8239L119.143 21.1573H117.863ZM136.635 37.3459C135.643 37.3459 134.894 37.0577 134.386 36.4811C133.902 35.8816 133.66 35.1667 133.66 34.3365C133.66 33.4832 133.914 32.7684 134.421 32.1918C134.951 31.6153 135.689 31.3271 136.635 31.3271C137.58 31.3271 138.33 31.5692 138.883 32.0535C139.437 32.5377 139.713 33.2642 139.713 34.2327C139.713 35.2013 139.448 35.9623 138.918 36.5157C138.411 37.0692 137.65 37.3459 136.635 37.3459ZM142.399 37.3459V31.1541H142.815C143.414 33.1604 144.221 34.5671 145.236 35.3742C146.251 36.1813 147.519 36.5849 149.041 36.5849C151.393 36.5849 152.569 35.8354 152.569 34.3365C152.569 33.6908 152.281 33.2065 151.704 32.8837C150.805 32.3763 149.652 31.9843 148.245 31.7076C146.677 31.2925 145.363 30.739 144.302 30.0472C143.034 29.217 142.399 27.9025 142.399 26.1038C142.399 24.3051 142.953 22.8753 144.06 21.8145C145.167 20.7307 146.643 20.1887 148.487 20.1887C149.617 20.1887 150.782 20.4539 151.981 20.9843C152.419 21.1688 152.754 21.261 152.984 21.261C153.215 21.261 153.411 21.1803 153.572 21.0189C153.734 20.8575 153.93 20.5577 154.16 20.1195H154.541V25.412H154.126C152.95 22.4141 151.128 20.9151 148.66 20.9151C147.577 20.9151 146.769 21.1112 146.239 21.5032C145.709 21.8722 145.443 22.3449 145.443 22.9214C145.443 23.2673 145.524 23.5441 145.686 23.7516C145.847 23.9361 145.974 24.0745 146.066 24.1667C146.158 24.2589 146.308 24.3627 146.516 24.478C146.723 24.5703 146.896 24.651 147.035 24.7202C147.173 24.7663 147.381 24.8355 147.657 24.9277C147.957 25.0199 148.176 25.0776 148.315 25.1007C149.883 25.4927 151.013 25.8386 151.704 26.1384C152.396 26.4151 153.053 26.761 153.676 27.1761C154.944 28.0524 155.579 29.4707 155.579 31.4308C155.579 33.3679 155.002 34.8438 153.849 35.8585C152.696 36.8501 151.116 37.3459 149.11 37.3459C147.68 37.3459 146.297 37.0115 144.959 36.3428C144.682 36.1583 144.463 36.066 144.302 36.066C143.795 36.066 143.299 36.4927 142.815 37.3459H142.399ZM156.602 11.0567H164.939V23.717C165.308 22.6562 165.873 21.803 166.634 21.1573C167.395 20.5116 168.548 20.1887 170.093 20.1887C173.667 20.1887 175.454 22.1143 175.454 25.9654V36.3774H177.392V37H167.602V36.3774H169.021V25.1353C169.021 23.7516 168.928 22.8638 168.744 22.4717C168.559 22.0566 168.225 21.8491 167.741 21.8491C167.003 21.8491 166.345 22.3334 165.769 23.3019C165.216 24.2705 164.939 25.4466 164.939 26.8302V36.3774H166.426V37H156.602V36.3774H158.505V11.6793H156.602V11.0567ZM178.713 37.3459V31.1541H179.128C179.728 33.1604 180.535 34.5671 181.55 35.3742C182.564 36.1813 183.833 36.5849 185.355 36.5849C187.707 36.5849 188.883 35.8354 188.883 34.3365C188.883 33.6908 188.595 33.2065 188.018 32.8837C187.119 32.3763 185.966 31.9843 184.559 31.7076C182.991 31.2925 181.677 30.739 180.616 30.0472C179.348 29.217 178.713 27.9025 178.713 26.1038C178.713 24.3051 179.267 22.8753 180.374 21.8145C181.481 20.7307 182.957 20.1887 184.801 20.1887C185.931 20.1887 187.096 20.4539 188.295 20.9843C188.733 21.1688 189.068 21.261 189.298 21.261C189.529 21.261 189.725 21.1803 189.886 21.0189C190.048 20.8575 190.244 20.5577 190.474 20.1195H190.855V25.412H190.44C189.264 22.4141 187.442 20.9151 184.974 20.9151C183.89 20.9151 183.083 21.1112 182.553 21.5032C182.023 21.8722 181.757 22.3449 181.757 22.9214C181.757 23.2673 181.838 23.5441 181.999 23.7516C182.161 23.9361 182.288 24.0745 182.38 24.1667C182.472 24.2589 182.622 24.3627 182.83 24.478C183.037 24.5703 183.21 24.651 183.349 24.7202C183.487 24.7663 183.694 24.8355 183.971 24.9277C184.271 25.0199 184.49 25.0776 184.628 25.1007C186.197 25.4927 187.327 25.8386 188.018 26.1384C188.71 26.4151 189.367 26.761 189.99 27.1761C191.258 28.0524 191.893 29.4707 191.893 31.4308C191.893 33.3679 191.316 34.8438 190.163 35.8585C189.01 36.8501 187.43 37.3459 185.424 37.3459C183.994 37.3459 182.611 37.0115 181.273 36.3428C180.996 36.1583 180.777 36.066 180.616 36.066C180.109 36.066 179.613 36.4927 179.128 37.3459H178.713ZM201.218 28.8711H202.221V26.2076C202.221 24.0168 202.094 22.5525 201.841 21.8145C201.61 21.0535 201.149 20.673 200.457 20.673C200.042 20.673 199.661 20.7883 199.316 21.0189C198.993 21.2265 198.831 21.5262 198.831 21.9183C198.831 22.2873 198.9 22.6678 199.039 23.0598H199.904C200.088 23.5441 200.18 24.1321 200.18 24.8239C200.18 25.4927 199.892 26.0807 199.316 26.5881C198.739 27.0724 198.013 27.3145 197.136 27.3145C195.153 27.3145 194.162 26.3575 194.162 24.4434C194.162 21.607 196.571 20.1887 201.391 20.1887C204.135 20.1887 206.026 20.6615 207.064 21.607C208.125 22.5294 208.655 24.2359 208.655 26.7264V33.7484C208.655 34.9476 208.99 35.5472 209.658 35.5472C210.442 35.5472 210.904 34.3595 211.042 31.9843L211.561 32.0189C211.469 34.0482 211.088 35.4434 210.419 36.2044C209.751 36.9654 208.655 37.3459 207.133 37.3459C204.366 37.3459 202.775 36.4927 202.36 34.7862C202.06 35.6625 201.61 36.3082 201.011 36.7233C200.411 37.1384 199.535 37.3459 198.382 37.3459C194.969 37.3459 193.262 35.9507 193.262 33.1604C193.262 31.5231 193.908 30.4046 195.199 29.8051C196.514 29.1824 198.52 28.8711 201.218 28.8711ZM199.834 33.1258C199.834 34.325 199.892 35.0975 200.007 35.4434C200.146 35.7893 200.388 35.9623 200.734 35.9623C201.103 35.9623 201.437 35.674 201.737 35.0975C202.06 34.4979 202.221 33.6793 202.221 32.6415V29.4245H201.979C200.549 29.4245 199.834 30.4738 199.834 32.5723V33.1258ZM218.923 29.8396C218.923 32.261 219.05 33.8753 219.303 34.6824C219.557 35.4665 220.018 35.8585 220.687 35.8585C221.379 35.8585 221.967 35.5587 222.451 34.9591C222.958 34.3595 223.212 33.4717 223.212 32.2956V24.7548C223.212 23.7631 223.016 22.9214 222.624 22.2296C222.232 21.5378 221.655 21.1919 220.894 21.1919C220.133 21.1919 219.615 21.6992 219.338 22.7139C219.061 23.7285 218.923 25.5042 218.923 28.0409V29.8396ZM223.662 37L223.281 34.5786C222.497 36.4235 220.906 37.3459 218.508 37.3459C216.524 37.3459 214.979 36.631 213.872 35.2013C212.789 33.7715 212.247 31.6384 212.247 28.8019C212.247 23.0598 214.53 20.1887 219.096 20.1887C221.125 20.1887 222.463 20.7537 223.108 21.8837V11.6793H220.998V11.0567H229.646V36.3774H231.341V37H223.662ZM231.215 21.1573V20.5346H241.558V21.1573H239.379L243.529 32.6415L247.265 21.1573H244.948V20.5346H249.618V21.1573H248.096L242.976 37H239.033L232.633 21.1573H231.215ZM260.266 30.1856V27.2453C260.266 25.0084 260.139 23.3826 259.885 22.368C259.655 21.3302 259.101 20.8114 258.225 20.8114C257.718 20.8114 257.303 20.9613 256.98 21.261C256.68 21.5378 256.461 22.0105 256.323 22.6793C256.115 23.717 256.011 25.2967 256.011 27.4183V30.1164C256.011 32.63 256.08 34.1405 256.219 34.6478C256.38 35.1551 256.542 35.5702 256.703 35.8931C256.957 36.4465 257.452 36.7233 258.19 36.7233C259.09 36.7233 259.678 36.2044 259.955 35.1667C260.162 34.4287 260.266 32.7684 260.266 30.1856ZM258.121 37.3459C255.239 37.3459 253.059 36.608 251.584 35.1321C250.108 33.6562 249.37 31.5461 249.37 28.8019C249.37 26.0346 250.154 23.913 251.722 22.4371C253.313 20.9382 255.538 20.1887 258.398 20.1887C261.258 20.1887 263.391 20.8805 264.797 22.2642C266.204 23.6248 266.907 25.7118 266.907 28.5252C266.907 34.4057 263.979 37.3459 258.121 37.3459ZM277.56 20.8114C276.546 20.8114 275.819 21.3648 275.381 22.4717C274.943 23.5787 274.724 25.412 274.724 27.9717V29.7705C274.724 32.0535 274.978 33.6908 275.485 34.6824C275.992 35.674 276.926 36.1698 278.287 36.1698C279.647 36.1698 280.731 35.7086 281.538 34.7862C282.345 33.8637 282.864 32.8145 283.095 31.6384L283.718 31.7076C283.279 33.6908 282.472 35.1206 281.296 35.9969C280.097 36.8962 278.448 37.3459 276.35 37.3459C273.675 37.3459 271.622 36.631 270.192 35.2013C268.763 33.7484 268.048 31.6384 268.048 28.8711C268.048 26.0807 268.855 23.9361 270.469 22.4371C272.107 20.9382 274.378 20.1887 277.284 20.1887C279.336 20.1887 280.904 20.5923 281.988 21.3994C283.072 22.1835 283.614 23.1751 283.614 24.3742C283.614 25.5734 283.349 26.4497 282.818 27.0032C282.311 27.5566 281.596 27.8334 280.674 27.8334C279.774 27.8334 279.048 27.5912 278.494 27.1069C277.941 26.6227 277.664 25.9078 277.664 24.9623C277.664 24.5472 277.722 24.1321 277.837 23.717H278.979C279.14 23.2558 279.221 22.8407 279.221 22.4717C279.221 21.3648 278.667 20.8114 277.56 20.8114ZM292.898 28.8711H293.901V26.2076C293.901 24.0168 293.774 22.5525 293.521 21.8145C293.29 21.0535 292.829 20.673 292.137 20.673C291.722 20.673 291.341 20.7883 290.996 21.0189C290.673 21.2265 290.511 21.5262 290.511 21.9183C290.511 22.2873 290.58 22.6678 290.719 23.0598H291.584C291.768 23.5441 291.86 24.1321 291.86 24.8239C291.86 25.4927 291.572 26.0807 290.996 26.5881C290.419 27.0724 289.693 27.3145 288.816 27.3145C286.833 27.3145 285.841 26.3575 285.841 24.4434C285.841 21.607 288.251 20.1887 293.071 20.1887C295.815 20.1887 297.706 20.6615 298.744 21.607C299.805 22.5294 300.335 24.2359 300.335 26.7264V33.7484C300.335 34.9476 300.669 35.5472 301.338 35.5472C302.122 35.5472 302.584 34.3595 302.722 31.9843L303.241 32.0189C303.149 34.0482 302.768 35.4434 302.099 36.2044C301.43 36.9654 300.335 37.3459 298.813 37.3459C296.046 37.3459 294.455 36.4927 294.04 34.7862C293.74 35.6625 293.29 36.3082 292.69 36.7233C292.091 37.1384 291.215 37.3459 290.062 37.3459C286.649 37.3459 284.942 35.9507 284.942 33.1604C284.942 31.5231 285.588 30.4046 286.879 29.8051C288.194 29.1824 290.2 28.8711 292.898 28.8711ZM291.514 33.1258C291.514 34.325 291.572 35.0975 291.687 35.4434C291.826 35.7893 292.068 35.9623 292.414 35.9623C292.783 35.9623 293.117 35.674 293.417 35.0975C293.74 34.4979 293.901 33.6793 293.901 32.6415V29.4245H293.659C292.229 29.4245 291.514 30.4738 291.514 32.5723V33.1258ZM313.266 20.8114C312.252 20.8114 311.525 21.3648 311.087 22.4717C310.649 23.5787 310.43 25.412 310.43 27.9717V29.7705C310.43 32.0535 310.683 33.6908 311.191 34.6824C311.698 35.674 312.632 36.1698 313.993 36.1698C315.353 36.1698 316.437 35.7086 317.244 34.7862C318.051 33.8637 318.57 32.8145 318.801 31.6384L319.423 31.7076C318.985 33.6908 318.178 35.1206 317.002 35.9969C315.803 36.8962 314.154 37.3459 312.056 37.3459C309.38 37.3459 307.328 36.631 305.898 35.2013C304.469 33.7484 303.754 31.6384 303.754 28.8711C303.754 26.0807 304.561 23.9361 306.175 22.4371C307.812 20.9382 310.084 20.1887 312.989 20.1887C315.042 20.1887 316.61 20.5923 317.694 21.3994C318.778 22.1835 319.32 23.1751 319.32 24.3742C319.32 25.5734 319.054 26.4497 318.524 27.0032C318.017 27.5566 317.302 27.8334 316.379 27.8334C315.48 27.8334 314.754 27.5912 314.2 27.1069C313.647 26.6227 313.37 25.9078 313.37 24.9623C313.37 24.5472 313.428 24.1321 313.543 23.717H314.684C314.846 23.2558 314.927 22.8407 314.927 22.4717C314.927 21.3648 314.373 20.8114 313.266 20.8114ZM325.387 18.1479C324.165 18.1479 323.288 17.8365 322.758 17.2139C322.251 16.5913 321.997 15.8187 321.997 14.8963C321.997 13.9739 322.274 13.2129 322.827 12.6133C323.404 12.0137 324.268 11.7139 325.421 11.7139C326.575 11.7139 327.451 11.9906 328.05 12.5441C328.65 13.0745 328.95 13.847 328.95 14.8617C328.95 15.8533 328.662 16.6489 328.085 17.2485C327.508 17.8481 326.609 18.1479 325.387 18.1479ZM320.164 20.5346H328.638V36.3774H330.576V37H320.302V36.3774H322.205V21.1573H320.164V20.5346ZM339.582 28.8711H340.586V26.2076C340.586 24.0168 340.459 22.5525 340.205 21.8145C339.975 21.0535 339.513 20.673 338.821 20.673C338.406 20.673 338.026 20.7883 337.68 21.0189C337.357 21.2265 337.196 21.5262 337.196 21.9183C337.196 22.2873 337.265 22.6678 337.403 23.0598H338.268C338.453 23.5441 338.545 24.1321 338.545 24.8239C338.545 25.4927 338.257 26.0807 337.68 26.5881C337.103 27.0724 336.377 27.3145 335.501 27.3145C333.518 27.3145 332.526 26.3575 332.526 24.4434C332.526 21.607 334.936 20.1887 339.755 20.1887C342.5 20.1887 344.391 20.6615 345.428 21.607C346.489 22.5294 347.02 24.2359 347.02 26.7264V33.7484C347.02 34.9476 347.354 35.5472 348.023 35.5472C348.807 35.5472 349.268 34.3595 349.406 31.9843L349.925 32.0189C349.833 34.0482 349.452 35.4434 348.784 36.2044C348.115 36.9654 347.02 37.3459 345.498 37.3459C342.73 37.3459 341.139 36.4927 340.724 34.7862C340.424 35.6625 339.975 36.3082 339.375 36.7233C338.775 37.1384 337.899 37.3459 336.746 37.3459C333.333 37.3459 331.627 35.9507 331.627 33.1604C331.627 31.5231 332.272 30.4046 333.564 29.8051C334.878 29.1824 336.884 28.8711 339.582 28.8711ZM338.199 33.1258C338.199 34.325 338.257 35.0975 338.372 35.4434C338.51 35.7893 338.752 35.9623 339.098 35.9623C339.467 35.9623 339.802 35.674 340.101 35.0975C340.424 34.4979 340.586 33.6793 340.586 32.6415V29.4245H340.344C338.914 29.4245 338.199 30.4738 338.199 32.5723V33.1258ZM354.451 37.3459C353.459 37.3459 352.71 37.0577 352.202 36.4811C351.718 35.8816 351.476 35.1667 351.476 34.3365C351.476 33.4832 351.73 32.7684 352.237 32.1918C352.767 31.6153 353.505 31.3271 354.451 31.3271C355.396 31.3271 356.146 31.5692 356.699 32.0535C357.253 32.5377 357.529 33.2642 357.529 34.2327C357.529 35.2013 357.264 35.9623 356.734 36.5157C356.226 37.0692 355.465 37.3459 354.451 37.3459ZM367.722 28.8711H368.725V26.2076C368.725 24.0168 368.598 22.5525 368.344 21.8145C368.114 21.0535 367.652 20.673 366.961 20.673C366.545 20.673 366.165 20.7883 365.819 21.0189C365.496 21.2265 365.335 21.5262 365.335 21.9183C365.335 22.2873 365.404 22.6678 365.542 23.0598H366.407C366.592 23.5441 366.684 24.1321 366.684 24.8239C366.684 25.4927 366.396 26.0807 365.819 26.5881C365.243 27.0724 364.516 27.3145 363.64 27.3145C361.657 27.3145 360.665 26.3575 360.665 24.4434C360.665 21.607 363.075 20.1887 367.894 20.1887C370.639 20.1887 372.53 20.6615 373.567 21.607C374.628 22.5294 375.159 24.2359 375.159 26.7264V33.7484C375.159 34.9476 375.493 35.5472 376.162 35.5472C376.946 35.5472 377.407 34.3595 377.545 31.9843L378.064 32.0189C377.972 34.0482 377.592 35.4434 376.923 36.2044C376.254 36.9654 375.159 37.3459 373.637 37.3459C370.869 37.3459 369.278 36.4927 368.863 34.7862C368.563 35.6625 368.114 36.3082 367.514 36.7233C366.914 37.1384 366.038 37.3459 364.885 37.3459C361.472 37.3459 359.766 35.9507 359.766 33.1604C359.766 31.5231 360.411 30.4046 361.703 29.8051C363.017 29.1824 365.023 28.8711 367.722 28.8711ZM366.338 33.1258C366.338 34.325 366.396 35.0975 366.511 35.4434C366.649 35.7893 366.891 35.9623 367.237 35.9623C367.606 35.9623 367.941 35.674 368.24 35.0975C368.563 34.4979 368.725 33.6793 368.725 32.6415V29.4245H368.483C367.053 29.4245 366.338 30.4738 366.338 32.5723V33.1258ZM385.426 29.8396C385.426 32.261 385.553 33.8753 385.807 34.6824C386.06 35.4665 386.522 35.8585 387.19 35.8585C387.882 35.8585 388.47 35.5587 388.955 34.9591C389.462 34.3595 389.716 33.4717 389.716 32.2956V24.7548C389.716 23.7631 389.52 22.9214 389.127 22.2296C388.735 21.5378 388.159 21.1919 387.398 21.1919C386.637 21.1919 386.118 21.6992 385.841 22.7139C385.565 23.7285 385.426 25.5042 385.426 28.0409V29.8396ZM390.165 37L389.785 34.5786C389.001 36.4235 387.409 37.3459 385.011 37.3459C383.028 37.3459 381.483 36.631 380.376 35.2013C379.292 33.7715 378.75 31.6384 378.75 28.8019C378.75 23.0598 381.033 20.1887 385.599 20.1887C387.629 20.1887 388.966 20.7537 389.612 21.8837V11.6793H387.502V11.0567H396.149V36.3774H397.844V37H390.165ZM397.719 21.1573V20.5346H408.061V21.1573H405.882L410.033 32.6415L413.769 21.1573H411.451V20.5346H416.121V21.1573H414.599L409.479 37H405.536L399.137 21.1573H397.719ZM418.228 37.3459C417.236 37.3459 416.487 37.0577 415.98 36.4811C415.495 35.8816 415.253 35.1667 415.253 34.3365C415.253 33.4832 415.507 32.7684 416.014 32.1918C416.545 31.6153 417.283 31.3271 418.228 31.3271C419.174 31.3271 419.923 31.5692 420.476 32.0535C421.03 32.5377 421.307 33.2642 421.307 34.2327C421.307 35.2013 421.041 35.9623 420.511 36.5157C420.004 37.0692 419.243 37.3459 418.228 37.3459ZM435.823 27.695C435.823 25.3197 435.707 23.7285 435.477 22.9214C435.246 22.0912 434.797 21.6761 434.128 21.6761C433.459 21.6761 432.859 22.0912 432.329 22.9214C431.799 23.7516 431.533 24.8931 431.533 26.3459V32.7799C431.533 33.7715 431.729 34.6132 432.122 35.305C432.537 35.9969 433.113 36.3428 433.851 36.3428C434.612 36.3428 435.131 35.8354 435.408 34.8208C435.684 33.8061 435.823 32.0304 435.823 29.4937V27.695ZM431.533 11.0567V23.1636C432.41 21.1803 433.909 20.1887 436.03 20.1887C440.343 20.1887 442.499 23.0598 442.499 28.8019C442.499 31.7306 441.899 33.8868 440.7 35.2704C439.524 36.6541 437.748 37.3459 435.373 37.3459C434.174 37.3459 433.251 37.1614 432.606 36.7925C431.983 36.4235 431.557 35.8124 431.326 34.9591L431.084 37H423.197V36.3774H425.1V11.6793H423.197V11.0567H431.533ZM455.086 21.5032C454.233 21.5032 453.484 22.0566 452.838 23.1636C452.192 24.2705 451.869 25.5849 451.869 27.1069V36.3774H454.325V37H443.533V36.3774H445.435V21.1573H443.533V20.5346H451.869V23.8554C452.169 22.6793 452.746 21.7799 453.599 21.1573C454.452 20.5116 455.421 20.1887 456.504 20.1887C457.588 20.1887 458.465 20.5 459.133 21.1227C459.825 21.7223 460.171 22.587 460.171 23.717C460.171 24.8239 459.917 25.6772 459.41 26.2768C458.903 26.8763 458.119 27.1761 457.058 27.1761C456.02 27.1761 455.248 26.8302 454.74 26.1384C454.256 25.4466 454.198 24.4896 454.567 23.2673H455.813C456.389 22.0912 456.147 21.5032 455.086 21.5032Z" fill="#8CBF47"/>
<path d="M21.86 3.05737C9.79998 3.05737 0 12.8672 0 24.9172C0 36.9672 9.80999 46.7773 21.86 46.7773C33.92 46.7773 43.72 36.9672 43.72 24.9172C43.72 12.8672 33.92 3.05737 21.86 3.05737ZM40.64 23.4172H32.42C32.22 16.5972 30.63 10.8172 28.2 7.17725C35.02 9.61725 40.04 15.9072 40.64 23.4172ZM21.86 43.7673C18.45 43.7673 14.6699 36.7172 14.3199 26.4272H29.39C29.05 36.7272 25.27 43.7673 21.86 43.7673ZM14.3199 23.4172C14.6599 13.1272 18.44 6.07739 21.86 6.07739C25.27 6.07739 29.06 13.1272 29.4 23.4172H14.3199ZM15.53 7.17725C13.1 10.8172 11.51 16.5972 11.31 23.4172H3.08997C3.67997 15.9072 8.68997 9.61725 15.53 7.17725ZM3.07996 26.4272H11.3C11.5 33.2472 13.09 39.0272 15.52 42.6672C8.68996 40.2272 3.67996 33.9472 3.07996 26.4272ZM28.19 42.6672C30.62 39.0272 32.21 33.2472 32.41 26.4272H40.6299C40.0399 33.9472 35.02 40.2272 28.19 42.6672Z" fill="#1F3768"/>
</svg>
