<svg width="461" height="48" viewBox="0 0 461 48" fill="none" xmlns="http://www.w3.org/2000/svg">
<path d="M61.8576 21.3699V20.7473H70.7822V21.3699H69.3639L72.4771 33.0271L75.5557 21.3699H73.1689V20.7473H77.8387V21.3699H76.3859L72.235 37.2126H67.496L64.4866 26.5932L61.235 37.2126H56.5998L51.4803 21.3699H49.9237V20.7473H60.4048V21.3699H58.3294L61.5117 33.1309L64.0023 25.0366L63.1375 21.3699H61.8576ZM90.0305 21.3699V20.7473H98.955V21.3699H97.5367L100.65 33.0271L103.729 21.3699H101.342V20.7473H106.012V21.3699H104.559L100.408 37.2126H95.6688L92.6594 26.5932L89.4078 37.2126H84.7726L79.6531 21.3699H78.0965V20.7473H88.5776V21.3699H86.5022L89.6846 33.1309L92.1751 25.0366L91.3103 21.3699H90.0305ZM118.203 21.3699V20.7473H127.128V21.3699H125.71L128.823 33.0271L131.901 21.3699H129.515V20.7473H134.184V21.3699H132.732L128.581 37.2126H123.842L120.832 26.5932L117.581 37.2126H112.945L107.826 21.3699H106.269V20.7473H116.75V21.3699H114.675L117.857 33.1309L120.348 25.0366L119.483 21.3699H118.203ZM136.975 37.5586C135.983 37.5586 135.234 37.2703 134.726 36.6938C134.242 36.0942 134 35.3793 134 34.5491C134 33.6959 134.254 32.981 134.761 32.4045C135.291 31.828 136.029 31.5397 136.975 31.5397C137.92 31.5397 138.67 31.7818 139.223 32.2661C139.777 32.7504 140.054 33.4768 140.054 34.4454C140.054 35.4139 139.788 36.1749 139.258 36.7284C138.751 37.2818 137.99 37.5586 136.975 37.5586ZM142.739 37.5586V31.3668H143.155C143.754 33.373 144.561 34.7797 145.576 35.5869C146.591 36.394 147.859 36.7976 149.381 36.7976C151.733 36.7976 152.909 36.0481 152.909 34.5491C152.909 33.9034 152.621 33.4192 152.044 33.0963C151.145 32.589 149.992 32.1969 148.585 31.9202C147.017 31.5051 145.703 30.9517 144.642 30.2598C143.374 29.4296 142.739 28.1152 142.739 26.3164C142.739 24.5177 143.293 23.0879 144.4 22.0272C145.507 20.9433 146.983 20.4014 148.828 20.4014C149.957 20.4014 151.122 20.6666 152.321 21.197C152.759 21.3815 153.094 21.4737 153.324 21.4737C153.555 21.4737 153.751 21.393 153.912 21.2316C154.074 21.0701 154.27 20.7703 154.5 20.3322H154.881V25.6246H154.466C153.29 22.6267 151.468 21.1278 149 21.1278C147.917 21.1278 147.109 21.3238 146.579 21.7158C146.049 22.0848 145.783 22.5576 145.783 23.1341C145.783 23.48 145.864 23.7567 146.026 23.9643C146.187 24.1487 146.314 24.2871 146.406 24.3793C146.498 24.4716 146.648 24.5754 146.856 24.6907C147.063 24.7829 147.236 24.8636 147.375 24.9328C147.513 24.9789 147.721 25.0481 147.997 25.1404C148.297 25.2326 148.516 25.2902 148.655 25.3133C150.223 25.7053 151.353 26.0513 152.044 26.351C152.736 26.6278 153.394 26.9737 154.016 27.3888C155.285 28.2651 155.919 29.6833 155.919 31.6435C155.919 33.5806 155.342 35.0565 154.189 36.0711C153.036 37.0628 151.456 37.5586 149.45 37.5586C148.02 37.5586 146.637 37.2242 145.299 36.5554C145.022 36.3709 144.803 36.2787 144.642 36.2787C144.135 36.2787 143.639 36.7053 143.155 37.5586H142.739ZM156.942 11.2693H165.279V23.9297C165.648 22.8689 166.213 22.0156 166.974 21.3699C167.735 20.7242 168.888 20.4014 170.433 20.4014C174.007 20.4014 175.795 22.3269 175.795 26.1781V36.59H177.732V37.2126H167.942V36.59H169.361V25.3479C169.361 23.9643 169.268 23.0764 169.084 22.6844C168.899 22.2693 168.565 22.0617 168.081 22.0617C167.343 22.0617 166.686 22.546 166.109 23.5146C165.556 24.4831 165.279 25.6592 165.279 27.0429V36.59H166.766V37.2126H156.942V36.59H158.845V11.892H156.942V11.2693ZM179.053 37.5586V31.3668H179.468C180.068 33.373 180.875 34.7797 181.89 35.5869C182.905 36.394 184.173 36.7976 185.695 36.7976C188.047 36.7976 189.223 36.0481 189.223 34.5491C189.223 33.9034 188.935 33.4192 188.358 33.0963C187.459 32.589 186.306 32.1969 184.899 31.9202C183.331 31.5051 182.017 30.9517 180.956 30.2598C179.688 29.4296 179.053 28.1152 179.053 26.3164C179.053 24.5177 179.607 23.0879 180.714 22.0272C181.821 20.9433 183.297 20.4014 185.141 20.4014C186.271 20.4014 187.436 20.6666 188.635 21.197C189.073 21.3815 189.408 21.4737 189.638 21.4737C189.869 21.4737 190.065 21.393 190.226 21.2316C190.388 21.0701 190.584 20.7703 190.814 20.3322H191.195V25.6246H190.78C189.604 22.6267 187.782 21.1278 185.314 21.1278C184.231 21.1278 183.423 21.3238 182.893 21.7158C182.363 22.0848 182.097 22.5576 182.097 23.1341C182.097 23.48 182.178 23.7567 182.34 23.9643C182.501 24.1487 182.628 24.2871 182.72 24.3793C182.812 24.4716 182.962 24.5754 183.17 24.6907C183.377 24.7829 183.55 24.8636 183.689 24.9328C183.827 24.9789 184.034 25.0481 184.311 25.1404C184.611 25.2326 184.83 25.2902 184.968 25.3133C186.537 25.7053 187.667 26.0513 188.358 26.351C189.05 26.6278 189.707 26.9737 190.33 27.3888C191.598 28.2651 192.233 29.6833 192.233 31.6435C192.233 33.5806 191.656 35.0565 190.503 36.0711C189.35 37.0628 187.77 37.5586 185.764 37.5586C184.334 37.5586 182.951 37.2242 181.613 36.5554C181.336 36.3709 181.117 36.2787 180.956 36.2787C180.449 36.2787 179.953 36.7053 179.468 37.5586H179.053ZM201.558 29.0837H202.561V26.4202C202.561 24.2295 202.434 22.7651 202.181 22.0272C201.95 21.2661 201.489 20.8856 200.797 20.8856C200.382 20.8856 200.002 21.001 199.656 21.2316C199.333 21.4391 199.171 21.7389 199.171 22.1309C199.171 22.4999 199.241 22.8804 199.379 23.2724H200.244C200.428 23.7567 200.52 24.3448 200.52 25.0366C200.52 25.7053 200.232 26.2934 199.656 26.8007C199.079 27.285 198.353 27.5271 197.476 27.5271C195.493 27.5271 194.502 26.5701 194.502 24.6561C194.502 21.8196 196.911 20.4014 201.731 20.4014C204.475 20.4014 206.366 20.8741 207.404 21.8196C208.465 22.742 208.995 24.4485 208.995 26.9391V33.9611C208.995 35.1602 209.33 35.7598 209.998 35.7598C210.782 35.7598 211.244 34.5722 211.382 32.1969L211.901 32.2315C211.809 34.2609 211.428 35.656 210.759 36.4171C210.091 37.1781 208.995 37.5586 207.473 37.5586C204.706 37.5586 203.115 36.7053 202.7 34.9988C202.4 35.8751 201.95 36.5208 201.351 36.9359C200.751 37.351 199.875 37.5586 198.722 37.5586C195.309 37.5586 193.602 36.1634 193.602 33.373C193.602 31.7357 194.248 30.6173 195.539 30.0177C196.854 29.3951 198.86 29.0837 201.558 29.0837ZM200.174 33.3384C200.174 34.5376 200.232 35.3101 200.347 35.656C200.486 36.002 200.728 36.1749 201.074 36.1749C201.443 36.1749 201.777 35.8867 202.077 35.3101C202.4 34.7106 202.561 33.8919 202.561 32.8542V29.6372H202.319C200.889 29.6372 200.174 30.6865 200.174 32.785V33.3384ZM219.263 30.0523C219.263 32.4737 219.39 34.0879 219.643 34.895C219.897 35.6791 220.358 36.0711 221.027 36.0711C221.719 36.0711 222.307 35.7714 222.791 35.1718C223.298 34.5722 223.552 33.6844 223.552 32.5083V24.9674C223.552 23.9758 223.356 23.1341 222.964 22.4422C222.572 21.7504 221.996 21.4045 221.235 21.4045C220.474 21.4045 219.955 21.9118 219.678 22.9265C219.401 23.9412 219.263 25.7169 219.263 28.2536V30.0523ZM224.002 37.2126L223.621 34.7913C222.837 36.6361 221.246 37.5586 218.848 37.5586C216.865 37.5586 215.319 36.8437 214.213 35.4139C213.129 33.9841 212.587 31.851 212.587 29.0146C212.587 23.2724 214.87 20.4014 219.436 20.4014C221.465 20.4014 222.803 20.9664 223.448 22.0963V11.892H221.338V11.2693H229.986V36.59H231.681V37.2126H224.002ZM231.555 21.3699V20.7473H241.898V21.3699H239.719L243.87 32.8542L247.605 21.3699H245.288V20.7473H249.958V21.3699H248.436L243.316 37.2126H239.373L232.973 21.3699H231.555ZM260.606 30.3982V27.458C260.606 25.2211 260.479 23.5953 260.225 22.5806C259.995 21.5429 259.441 21.024 258.565 21.024C258.058 21.024 257.643 21.1739 257.32 21.4737C257.02 21.7504 256.801 22.2232 256.663 22.8919C256.455 23.9297 256.351 25.5093 256.351 27.6309V30.329C256.351 32.8426 256.42 34.3531 256.559 34.8605C256.72 35.3678 256.882 35.7829 257.043 36.1057C257.297 36.6592 257.793 36.9359 258.53 36.9359C259.43 36.9359 260.018 36.4171 260.295 35.3793C260.502 34.6414 260.606 32.981 260.606 30.3982ZM258.461 37.5586C255.579 37.5586 253.399 36.8206 251.924 35.3447C250.448 33.8688 249.71 31.7588 249.71 29.0146C249.71 26.2473 250.494 24.1257 252.062 22.6498C253.653 21.1508 255.878 20.4014 258.738 20.4014C261.598 20.4014 263.731 21.0932 265.137 22.4768C266.544 23.8374 267.247 25.9244 267.247 28.7378C267.247 34.6183 264.319 37.5586 258.461 37.5586ZM277.9 21.024C276.886 21.024 276.159 21.5775 275.721 22.6844C275.283 23.7913 275.064 25.6246 275.064 28.1844V29.9831C275.064 32.2661 275.318 33.9034 275.825 34.895C276.332 35.8867 277.266 36.3825 278.627 36.3825C279.987 36.3825 281.071 35.9212 281.878 34.9988C282.686 34.0764 283.204 33.0271 283.435 31.851L284.058 31.9202C283.619 33.9034 282.812 35.3332 281.636 36.2095C280.437 37.1089 278.788 37.5586 276.69 37.5586C274.015 37.5586 271.962 36.8437 270.533 35.4139C269.103 33.9611 268.388 31.851 268.388 29.0837C268.388 26.2934 269.195 24.1487 270.809 22.6498C272.447 21.1508 274.718 20.4014 277.624 20.4014C279.676 20.4014 281.244 20.8049 282.328 21.6121C283.412 22.3961 283.954 23.3877 283.954 24.5869C283.954 25.7861 283.689 26.6624 283.158 27.2158C282.651 27.7693 281.936 28.046 281.014 28.046C280.114 28.046 279.388 27.8039 278.834 27.3196C278.281 26.8353 278.004 26.1204 278.004 25.1749C278.004 24.7599 278.062 24.3448 278.177 23.9297H279.319C279.48 23.4684 279.561 23.0534 279.561 22.6844C279.561 21.5775 279.007 21.024 277.9 21.024ZM293.238 29.0837H294.241V26.4202C294.241 24.2295 294.114 22.7651 293.861 22.0272C293.63 21.2661 293.169 20.8856 292.477 20.8856C292.062 20.8856 291.681 21.001 291.336 21.2316C291.013 21.4391 290.851 21.7389 290.851 22.1309C290.851 22.4999 290.92 22.8804 291.059 23.2724H291.924C292.108 23.7567 292.2 24.3448 292.2 25.0366C292.2 25.7053 291.912 26.2934 291.336 26.8007C290.759 27.285 290.033 27.5271 289.156 27.5271C287.173 27.5271 286.181 26.5701 286.181 24.6561C286.181 21.8196 288.591 20.4014 293.411 20.4014C296.155 20.4014 298.046 20.8741 299.084 21.8196C300.145 22.742 300.675 24.4485 300.675 26.9391V33.9611C300.675 35.1602 301.01 35.7598 301.678 35.7598C302.462 35.7598 302.924 34.5722 303.062 32.1969L303.581 32.2315C303.489 34.2609 303.108 35.656 302.439 36.4171C301.771 37.1781 300.675 37.5586 299.153 37.5586C296.386 37.5586 294.795 36.7053 294.38 34.9988C294.08 35.8751 293.63 36.5208 293.03 36.9359C292.431 37.351 291.555 37.5586 290.402 37.5586C286.989 37.5586 285.282 36.1634 285.282 33.373C285.282 31.7357 285.928 30.6173 287.219 30.0177C288.534 29.3951 290.54 29.0837 293.238 29.0837ZM291.854 33.3384C291.854 34.5376 291.912 35.3101 292.027 35.656C292.166 36.002 292.408 36.1749 292.754 36.1749C293.123 36.1749 293.457 35.8867 293.757 35.3101C294.08 34.7106 294.241 33.8919 294.241 32.8542V29.6372H293.999C292.569 29.6372 291.854 30.6865 291.854 32.785V33.3384ZM313.606 21.024C312.592 21.024 311.865 21.5775 311.427 22.6844C310.989 23.7913 310.77 25.6246 310.77 28.1844V29.9831C310.77 32.2661 311.023 33.9034 311.531 34.895C312.038 35.8867 312.972 36.3825 314.333 36.3825C315.693 36.3825 316.777 35.9212 317.584 34.9988C318.391 34.0764 318.91 33.0271 319.141 31.851L319.763 31.9202C319.325 33.9034 318.518 35.3332 317.342 36.2095C316.143 37.1089 314.494 37.5586 312.396 37.5586C309.721 37.5586 307.668 36.8437 306.238 35.4139C304.809 33.9611 304.094 31.851 304.094 29.0837C304.094 26.2934 304.901 24.1487 306.515 22.6498C308.152 21.1508 310.424 20.4014 313.33 20.4014C315.382 20.4014 316.95 20.8049 318.034 21.6121C319.118 22.3961 319.66 23.3877 319.66 24.5869C319.66 25.7861 319.394 26.6624 318.864 27.2158C318.357 27.7693 317.642 28.046 316.719 28.046C315.82 28.046 315.094 27.8039 314.54 27.3196C313.987 26.8353 313.71 26.1204 313.71 25.1749C313.71 24.7599 313.768 24.3448 313.883 23.9297H315.024C315.186 23.4684 315.267 23.0534 315.267 22.6844C315.267 21.5775 314.713 21.024 313.606 21.024ZM325.727 18.3605C324.505 18.3605 323.628 18.0492 323.098 17.4265C322.591 16.8039 322.337 16.0314 322.337 15.1089C322.337 14.1865 322.614 13.4255 323.167 12.8259C323.744 12.2263 324.608 11.9266 325.762 11.9266C326.915 11.9266 327.791 12.2033 328.39 12.7567C328.99 13.2871 329.29 14.0597 329.29 15.0743C329.29 16.066 329.002 16.8615 328.425 17.4611C327.849 18.0607 326.949 18.3605 325.727 18.3605ZM320.504 20.7473H328.978V36.59H330.916V37.2126H320.642V36.59H322.545V21.3699H320.504V20.7473ZM339.923 29.0837H340.926V26.4202C340.926 24.2295 340.799 22.7651 340.545 22.0272C340.315 21.2661 339.853 20.8856 339.162 20.8856C338.746 20.8856 338.366 21.001 338.02 21.2316C337.697 21.4391 337.536 21.7389 337.536 22.1309C337.536 22.4999 337.605 22.8804 337.743 23.2724H338.608C338.793 23.7567 338.885 24.3448 338.885 25.0366C338.885 25.7053 338.597 26.2934 338.02 26.8007C337.443 27.285 336.717 27.5271 335.841 27.5271C333.858 27.5271 332.866 26.5701 332.866 24.6561C332.866 21.8196 335.276 20.4014 340.095 20.4014C342.84 20.4014 344.731 20.8741 345.768 21.8196C346.829 22.742 347.36 24.4485 347.36 26.9391V33.9611C347.36 35.1602 347.694 35.7598 348.363 35.7598C349.147 35.7598 349.608 34.5722 349.746 32.1969L350.265 32.2315C350.173 34.2609 349.793 35.656 349.124 36.4171C348.455 37.1781 347.36 37.5586 345.838 37.5586C343.07 37.5586 341.479 36.7053 341.064 34.9988C340.764 35.8751 340.315 36.5208 339.715 36.9359C339.115 37.351 338.239 37.5586 337.086 37.5586C333.673 37.5586 331.967 36.1634 331.967 33.373C331.967 31.7357 332.612 30.6173 333.904 30.0177C335.218 29.3951 337.224 29.0837 339.923 29.0837ZM338.539 33.3384C338.539 34.5376 338.597 35.3101 338.712 35.656C338.85 36.002 339.092 36.1749 339.438 36.1749C339.807 36.1749 340.142 35.8867 340.441 35.3101C340.764 34.7106 340.926 33.8919 340.926 32.8542V29.6372H340.684C339.254 29.6372 338.539 30.6865 338.539 32.785V33.3384ZM354.791 37.5586C353.799 37.5586 353.05 37.2703 352.542 36.6938C352.058 36.0942 351.816 35.3793 351.816 34.5491C351.816 33.6959 352.07 32.981 352.577 32.4045C353.107 31.828 353.845 31.5397 354.791 31.5397C355.736 31.5397 356.486 31.7818 357.039 32.2661C357.593 32.7504 357.869 33.4768 357.869 34.4454C357.869 35.4139 357.604 36.1749 357.074 36.7284C356.566 37.2818 355.805 37.5586 354.791 37.5586ZM368.062 29.0837H369.065V26.4202C369.065 24.2295 368.938 22.7651 368.684 22.0272C368.454 21.2661 367.992 20.8856 367.301 20.8856C366.885 20.8856 366.505 21.001 366.159 21.2316C365.836 21.4391 365.675 21.7389 365.675 22.1309C365.675 22.4999 365.744 22.8804 365.882 23.2724H366.747C366.932 23.7567 367.024 24.3448 367.024 25.0366C367.024 25.7053 366.736 26.2934 366.159 26.8007C365.583 27.285 364.856 27.5271 363.98 27.5271C361.997 27.5271 361.005 26.5701 361.005 24.6561C361.005 21.8196 363.415 20.4014 368.235 20.4014C370.979 20.4014 372.87 20.8741 373.907 21.8196C374.968 22.742 375.499 24.4485 375.499 26.9391V33.9611C375.499 35.1602 375.833 35.7598 376.502 35.7598C377.286 35.7598 377.747 34.5722 377.885 32.1969L378.404 32.2315C378.312 34.2609 377.932 35.656 377.263 36.4171C376.594 37.1781 375.499 37.5586 373.977 37.5586C371.209 37.5586 369.618 36.7053 369.203 34.9988C368.903 35.8751 368.454 36.5208 367.854 36.9359C367.254 37.351 366.378 37.5586 365.225 37.5586C361.812 37.5586 360.106 36.1634 360.106 33.373C360.106 31.7357 360.751 30.6173 362.043 30.0177C363.357 29.3951 365.363 29.0837 368.062 29.0837ZM366.678 33.3384C366.678 34.5376 366.736 35.3101 366.851 35.656C366.989 36.002 367.231 36.1749 367.577 36.1749C367.946 36.1749 368.281 35.8867 368.58 35.3101C368.903 34.7106 369.065 33.8919 369.065 32.8542V29.6372H368.823C367.393 29.6372 366.678 30.6865 366.678 32.785V33.3384ZM385.766 30.0523C385.766 32.4737 385.893 34.0879 386.147 34.895C386.4 35.6791 386.862 36.0711 387.53 36.0711C388.222 36.0711 388.81 35.7714 389.295 35.1718C389.802 34.5722 390.056 33.6844 390.056 32.5083V24.9674C390.056 23.9758 389.86 23.1341 389.467 22.4422C389.075 21.7504 388.499 21.4045 387.738 21.4045C386.977 21.4045 386.458 21.9118 386.181 22.9265C385.905 23.9412 385.766 25.7169 385.766 28.2536V30.0523ZM390.505 37.2126L390.125 34.7913C389.341 36.6361 387.749 37.5586 385.351 37.5586C383.368 37.5586 381.823 36.8437 380.716 35.4139C379.632 33.9841 379.09 31.851 379.09 29.0146C379.09 23.2724 381.373 20.4014 385.939 20.4014C387.969 20.4014 389.306 20.9664 389.952 22.0963V11.892H387.842V11.2693H396.489V36.59H398.184V37.2126H390.505ZM398.059 21.3699V20.7473H408.401V21.3699H406.222L410.373 32.8542L414.109 21.3699H411.791V20.7473H416.461V21.3699H414.939L409.82 37.2126H405.876L399.477 21.3699H398.059ZM418.568 37.5586C417.576 37.5586 416.827 37.2703 416.32 36.6938C415.835 36.0942 415.593 35.3793 415.593 34.5491C415.593 33.6959 415.847 32.981 416.354 32.4045C416.885 31.828 417.623 31.5397 418.568 31.5397C419.514 31.5397 420.263 31.7818 420.817 32.2661C421.37 32.7504 421.647 33.4768 421.647 34.4454C421.647 35.4139 421.381 36.1749 420.851 36.7284C420.344 37.2818 419.583 37.5586 418.568 37.5586ZM436.163 27.9076C436.163 25.5324 436.047 23.9412 435.817 23.1341C435.586 22.3039 435.137 21.8888 434.468 21.8888C433.799 21.8888 433.199 22.3039 432.669 23.1341C432.139 23.9643 431.873 25.1058 431.873 26.5586V32.9925C431.873 33.9841 432.07 34.8259 432.462 35.5177C432.877 36.2095 433.453 36.5554 434.191 36.5554C434.952 36.5554 435.471 36.0481 435.748 35.0334C436.024 34.0187 436.163 32.2431 436.163 29.7064V27.9076ZM431.873 11.2693V23.3762C432.75 21.393 434.249 20.4014 436.37 20.4014C440.683 20.4014 442.839 23.2724 442.839 29.0146C442.839 31.9433 442.239 34.0994 441.04 35.4831C439.864 36.8667 438.088 37.5586 435.713 37.5586C434.514 37.5586 433.592 37.3741 432.946 37.0051C432.323 36.6361 431.897 36.025 431.666 35.1718L431.424 37.2126H423.537V36.59H425.44V11.892H423.537V11.2693H431.873ZM455.426 21.7158C454.573 21.7158 453.824 22.2693 453.178 23.3762C452.532 24.4831 452.209 25.7976 452.209 27.3196V36.59H454.665V37.2126H443.873V36.59H445.775V21.3699H443.873V20.7473H452.209V24.068C452.509 22.8919 453.086 21.9926 453.939 21.3699C454.792 20.7242 455.761 20.4014 456.844 20.4014C457.928 20.4014 458.805 20.7127 459.473 21.3353C460.165 21.9349 460.511 22.7997 460.511 23.9297C460.511 25.0366 460.257 25.8898 459.75 26.4894C459.243 27.089 458.459 27.3888 457.398 27.3888C456.36 27.3888 455.588 27.0429 455.08 26.351C454.596 25.6592 454.538 24.7022 454.907 23.48H456.153C456.729 22.3039 456.487 21.7158 455.426 21.7158Z" fill="#8CBF47"/>
<path d="M22.2 3.27002C10.14 3.27002 0.340027 13.0799 0.340027 25.1299C0.340027 37.1799 10.15 46.99 22.2 46.99C34.26 46.99 44.06 37.1799 44.06 25.1299C44.06 13.0799 34.26 3.27002 22.2 3.27002ZM40.98 23.6299H32.76C32.56 16.8099 30.97 11.0299 28.54 7.38989C35.36 9.82989 40.38 16.1199 40.98 23.6299ZM22.2 43.98C18.79 43.98 15.01 36.9299 14.66 26.6399H29.73C29.39 36.9399 25.61 43.98 22.2 43.98ZM14.66 23.6299C15 13.3399 18.78 6.29004 22.2 6.29004C25.61 6.29004 29.4 13.3399 29.74 23.6299H14.66ZM15.87 7.38989C13.44 11.0299 11.85 16.8099 11.65 23.6299H3.42999C4.01999 16.1199 9.02999 9.82989 15.87 7.38989ZM3.41998 26.6399H11.64C11.84 33.4599 13.43 39.2399 15.86 42.8799C9.02999 40.4399 4.01998 34.1599 3.41998 26.6399ZM28.53 42.8799C30.96 39.2399 32.55 33.4599 32.75 26.6399H40.97C40.38 34.1599 35.36 40.4399 28.53 42.8799Z" fill="white"/>
</svg>
