<svg width="240" height="44" viewBox="0 0 240 44" fill="none" xmlns="http://www.w3.org/2000/svg">
<path d="M45.1716 11.78L41.8716 12.2L41.8116 11.6L48.5916 10.67H51.0216V31.43H53.3616V32H42.0216V31.43H45.1716V11.78ZM57.9157 11.78L54.6157 12.2L54.5557 11.6L61.3357 10.67H63.7657V31.43H66.1057V32H54.7657V31.43H57.9157V11.78ZM89.7605 20.21C89.7605 24.09 88.9105 27.08 87.2105 29.18C85.5305 31.26 83.1905 32.3 80.1905 32.3C78.0905 32.3 76.4405 31.9 75.2405 31.1C74.0605 30.3 73.4705 29.26 73.4705 27.98C73.4705 27.18 73.7105 26.49 74.1905 25.91C74.6905 25.31 75.3405 25.01 76.1405 25.01C76.9605 25.01 77.6005 25.23 78.0605 25.67C78.5405 26.09 78.7805 26.6 78.7805 27.2C78.7805 27.78 78.7005 28.29 78.5405 28.73H77.6405C77.5005 29.03 77.4305 29.42 77.4305 29.9C77.4305 30.36 77.6405 30.78 78.0605 31.16C78.5005 31.52 79.1405 31.7 79.9805 31.7C81.3205 31.7 82.2905 30.97 82.8905 29.51C83.5105 28.05 83.8305 25.51 83.8505 21.89C82.8105 23.51 81.2305 24.32 79.1105 24.32C77.3105 24.32 75.8305 23.74 74.6705 22.58C73.5105 21.42 72.9305 19.83 72.9305 17.81C72.9305 15.41 73.7205 13.62 75.3005 12.44C76.9005 11.26 78.9405 10.67 81.4205 10.67C86.9805 10.67 89.7605 13.85 89.7605 20.21ZM80.8505 23.33C81.5305 23.33 82.1005 23.08 82.5605 22.58C83.0405 22.06 83.3605 21.46 83.5205 20.78C83.7005 20.08 83.7905 19.18 83.7905 18.08C83.7905 16.96 83.7805 16.19 83.7605 15.77C83.7605 15.33 83.7405 14.82 83.7005 14.24C83.6605 13.64 83.5905 13.21 83.4905 12.95C83.3905 12.67 83.2605 12.38 83.1005 12.08C82.8005 11.56 82.2505 11.3 81.4505 11.3C80.5505 11.3 79.8805 11.66 79.4405 12.38C79.1005 12.96 78.9005 13.96 78.8405 15.38C78.8205 15.88 78.8105 16.56 78.8105 17.42C78.8105 18.26 78.8105 18.91 78.8105 19.37C78.8305 19.83 78.8605 20.32 78.9005 20.84C78.9405 21.34 79.0005 21.72 79.0805 21.98C79.1805 22.24 79.3005 22.49 79.4405 22.73C79.7005 23.13 80.1705 23.33 80.8505 23.33ZM97.7768 32.3C96.6968 32.3 95.8468 32.01 95.2268 31.43C94.6068 30.83 94.2968 30.1 94.2968 29.24C94.2968 28.36 94.5868 27.4 95.1668 26.36C95.7668 25.3 97.0568 23.62 99.0368 21.32L103.987 15.59H96.3068C94.8868 15.59 93.9468 15.77 93.4868 16.13C93.0468 16.47 92.6968 17.3 92.4368 18.62H91.9568L92.2868 11H105.727V14.24L102.397 20.06C100.917 22.68 99.9668 24.56 99.5468 25.7C99.1468 26.82 98.9468 27.89 98.9468 28.91C98.9468 29.93 99.2468 30.87 99.8468 31.73L99.6368 32.09C99.0768 32.23 98.4568 32.3 97.7768 32.3ZM107.07 15.26C107.07 13.92 107.65 12.82 108.81 11.96C109.97 11.1 111.71 10.67 114.03 10.67C116.35 10.67 118.13 11.1 119.37 11.96C120.63 12.82 121.26 14.11 121.26 15.83C121.26 16.39 121.21 16.9 121.11 17.36C121.01 17.8 120.78 18.27 120.42 18.77C120.08 19.25 119.74 19.68 119.4 20.06C119.08 20.44 118.52 20.94 117.72 21.56C116.52 22.52 115.26 23.48 113.94 24.44C112.62 25.38 111.85 25.93 111.63 26.09L109.8 27.41H117C118.38 27.41 119.36 27.11 119.94 26.51C120.52 25.91 120.93 24.97 121.17 23.69H121.68L121.38 32H107.28V28.52L110.31 25.73C112.37 23.85 113.83 22.18 114.69 20.72C115.55 19.24 115.98 17.62 115.98 15.86C115.98 14.08 115.79 12.87 115.41 12.23C115.03 11.57 114.39 11.24 113.49 11.24C112.59 11.24 111.96 11.47 111.6 11.93C111.24 12.39 111.06 12.83 111.06 13.25C111.06 13.67 111.12 14.04 111.24 14.36H112.14C112.3 14.78 112.38 15.29 112.38 15.89C112.38 16.47 112.13 16.98 111.63 17.42C111.13 17.84 110.47 18.05 109.65 18.05C108.83 18.05 108.19 17.79 107.73 17.27C107.29 16.73 107.07 16.06 107.07 15.26ZM123.623 15.26C123.623 13.92 124.203 12.82 125.363 11.96C126.523 11.1 128.263 10.67 130.583 10.67C132.903 10.67 134.683 11.1 135.923 11.96C137.183 12.82 137.813 14.11 137.813 15.83C137.813 16.39 137.763 16.9 137.663 17.36C137.563 17.8 137.333 18.27 136.973 18.77C136.633 19.25 136.293 19.68 135.953 20.06C135.633 20.44 135.073 20.94 134.273 21.56C133.073 22.52 131.813 23.48 130.493 24.44C129.173 25.38 128.403 25.93 128.183 26.09L126.353 27.41H133.553C134.933 27.41 135.913 27.11 136.493 26.51C137.073 25.91 137.483 24.97 137.723 23.69H138.233L137.933 32H123.833V28.52L126.863 25.73C128.923 23.85 130.383 22.18 131.243 20.72C132.103 19.24 132.533 17.62 132.533 15.86C132.533 14.08 132.343 12.87 131.963 12.23C131.583 11.57 130.943 11.24 130.043 11.24C129.143 11.24 128.513 11.47 128.153 11.93C127.793 12.39 127.613 12.83 127.613 13.25C127.613 13.67 127.673 14.04 127.793 14.36H128.693C128.853 14.78 128.933 15.29 128.933 15.89C128.933 16.47 128.683 16.98 128.183 17.42C127.683 17.84 127.023 18.05 126.203 18.05C125.383 18.05 124.743 17.79 124.283 17.27C123.843 16.73 123.623 16.06 123.623 15.26ZM140.145 22.76C140.145 18.9 141.005 15.92 142.725 13.82C144.465 11.72 146.845 10.67 149.865 10.67C151.925 10.67 153.505 11.09 154.605 11.93C155.705 12.75 156.255 13.83 156.255 15.17C156.255 15.93 156.005 16.59 155.505 17.15C155.025 17.69 154.385 17.96 153.585 17.96C152.785 17.96 152.145 17.75 151.665 17.33C151.185 16.89 150.945 16.38 150.945 15.8C150.945 15.2 151.025 14.68 151.185 14.24H152.145C152.265 13.92 152.325 13.56 152.325 13.16C152.325 11.9 151.615 11.27 150.195 11.27C148.775 11.27 147.735 12.01 147.075 13.49C146.415 14.95 146.075 17.48 146.055 21.08C147.095 19.46 148.605 18.65 150.585 18.65C152.565 18.65 154.125 19.19 155.265 20.27C156.405 21.33 156.975 22.93 156.975 25.07C156.975 27.21 156.225 28.95 154.725 30.29C153.225 31.63 151.215 32.3 148.695 32.3C142.995 32.3 140.145 29.12 140.145 22.76ZM149.055 19.64C148.375 19.64 147.795 19.9 147.315 20.42C146.855 20.92 146.535 21.52 146.355 22.22C146.195 22.9 146.115 23.8 146.115 24.92C146.115 26.02 146.115 26.79 146.115 27.23C146.135 27.65 146.165 28.16 146.205 28.76C146.265 29.34 146.345 29.77 146.445 30.05C146.545 30.31 146.685 30.59 146.865 30.89C147.185 31.41 147.695 31.67 148.395 31.67C149.095 31.67 149.615 31.54 149.955 31.28C150.315 31 150.575 30.54 150.735 29.9C150.975 28.96 151.095 27.79 151.095 26.39C151.095 24.99 151.085 24.06 151.065 23.6C151.065 23.14 151.045 22.66 151.005 22.16C150.965 21.64 150.895 21.25 150.795 20.99C150.715 20.73 150.605 20.48 150.465 20.24C150.205 19.84 149.735 19.64 149.055 19.64ZM159.112 23.66V22.76H166.672V23.66H159.112ZM169.178 22.76C169.178 18.9 170.038 15.92 171.758 13.82C173.498 11.72 175.878 10.67 178.898 10.67C180.958 10.67 182.538 11.09 183.638 11.93C184.738 12.75 185.288 13.83 185.288 15.17C185.288 15.93 185.038 16.59 184.538 17.15C184.058 17.69 183.418 17.96 182.618 17.96C181.818 17.96 181.178 17.75 180.698 17.33C180.218 16.89 179.978 16.38 179.978 15.8C179.978 15.2 180.058 14.68 180.218 14.24H181.178C181.298 13.92 181.358 13.56 181.358 13.16C181.358 11.9 180.648 11.27 179.228 11.27C177.808 11.27 176.768 12.01 176.108 13.49C175.448 14.95 175.108 17.48 175.088 21.08C176.128 19.46 177.638 18.65 179.618 18.65C181.598 18.65 183.158 19.19 184.298 20.27C185.438 21.33 186.008 22.93 186.008 25.07C186.008 27.21 185.258 28.95 183.758 30.29C182.258 31.63 180.248 32.3 177.728 32.3C172.028 32.3 169.178 29.12 169.178 22.76ZM178.088 19.64C177.408 19.64 176.828 19.9 176.348 20.42C175.888 20.92 175.568 21.52 175.388 22.22C175.228 22.9 175.148 23.8 175.148 24.92C175.148 26.02 175.148 26.79 175.148 27.23C175.168 27.65 175.198 28.16 175.238 28.76C175.298 29.34 175.378 29.77 175.478 30.05C175.578 30.31 175.718 30.59 175.898 30.89C176.218 31.41 176.728 31.67 177.428 31.67C178.128 31.67 178.648 31.54 178.988 31.28C179.348 31 179.608 30.54 179.768 29.9C180.008 28.96 180.128 27.79 180.128 26.39C180.128 24.99 180.118 24.06 180.098 23.6C180.098 23.14 180.078 22.66 180.038 22.16C179.998 21.64 179.928 21.25 179.828 20.99C179.748 20.73 179.638 20.48 179.498 20.24C179.238 19.84 178.768 19.64 178.088 19.64ZM190.455 11.78L187.155 12.2L187.095 11.6L193.875 10.67H196.305V31.43H198.645V32H187.305V31.43H190.455V11.78ZM209.169 32.3C206.269 32.3 204.059 31.32 202.539 29.36C201.039 27.4 200.289 24.66 200.289 21.14C200.289 17.62 201.099 15 202.719 13.28C204.339 11.54 206.549 10.67 209.349 10.67C212.169 10.67 214.379 11.53 215.979 13.25C217.599 14.97 218.409 17.71 218.409 21.47C218.409 25.23 217.599 27.98 215.979 29.72C214.359 31.44 212.089 32.3 209.169 32.3ZM206.439 20.36V23.03C206.439 24.97 206.449 26.34 206.469 27.14C206.509 27.94 206.619 28.77 206.799 29.63C206.979 30.49 207.269 31.05 207.669 31.31C208.069 31.55 208.539 31.67 209.079 31.67C209.619 31.67 210.019 31.64 210.279 31.58C210.559 31.52 210.799 31.4 210.999 31.22C211.219 31.02 211.399 30.83 211.539 30.65C211.679 30.45 211.789 30.15 211.869 29.75C211.969 29.35 212.049 28.98 212.109 28.64C212.169 28.3 212.209 27.8 212.229 27.14C212.269 25.86 212.289 24.57 212.289 23.27V20.63C212.289 16.71 212.139 14.18 211.839 13.04C211.559 11.88 210.739 11.3 209.379 11.3C208.019 11.3 207.189 11.89 206.889 13.07C206.589 14.25 206.439 16.68 206.439 20.36ZM229.091 32.3C226.191 32.3 223.981 31.32 222.461 29.36C220.961 27.4 220.211 24.66 220.211 21.14C220.211 17.62 221.021 15 222.641 13.28C224.261 11.54 226.471 10.67 229.271 10.67C232.091 10.67 234.301 11.53 235.901 13.25C237.521 14.97 238.331 17.71 238.331 21.47C238.331 25.23 237.521 27.98 235.901 29.72C234.281 31.44 232.011 32.3 229.091 32.3ZM226.361 20.36V23.03C226.361 24.97 226.371 26.34 226.391 27.14C226.431 27.94 226.541 28.77 226.721 29.63C226.901 30.49 227.191 31.05 227.591 31.31C227.991 31.55 228.461 31.67 229.001 31.67C229.541 31.67 229.941 31.64 230.201 31.58C230.481 31.52 230.721 31.4 230.921 31.22C231.141 31.02 231.321 30.83 231.461 30.65C231.601 30.45 231.711 30.15 231.791 29.75C231.891 29.35 231.971 28.98 232.031 28.64C232.091 28.3 232.131 27.8 232.151 27.14C232.191 25.86 232.211 24.57 232.211 23.27V20.63C232.211 16.71 232.061 14.18 231.761 13.04C231.481 11.88 230.661 11.3 229.301 11.3C227.941 11.3 227.111 11.89 226.811 13.07C226.511 14.25 226.361 16.68 226.361 20.36Z" fill="#8CBF47"/>
<path d="M26.2163 43.2043C26.3834 43.2121 26.5429 43.2199 26.71 43.2199C28.4947 43.2199 29.9832 42.5539 31.1527 41.2453C31.1603 41.2375 31.1755 41.2218 31.1831 41.214C31.6008 40.6968 32.0717 40.2267 32.5729 39.733C32.9147 39.3961 33.264 39.0513 33.5906 38.6909C35.1474 37.0141 35.1398 34.8906 33.5754 33.2764L29.2465 28.81C28.5023 28.0108 27.6137 27.5877 26.672 27.5877C25.7379 27.5877 24.8417 28.003 24.0747 28.7944L21.5154 31.435C21.2875 31.3018 21.0521 31.1843 20.8243 31.0667C20.5357 30.9179 20.2699 30.7768 20.0344 30.6279C17.6877 29.0921 15.5613 27.0862 13.526 24.5082C12.5007 23.1762 11.8248 22.0635 11.3464 20.9195C12.0147 20.2926 12.6374 19.6422 13.2374 19.0075C13.4576 18.7803 13.6779 18.5452 13.9057 18.3102C15.5309 16.6333 15.5309 14.5569 13.9057 12.8878L11.7565 10.6703C11.5058 10.4118 11.2628 10.1532 11.0198 9.90243C10.5413 9.40094 10.0477 8.87595 9.55407 8.4058C8.80981 7.6379 7.92885 7.23828 6.99473 7.23828C6.06821 7.23828 5.17206 7.6379 4.39742 8.4058L1.70139 11.1797C0.714108 12.1983 0.152117 13.4363 0.0306055 14.8703C-0.106095 16.6568 0.212873 18.5531 1.03308 20.8411C2.30135 24.375 4.20756 27.6582 7.0327 31.1686C10.473 35.3999 14.6044 38.7457 19.3281 41.1043C21.128 41.9897 23.5355 43.0241 26.2163 43.2043ZM8.46806 29.9384C5.77962 26.6004 3.97973 23.4974 2.7874 20.1751C2.05073 18.1299 1.77733 16.5393 1.89125 15.027C1.97479 14.0475 2.33932 13.2326 3.02283 12.5352L5.70367 9.76922C6.11377 9.36176 6.56185 9.1502 7.00233 9.1502C7.43521 9.1502 7.8605 9.36176 8.2706 9.77706C8.74905 10.2394 9.21232 10.7252 9.69836 11.2345C9.94139 11.4931 10.192 11.7595 10.4502 12.0181L12.5994 14.2356C13.4804 15.1445 13.4804 16.0378 12.5994 16.9468C12.3716 17.1818 12.1438 17.4169 11.9235 17.652C11.2552 18.3493 10.6325 19.0075 9.94139 19.6422C9.9262 19.6579 9.9186 19.6657 9.90341 19.6814C9.28826 20.3161 9.3794 20.9273 9.53128 21.3818C9.53888 21.4053 9.54647 21.421 9.55407 21.4445C10.1085 22.8235 10.8907 24.1321 12.0906 25.6993C14.255 28.4496 16.5334 30.5888 19.0547 32.2421C19.3661 32.4458 19.6927 32.6182 20.0116 32.7828C20.3002 32.9316 20.566 33.0727 20.8015 33.2216C20.8319 33.2372 20.8546 33.2529 20.885 33.2686C21.128 33.3939 21.3635 33.4566 21.6065 33.4566C22.2065 33.4566 22.5862 33.0648 22.7077 32.9316L25.4037 30.15C25.8138 29.7268 26.2543 29.5074 26.6872 29.5074C27.2188 29.5074 27.6517 29.8522 27.9327 30.15L32.2767 34.632C33.3399 35.729 32.8539 36.7163 32.2539 37.3667C31.9502 37.7036 31.6312 38.017 31.297 38.354C30.7882 38.8554 30.2642 39.3804 29.7857 39.9681C28.9655 40.8771 27.9934 41.3002 26.7252 41.3002C26.6036 41.3002 26.4745 41.2924 26.353 41.2845C23.9912 41.1278 21.8039 40.1797 20.1559 39.3726C15.66 37.1394 11.7337 33.966 8.46806 29.9384Z" fill="#1F3768"/>
<path d="M20.3382 11.9947C19.8294 11.9085 19.3509 12.2611 19.2674 12.7782C19.1838 13.3032 19.5256 13.7969 20.0268 13.8831C22.1153 14.2514 24.0139 15.27 25.5328 16.8293C27.0441 18.3886 28.0314 20.3554 28.3883 22.5102C28.4643 22.9804 28.8592 23.3095 29.3073 23.3095C29.3604 23.3095 29.4136 23.3016 29.4668 23.2938C29.9756 23.2076 30.3173 22.7061 30.2262 22.1889C29.8085 19.6423 28.639 17.3151 26.8543 15.4737C25.0544 13.6245 22.8064 12.4256 20.3382 11.9947Z" fill="#1F3768"/>
<path d="M36.0664 22.9803C36.1195 22.9803 36.1727 22.9725 36.2258 22.9646C36.7347 22.8784 37.0764 22.377 36.9853 21.8598C36.2942 17.6442 34.3652 13.8125 31.4109 10.7644C28.4491 7.7163 24.7354 5.72602 20.6496 5.01297C20.1408 4.92678 19.6623 5.27939 19.5788 5.79654C19.4952 6.32154 19.837 6.81519 20.3382 6.90138C24.0367 7.55175 27.4087 9.35397 30.0895 12.12C32.7704 14.886 34.5171 18.3651 35.1474 22.1811C35.2234 22.6512 35.6183 22.9803 36.0664 22.9803Z" fill="#1F3768"/>
</svg>
