<svg width="271" height="47" viewBox="0 0 271 47" fill="none" xmlns="http://www.w3.org/2000/svg">
<path d="M45.7547 13.6856L41.9497 14.1699L41.8805 13.4781L49.6981 12.4057H52.4999V36.3428H55.198V37H42.1226V36.3428H45.7547V13.6856ZM60.4491 13.6856L56.6441 14.1699L56.5749 13.4781L64.3925 12.4057H67.1944V36.3428H69.8925V37H56.8171V36.3428H60.4491V13.6856ZM97.1673 23.4057C97.1673 27.8795 96.1872 31.3271 94.2271 33.7484C92.29 36.1468 89.5919 37.3459 86.1328 37.3459C83.7114 37.3459 81.8089 36.8847 80.4252 35.9623C79.0646 35.0398 78.3843 33.8407 78.3843 32.3648C78.3843 31.4424 78.6611 30.6468 79.2145 29.978C79.7911 29.2862 80.5405 28.9403 81.463 28.9403C82.4084 28.9403 83.1464 29.1939 83.6768 29.7013C84.2302 30.1856 84.507 30.7736 84.507 31.4654C84.507 32.1342 84.4147 32.7222 84.2302 33.2296H83.1925C83.0311 33.5755 82.9504 34.0252 82.9504 34.5786C82.9504 35.109 83.1925 35.5933 83.6768 36.0314C84.1841 36.4465 84.9221 36.6541 85.8906 36.6541C87.4357 36.6541 88.5541 35.8124 89.246 34.1289C89.9608 32.4455 90.3298 29.5168 90.3529 25.3428C89.1537 27.2107 87.3319 28.1447 84.8875 28.1447C82.812 28.1447 81.1055 27.4759 79.768 26.1384C78.4305 24.8009 77.7617 22.9675 77.7617 20.6384C77.7617 17.8711 78.6726 15.8072 80.4944 14.4466C82.3393 13.086 84.6915 12.4057 87.551 12.4057C93.9619 12.4057 97.1673 16.0724 97.1673 23.4057ZM86.8938 27.0032C87.6778 27.0032 88.3351 26.7149 88.8655 26.1384C89.4189 25.5388 89.7879 24.847 89.9724 24.0629C90.1799 23.2558 90.2837 22.2181 90.2837 20.9497C90.2837 19.6583 90.2722 18.7705 90.2491 18.2862C90.2491 17.7789 90.226 17.1908 90.1799 16.5221C90.1338 15.8302 90.0531 15.3344 89.9378 15.0347C89.8225 14.7118 89.6726 14.3774 89.4881 14.0315C89.1422 13.4319 88.508 13.1321 87.5856 13.1321C86.5478 13.1321 85.7753 13.5472 85.268 14.3774C84.8759 15.0462 84.6453 16.1992 84.5762 17.8365C84.5531 18.413 84.5416 19.1971 84.5416 20.1887C84.5416 21.1573 84.5416 21.9067 84.5416 22.4371C84.5646 22.9675 84.5992 23.5325 84.6453 24.1321C84.6915 24.7086 84.7606 25.1468 84.8529 25.4466C84.9682 25.7464 85.1066 26.0346 85.268 26.3113C85.5678 26.7726 86.1097 27.0032 86.8938 27.0032ZM106.41 37.3459C105.165 37.3459 104.185 37.0115 103.47 36.3428C102.755 35.6509 102.398 34.8092 102.398 33.8176C102.398 32.8029 102.732 31.696 103.401 30.4969C104.093 29.2747 105.58 27.3376 107.863 24.6856L113.571 18.0787H104.715C103.078 18.0787 101.994 18.2862 101.464 18.7013C100.957 19.0933 100.553 20.0504 100.253 21.5724H99.6998L100.08 12.7862H115.577V16.5221L111.737 23.2327C110.031 26.2537 108.936 28.4214 108.451 29.7359C107.99 31.0273 107.759 32.261 107.759 33.4371C107.759 34.6132 108.105 35.6971 108.797 36.6887L108.555 37.1038C107.909 37.2652 107.194 37.3459 106.41 37.3459ZM117.126 17.6982C117.126 16.1531 117.794 14.8848 119.132 13.8931C120.469 12.9015 122.476 12.4057 125.151 12.4057C127.826 12.4057 129.878 12.9015 131.308 13.8931C132.761 14.8848 133.487 16.3722 133.487 18.3554C133.487 19.0011 133.43 19.5891 133.314 20.1195C133.199 20.6269 132.934 21.1688 132.519 21.7453C132.127 22.2988 131.735 22.7946 131.343 23.2327C130.974 23.6709 130.328 24.2474 129.405 24.9623C128.022 26.0692 126.569 27.1761 125.047 28.283C123.525 29.3669 122.637 30.0011 122.383 30.1856L120.273 31.7076H128.575C130.166 31.7076 131.296 31.3617 131.965 30.6698C132.634 29.978 133.107 28.8942 133.383 27.4183H133.971L133.626 37H117.368V32.9874L120.861 29.7705C123.237 27.6028 124.92 25.6772 125.912 23.9937C126.903 22.2873 127.399 20.4193 127.399 18.39C127.399 16.3376 127.18 14.9424 126.742 14.2045C126.304 13.4435 125.566 13.063 124.528 13.063C123.49 13.063 122.764 13.3282 122.349 13.8586C121.934 14.389 121.726 14.8963 121.726 15.3806C121.726 15.8648 121.795 16.2915 121.934 16.6604H122.971C123.156 17.1447 123.248 17.7328 123.248 18.4246C123.248 19.0933 122.96 19.6814 122.383 20.1887C121.807 20.673 121.046 20.9151 120.1 20.9151C119.155 20.9151 118.417 20.6153 117.887 20.0158C117.379 19.3931 117.126 18.6206 117.126 17.6982ZM136.211 17.6982C136.211 16.1531 136.88 14.8848 138.218 13.8931C139.555 12.9015 141.562 12.4057 144.237 12.4057C146.912 12.4057 148.964 12.9015 150.394 13.8931C151.847 14.8848 152.573 16.3722 152.573 18.3554C152.573 19.0011 152.515 19.5891 152.4 20.1195C152.285 20.6269 152.02 21.1688 151.605 21.7453C151.212 22.2988 150.82 22.7946 150.428 23.2327C150.059 23.6709 149.414 24.2474 148.491 24.9623C147.108 26.0692 145.655 27.1761 144.133 28.283C142.611 29.3669 141.723 30.0011 141.469 30.1856L139.359 31.7076H147.661C149.252 31.7076 150.382 31.3617 151.051 30.6698C151.72 29.978 152.193 28.8942 152.469 27.4183H153.057L152.711 37H136.454V32.9874L139.947 29.7705C142.323 27.6028 144.006 25.6772 144.998 23.9937C145.989 22.2873 146.485 20.4193 146.485 18.39C146.485 16.3376 146.266 14.9424 145.828 14.2045C145.39 13.4435 144.652 13.063 143.614 13.063C142.576 13.063 141.85 13.3282 141.435 13.8586C141.02 14.389 140.812 14.8963 140.812 15.3806C140.812 15.8648 140.881 16.2915 141.02 16.6604H142.057C142.242 17.1447 142.334 17.7328 142.334 18.4246C142.334 19.0933 142.046 19.6814 141.469 20.1887C140.893 20.673 140.132 20.9151 139.186 20.9151C138.241 20.9151 137.503 20.6153 136.972 20.0158C136.465 19.3931 136.211 18.6206 136.211 17.6982ZM155.263 26.3459C155.263 21.8952 156.254 18.4592 158.238 16.0378C160.244 13.6164 162.988 12.4057 166.47 12.4057C168.846 12.4057 170.667 12.89 171.936 13.8586C173.204 14.804 173.838 16.0493 173.838 17.5944C173.838 18.4707 173.55 19.2317 172.973 19.8774C172.42 20.5 171.682 20.8114 170.76 20.8114C169.837 20.8114 169.099 20.5692 168.546 20.085C167.992 19.5776 167.716 18.9896 167.716 18.3208C167.716 17.629 167.808 17.0294 167.992 16.5221H169.099C169.238 16.1531 169.307 15.738 169.307 15.2768C169.307 13.824 168.488 13.0975 166.851 13.0975C165.213 13.0975 164.014 13.9508 163.253 15.6573C162.492 17.3407 162.1 20.2579 162.077 24.4088C163.276 22.5409 165.017 21.607 167.3 21.607C169.584 21.607 171.382 22.2296 172.697 23.4749C174.011 24.6971 174.668 26.542 174.668 29.0095C174.668 31.477 173.804 33.4832 172.074 35.0283C170.345 36.5734 168.027 37.3459 165.121 37.3459C158.549 37.3459 155.263 33.6793 155.263 26.3459ZM165.536 22.7485C164.752 22.7485 164.084 23.0483 163.53 23.6478C163 24.2244 162.631 24.9162 162.423 25.7233C162.239 26.5074 162.146 27.5451 162.146 28.8365C162.146 30.1048 162.146 30.9927 162.146 31.5C162.169 31.9843 162.204 32.5723 162.25 33.2642C162.319 33.9329 162.412 34.4287 162.527 34.7516C162.642 35.0514 162.804 35.3742 163.011 35.7201C163.38 36.3197 163.968 36.6195 164.775 36.6195C165.582 36.6195 166.182 36.4696 166.574 36.1698C166.989 35.847 167.289 35.3166 167.473 34.5786C167.75 33.4948 167.889 32.1457 167.889 30.5315C167.889 28.9172 167.877 27.8449 167.854 27.3145C167.854 26.7841 167.831 26.2306 167.785 25.6541C167.739 25.0545 167.658 24.6049 167.543 24.3051C167.45 24.0053 167.324 23.717 167.162 23.4403C166.862 22.9791 166.32 22.7485 165.536 22.7485ZM177.132 27.3837V26.3459H185.849V27.3837H177.132ZM188.739 26.3459C188.739 21.8952 189.731 18.4592 191.714 16.0378C193.72 13.6164 196.464 12.4057 199.947 12.4057C202.322 12.4057 204.144 12.89 205.412 13.8586C206.68 14.804 207.315 16.0493 207.315 17.5944C207.315 18.4707 207.026 19.2317 206.45 19.8774C205.896 20.5 205.158 20.8114 204.236 20.8114C203.314 20.8114 202.576 20.5692 202.022 20.085C201.469 19.5776 201.192 18.9896 201.192 18.3208C201.192 17.629 201.284 17.0294 201.469 16.5221H202.576C202.714 16.1531 202.783 15.738 202.783 15.2768C202.783 13.824 201.964 13.0975 200.327 13.0975C198.69 13.0975 197.491 13.9508 196.73 15.6573C195.969 17.3407 195.577 20.2579 195.554 24.4088C196.753 22.5409 198.494 21.607 200.777 21.607C203.06 21.607 204.859 22.2296 206.173 23.4749C207.488 24.6971 208.145 26.542 208.145 29.0095C208.145 31.477 207.28 33.4832 205.55 35.0283C203.821 36.5734 201.503 37.3459 198.598 37.3459C192.025 37.3459 188.739 33.6793 188.739 26.3459ZM199.013 22.7485C198.229 22.7485 197.56 23.0483 197.006 23.6478C196.476 24.2244 196.107 24.9162 195.899 25.7233C195.715 26.5074 195.623 27.5451 195.623 28.8365C195.623 30.1048 195.623 30.9927 195.623 31.5C195.646 31.9843 195.68 32.5723 195.727 33.2642C195.796 33.9329 195.888 34.4287 196.003 34.7516C196.119 35.0514 196.28 35.3742 196.488 35.7201C196.857 36.3197 197.445 36.6195 198.252 36.6195C199.059 36.6195 199.658 36.4696 200.05 36.1698C200.466 35.847 200.765 35.3166 200.95 34.5786C201.227 33.4948 201.365 32.1457 201.365 30.5315C201.365 28.9172 201.353 27.8449 201.33 27.3145C201.33 26.7841 201.307 26.2306 201.261 25.6541C201.215 25.0545 201.134 24.6049 201.019 24.3051C200.927 24.0053 200.8 23.717 200.638 23.4403C200.339 22.9791 199.797 22.7485 199.013 22.7485ZM213.272 13.6856L209.466 14.1699L209.397 13.4781L217.215 12.4057H220.017V36.3428H222.715V37H209.639V36.3428H213.272V13.6856ZM234.85 37.3459C231.506 37.3459 228.958 36.2159 227.205 33.956C225.475 31.696 224.611 28.5367 224.611 24.478C224.611 20.4193 225.545 17.3984 227.413 15.4152C229.28 13.4089 231.829 12.4057 235.057 12.4057C238.309 12.4057 240.857 13.3973 242.702 15.3806C244.57 17.3638 245.504 20.5231 245.504 24.8585C245.504 29.1939 244.57 32.3648 242.702 34.3711C240.834 36.3543 238.216 37.3459 234.85 37.3459ZM231.702 23.5787V26.6573C231.702 28.8942 231.713 30.4738 231.736 31.3962C231.783 32.3187 231.909 33.2757 232.117 34.2673C232.324 35.2589 232.659 35.9046 233.12 36.2044C233.581 36.4811 234.123 36.6195 234.746 36.6195C235.368 36.6195 235.83 36.5849 236.129 36.5157C236.452 36.4465 236.729 36.3082 236.96 36.1006C237.213 35.87 237.421 35.6509 237.582 35.4434C237.744 35.2128 237.871 34.8669 237.963 34.4057C238.078 33.9445 238.17 33.5178 238.24 33.1258C238.309 32.7338 238.355 32.1572 238.378 31.3962C238.424 29.9204 238.447 28.4329 238.447 26.934V23.89C238.447 19.3701 238.274 16.4529 237.928 15.1384C237.605 13.8009 236.66 13.1321 235.092 13.1321C233.524 13.1321 232.567 13.8124 232.221 15.173C231.875 16.5336 231.702 19.3355 231.702 23.5787ZM257.82 37.3459C254.476 37.3459 251.928 36.2159 250.176 33.956C248.446 31.696 247.581 28.5367 247.581 24.478C247.581 20.4193 248.515 17.3984 250.383 15.4152C252.251 13.4089 254.799 12.4057 258.028 12.4057C261.279 12.4057 263.828 13.3973 265.672 15.3806C267.54 17.3638 268.474 20.5231 268.474 24.8585C268.474 29.1939 267.54 32.3648 265.672 34.3711C263.805 36.3543 261.187 37.3459 257.82 37.3459ZM254.672 23.5787V26.6573C254.672 28.8942 254.684 30.4738 254.707 31.3962C254.753 32.3187 254.88 33.2757 255.088 34.2673C255.295 35.2589 255.629 35.9046 256.091 36.2044C256.552 36.4811 257.094 36.6195 257.716 36.6195C258.339 36.6195 258.8 36.5849 259.1 36.5157C259.423 36.4465 259.7 36.3082 259.93 36.1006C260.184 35.87 260.392 35.6509 260.553 35.4434C260.714 35.2128 260.841 34.8669 260.933 34.4057C261.049 33.9445 261.141 33.5178 261.21 33.1258C261.279 32.7338 261.325 32.1572 261.349 31.3962C261.395 29.9204 261.418 28.4329 261.418 26.934V23.89C261.418 19.3701 261.245 16.4529 260.899 15.1384C260.576 13.8009 259.631 13.1321 258.062 13.1321C256.494 13.1321 255.537 13.8124 255.191 15.173C254.845 16.5336 254.672 19.3355 254.672 23.5787Z" fill="#8CBF47"/>
<path d="M26.2163 43.2043C26.3834 43.2121 26.5429 43.2199 26.71 43.2199C28.4947 43.2199 29.9832 42.5539 31.1527 41.2453C31.1603 41.2375 31.1755 41.2218 31.1831 41.214C31.6008 40.6968 32.0717 40.2267 32.5729 39.733C32.9147 39.3961 33.264 39.0513 33.5906 38.6909C35.1474 37.0141 35.1398 34.8906 33.5754 33.2764L29.2465 28.81C28.5023 28.0108 27.6137 27.5877 26.672 27.5877C25.7379 27.5877 24.8417 28.003 24.0747 28.7944L21.5154 31.435C21.2875 31.3018 21.0521 31.1843 20.8243 31.0667C20.5357 30.9179 20.2699 30.7768 20.0344 30.6279C17.6877 29.0921 15.5613 27.0862 13.526 24.5082C12.5007 23.1762 11.8248 22.0635 11.3464 20.9195C12.0147 20.2926 12.6374 19.6422 13.2374 19.0075C13.4576 18.7803 13.6779 18.5452 13.9057 18.3102C15.5309 16.6333 15.5309 14.5569 13.9057 12.8878L11.7565 10.6703C11.5058 10.4118 11.2628 10.1532 11.0198 9.90243C10.5413 9.40094 10.0477 8.87595 9.55407 8.4058C8.80981 7.6379 7.92885 7.23828 6.99473 7.23828C6.06821 7.23828 5.17206 7.6379 4.39742 8.4058L1.70139 11.1797C0.714108 12.1983 0.152117 13.4363 0.0306055 14.8703C-0.106095 16.6568 0.212873 18.5531 1.03308 20.8411C2.30135 24.375 4.20756 27.6582 7.0327 31.1686C10.473 35.3999 14.6044 38.7457 19.3281 41.1043C21.128 41.9897 23.5355 43.0241 26.2163 43.2043ZM8.46806 29.9384C5.77962 26.6004 3.97973 23.4974 2.7874 20.1751C2.05073 18.1299 1.77733 16.5393 1.89125 15.027C1.97479 14.0475 2.33932 13.2326 3.02283 12.5352L5.70367 9.76922C6.11377 9.36176 6.56185 9.1502 7.00233 9.1502C7.43521 9.1502 7.8605 9.36176 8.2706 9.77706C8.74905 10.2394 9.21232 10.7252 9.69836 11.2345C9.94139 11.4931 10.192 11.7595 10.4502 12.0181L12.5994 14.2356C13.4804 15.1445 13.4804 16.0378 12.5994 16.9468C12.3716 17.1818 12.1438 17.4169 11.9235 17.652C11.2552 18.3493 10.6325 19.0075 9.94139 19.6422C9.9262 19.6579 9.9186 19.6657 9.90341 19.6814C9.28826 20.3161 9.3794 20.9273 9.53128 21.3818C9.53888 21.4053 9.54647 21.421 9.55407 21.4445C10.1085 22.8235 10.8907 24.1321 12.0906 25.6993C14.255 28.4496 16.5334 30.5888 19.0547 32.2421C19.3661 32.4458 19.6927 32.6182 20.0116 32.7828C20.3002 32.9316 20.566 33.0727 20.8015 33.2216C20.8319 33.2372 20.8546 33.2529 20.885 33.2686C21.128 33.3939 21.3635 33.4566 21.6065 33.4566C22.2065 33.4566 22.5862 33.0648 22.7077 32.9316L25.4037 30.15C25.8138 29.7268 26.2543 29.5074 26.6872 29.5074C27.2188 29.5074 27.6517 29.8522 27.9327 30.15L32.2767 34.632C33.3399 35.729 32.8539 36.7163 32.2539 37.3667C31.9502 37.7036 31.6312 38.017 31.297 38.354C30.7882 38.8554 30.2642 39.3804 29.7857 39.9681C28.9655 40.8771 27.9934 41.3002 26.7252 41.3002C26.6036 41.3002 26.4745 41.2924 26.353 41.2845C23.9912 41.1278 21.8039 40.1797 20.1559 39.3726C15.66 37.1394 11.7337 33.966 8.46806 29.9384Z" fill="#1F3768"/>
<path d="M20.3382 11.9947C19.8294 11.9085 19.3509 12.2611 19.2674 12.7782C19.1838 13.3032 19.5256 13.7969 20.0268 13.8831C22.1153 14.2514 24.0139 15.27 25.5328 16.8293C27.0441 18.3886 28.0314 20.3554 28.3883 22.5102C28.4643 22.9804 28.8592 23.3095 29.3073 23.3095C29.3604 23.3095 29.4136 23.3016 29.4668 23.2938C29.9756 23.2076 30.3173 22.7061 30.2262 22.1889C29.8085 19.6423 28.639 17.3151 26.8543 15.4737C25.0544 13.6245 22.8064 12.4256 20.3382 11.9947Z" fill="#1F3768"/>
<path d="M36.0664 22.9803C36.1195 22.9803 36.1727 22.9725 36.2258 22.9646C36.7347 22.8784 37.0764 22.377 36.9853 21.8598C36.2942 17.6442 34.3652 13.8125 31.4109 10.7644C28.4491 7.7163 24.7354 5.72602 20.6496 5.01297C20.1408 4.92678 19.6623 5.27939 19.5788 5.79654C19.4952 6.32154 19.837 6.81519 20.3382 6.90138C24.0367 7.55175 27.4087 9.35397 30.0895 12.12C32.7704 14.886 34.5171 18.3651 35.1474 22.1811C35.2234 22.6512 35.6183 22.9803 36.0664 22.9803Z" fill="#1F3768"/>
</svg>
