<svg width="768" height="87" viewBox="0 0 768 87" fill="none" xmlns="http://www.w3.org/2000/svg">
<g filter="url(#filter0_d)">
<path d="M763.5 0.469971H607.38V78.83H763.5V0.469971Z" fill="#8CBF47"/>
</g>
<path d="M603.78 2.93997V76.36H4.1V2.93997H603.78V2.93997ZM607.38 0.469971H0.5V78.83H607.38V0.469971Z" fill="#8CBF47"/>
<path d="M46.6861 28.9502H57.4957V29.7194H55.269V56.5208H57.4957V57.29H45.1476V56.5208H47.3743V31.2174H47.2124L41.1395 57.29H36.0789L28.9534 31.0959H28.7915V56.5208H31.0182V57.29H25.5121V56.5208H27.7388V29.7194H25.5121V28.9502H36.4432L41.8278 49.8002L46.6861 28.9502ZM69.554 57.6949C66.0723 57.6949 63.4542 56.8042 61.6999 55.0229C59.9725 53.2145 59.1088 50.7179 59.1088 47.533C59.1088 44.3212 60.0804 41.8651 62.0237 40.1647C63.994 38.4643 66.4906 37.6141 69.5136 37.6141C75.6404 37.6141 78.5823 40.691 78.3394 46.8448H66.9225V48.4237C66.9225 51.0688 67.2599 53.0661 67.9346 54.4156C68.6094 55.7651 69.7835 56.4398 71.4569 56.4398C74.5877 56.4398 76.639 54.7664 77.6107 51.4196L78.3394 51.5411C77.8266 53.4844 76.8954 54.9959 75.5459 56.0755C74.2234 57.1551 72.2261 57.6949 69.554 57.6949ZM66.963 46.0351H71.133V44.0513C71.133 41.8651 70.998 40.3806 70.7281 39.5979C70.4852 38.7882 69.9724 38.3833 69.1897 38.3833C68.4339 38.3833 67.8671 38.8152 67.4893 39.6788C67.1384 40.5155 66.963 41.973 66.963 44.0513V46.0351ZM98.3924 38.3428C97.2048 38.3428 96.3546 38.9906 95.8418 40.2861C95.329 41.5817 95.0726 43.7274 95.0726 46.7233V48.8286C95.0726 51.5006 95.3694 53.4169 95.9632 54.5775C96.557 55.7381 97.6501 56.3184 99.2426 56.3184C100.835 56.3184 102.104 55.7786 103.048 54.699C103.993 53.6194 104.6 52.3913 104.87 51.0148L105.599 51.0958C105.086 53.4169 104.141 55.0903 102.765 56.116C101.361 57.1686 99.4315 57.6949 96.9754 57.6949C93.8445 57.6949 91.4424 56.8582 89.769 55.1848C88.0956 53.4844 87.2589 51.0148 87.2589 47.7759C87.2589 44.5101 88.2035 42 90.0928 40.2456C92.0092 38.4913 94.6677 37.6141 98.0685 37.6141C100.471 37.6141 102.306 38.0864 103.575 39.0311C104.843 39.9487 105.477 41.1093 105.477 42.5128C105.477 43.9163 105.167 44.942 104.546 45.5897C103.952 46.2375 103.116 46.5614 102.036 46.5614C100.983 46.5614 100.133 46.278 99.4855 45.7112C98.8377 45.1444 98.5138 44.3077 98.5138 43.2011C98.5138 42.7153 98.5813 42.2294 98.7162 41.7436H100.052C100.241 41.2038 100.336 40.718 100.336 40.2861C100.336 38.9906 99.6879 38.3428 98.3924 38.3428ZM106.232 26.9259H115.989V41.7436C116.421 40.5021 117.082 39.5034 117.972 38.7477C118.863 37.9919 120.213 37.6141 122.021 37.6141C126.205 37.6141 128.296 39.8678 128.296 44.3752V56.5613H130.563V57.29H119.106V56.5613H120.766V43.4035C120.766 41.7841 120.658 40.745 120.442 40.2861C120.226 39.8003 119.835 39.5574 119.268 39.5574C118.404 39.5574 117.635 40.1242 116.96 41.2578C116.313 42.3914 115.989 43.7679 115.989 45.3873V56.5613H117.73V57.29H106.232V56.5613H108.458V27.6547H106.232V26.9259ZM140.896 47.7759H142.07V44.6586C142.07 42.0945 141.921 40.3806 141.625 39.5169C141.355 38.6262 140.815 38.1809 140.005 38.1809C139.519 38.1809 139.074 38.3158 138.669 38.5857C138.291 38.8287 138.102 39.1795 138.102 39.6384C138.102 40.0702 138.183 40.5155 138.345 40.9744H139.357C139.573 41.5412 139.681 42.2294 139.681 43.0391C139.681 43.8219 139.344 44.5101 138.669 45.1039C137.994 45.6707 137.144 45.9541 136.119 45.9541C133.797 45.9541 132.637 44.834 132.637 42.5938C132.637 39.274 135.457 37.6141 141.098 37.6141C144.31 37.6141 146.523 38.1674 147.738 39.274C148.979 40.3536 149.6 42.3509 149.6 45.2658V53.4844C149.6 54.8879 149.992 55.5896 150.774 55.5896C151.692 55.5896 152.232 54.1996 152.394 51.4196L153.001 51.4601C152.893 53.8353 152.448 55.4682 151.665 56.3589C150.882 57.2496 149.6 57.6949 147.819 57.6949C144.58 57.6949 142.718 56.6963 142.232 54.699C141.881 55.7246 141.355 56.4803 140.653 56.9662C139.951 57.452 138.926 57.6949 137.576 57.6949C133.581 57.6949 131.584 56.062 131.584 52.7961C131.584 50.8798 132.34 49.5708 133.851 48.8691C135.39 48.1403 137.738 47.7759 140.896 47.7759ZM139.276 52.7557C139.276 54.1592 139.344 55.0633 139.479 55.4682C139.641 55.873 139.924 56.0755 140.329 56.0755C140.761 56.0755 141.152 55.7381 141.503 55.0633C141.881 54.3616 142.07 53.4034 142.07 52.1889V48.4237H141.786C140.113 48.4237 139.276 49.6518 139.276 52.1079V52.7557ZM153.399 38.0189H163.156V41.7436C164.047 38.9906 166.003 37.6141 169.026 37.6141C172.076 37.6141 173.925 39.0716 174.573 41.9865C175.517 39.0716 177.501 37.6141 180.524 37.6141C184.492 37.6141 186.476 39.8678 186.476 44.3752V56.5613H188.743V57.29H177.528V56.5613H178.945V43.4035C178.945 41.3522 178.77 40.1512 178.419 39.8003C178.257 39.6384 178.041 39.5574 177.771 39.5574C176.988 39.5574 176.3 40.0837 175.706 41.1363C175.113 42.1889 174.816 43.525 174.816 45.1444V56.5613H176.273V57.29H165.868V56.5613H167.285V43.4035C167.285 41.3522 167.11 40.1512 166.759 39.8003C166.597 39.6384 166.381 39.5574 166.111 39.5574C165.356 39.5574 164.667 40.1377 164.047 41.2983C163.453 42.4319 163.156 43.7949 163.156 45.3873V56.5613H164.613V57.29H153.399V56.5613H155.626V38.7477H153.399V38.0189ZM199.985 57.6949C196.504 57.6949 193.886 56.8042 192.131 55.0229C190.404 53.2145 189.54 50.7179 189.54 47.533C189.54 44.3212 190.512 41.8651 192.455 40.1647C194.425 38.4643 196.922 37.6141 199.945 37.6141C206.072 37.6141 209.014 40.691 208.771 46.8448H197.354V48.4237C197.354 51.0688 197.691 53.0661 198.366 54.4156C199.041 55.7651 200.215 56.4398 201.888 56.4398C205.019 56.4398 207.07 54.7664 208.042 51.4196L208.771 51.5411C208.258 53.4844 207.327 54.9959 205.977 56.0755C204.655 57.1551 202.657 57.6949 199.985 57.6949ZM197.394 46.0351H201.564V44.0513C201.564 41.8651 201.429 40.3806 201.159 39.5979C200.917 38.7882 200.404 38.3833 199.621 38.3833C198.865 38.3833 198.298 38.8152 197.921 39.6788C197.57 40.5155 197.394 41.973 197.394 44.0513V46.0351ZM227.204 47.7759H228.378V44.6586C228.378 42.0945 228.23 40.3806 227.933 39.5169C227.663 38.6262 227.123 38.1809 226.314 38.1809C225.828 38.1809 225.382 38.3158 224.978 38.5857C224.6 38.8287 224.411 39.1795 224.411 39.6384C224.411 40.0702 224.492 40.5155 224.654 40.9744H225.666C225.882 41.5412 225.99 42.2294 225.99 43.0391C225.99 43.8219 225.652 44.5101 224.978 45.1039C224.303 45.6707 223.453 45.9541 222.427 45.9541C220.106 45.9541 218.945 44.834 218.945 42.5938C218.945 39.274 221.766 37.6141 227.407 37.6141C230.619 37.6141 232.832 38.1674 234.046 39.274C235.288 40.3536 235.909 42.3509 235.909 45.2658V53.4844C235.909 54.8879 236.3 55.5896 237.083 55.5896C238 55.5896 238.54 54.1996 238.702 51.4196L239.309 51.4601C239.201 53.8353 238.756 55.4682 237.973 56.3589C237.191 57.2496 235.909 57.6949 234.127 57.6949C230.888 57.6949 229.026 56.6963 228.54 54.699C228.189 55.7246 227.663 56.4803 226.961 56.9662C226.26 57.452 225.234 57.6949 223.884 57.6949C219.89 57.6949 217.893 56.062 217.893 52.7961C217.893 50.8798 218.648 49.5708 220.16 48.8691C221.698 48.1403 224.046 47.7759 227.204 47.7759ZM225.585 52.7557C225.585 54.1592 225.652 55.0633 225.787 55.4682C225.949 55.873 226.233 56.0755 226.637 56.0755C227.069 56.0755 227.461 55.7381 227.812 55.0633C228.189 54.3616 228.378 53.4034 228.378 52.1889V48.4237H228.095C226.422 48.4237 225.585 49.6518 225.585 52.1079V52.7557ZM255.744 35.9137L256.878 35.2254C257.04 34.3887 256.716 33.9704 255.906 33.9704C254.746 33.9704 254.165 34.8611 254.165 36.6424C254.165 37.3442 254.26 38.1539 254.449 39.0716C256.5 40.4481 257.526 42.2159 257.526 44.3752C257.526 46.5074 256.783 48.1673 255.299 49.3549C253.815 50.5425 251.804 51.1362 249.267 51.1362C248.214 51.1362 247.121 51.0283 245.987 50.8124C244.8 51.5681 244.206 52.1349 244.206 52.5127C244.206 52.8906 245.07 53.0795 246.797 53.0795H250.927C257.053 53.0795 260.117 55.2793 260.117 59.6787C260.117 62.0538 259.186 63.9297 257.323 65.3062C255.488 66.7097 252.613 67.4114 248.7 67.4114C242.033 67.4114 238.7 65.9674 238.7 63.0795C238.7 61.514 239.739 60.4344 241.817 59.8406L244.246 60.9337C244.031 61.7165 243.923 62.4587 243.923 63.1604C243.923 65.4816 245.65 66.6422 249.105 66.6422C251.21 66.6422 252.829 66.2508 253.963 65.4681C255.097 64.6854 255.663 63.7137 255.663 62.5532C255.663 61.3926 255.312 60.6099 254.611 60.205C253.936 59.8271 252.573 59.6382 250.522 59.6382H246.595C244.408 59.6382 242.843 59.2738 241.898 58.5451C240.954 57.8164 240.481 56.9257 240.481 55.873C240.481 54.7934 240.819 53.9028 241.493 53.201C242.168 52.4723 243.369 51.5816 245.097 50.529C241.966 49.6383 240.4 47.587 240.4 44.3752C240.4 42.3509 241.129 40.718 242.587 39.4764C244.044 38.2349 246.23 37.6141 249.145 37.6141C250.9 37.6141 252.398 37.9515 253.639 38.6262C253.477 37.8975 253.396 37.2362 253.396 36.6424C253.396 35.131 253.801 34.0379 254.611 33.3631C255.42 32.6883 256.325 32.351 257.323 32.351C258.322 32.351 259.118 32.6209 259.712 33.1607C260.333 33.6735 260.643 34.3887 260.643 35.3064C260.643 36.2241 260.4 36.9123 259.914 37.3712C259.429 37.803 258.835 38.0189 258.133 38.0189C257.458 38.0189 256.891 37.8435 256.433 37.4926C256.001 37.1148 255.771 36.5885 255.744 35.9137ZM247.161 43.4845V45.6707C247.161 47.4791 247.31 48.7071 247.607 49.3549C247.931 50.0026 248.403 50.3265 249.024 50.3265C249.671 50.3265 250.13 50.0161 250.4 49.3954C250.697 48.7476 250.846 47.4386 250.846 45.4683V43.4845C250.846 41.3792 250.711 40.0027 250.441 39.355C250.171 38.6802 249.712 38.3428 249.064 38.3428C248.443 38.3428 247.971 38.6937 247.647 39.3954C247.323 40.0702 247.161 41.4332 247.161 43.4845ZM272.513 49.3144V45.8731C272.513 43.2551 272.364 41.3522 272.068 40.1647C271.798 38.9501 271.15 38.3428 270.124 38.3428C269.53 38.3428 269.045 38.5183 268.667 38.8691C268.316 39.193 268.06 39.7463 267.898 40.529C267.655 41.7436 267.533 43.5924 267.533 46.0756V49.2334C267.533 52.1754 267.614 53.9432 267.776 54.537C267.965 55.1308 268.154 55.6166 268.343 55.9945C268.64 56.6423 269.22 56.9662 270.084 56.9662C271.136 56.9662 271.825 56.3589 272.149 55.1443C272.391 54.2806 272.513 52.3373 272.513 49.3144ZM270.003 57.6949C266.629 57.6949 264.078 56.8312 262.351 55.1038C260.624 53.3764 259.76 50.9068 259.76 47.695C259.76 44.4561 260.678 41.973 262.513 40.2456C264.375 38.4913 266.98 37.6141 270.327 37.6141C273.673 37.6141 276.17 38.4238 277.817 40.0432C279.463 41.6356 280.286 44.0783 280.286 47.3711C280.286 54.2536 276.858 57.6949 270.003 57.6949ZM294.941 39.1525C293.942 39.1525 293.065 39.8003 292.309 41.0958C291.553 42.3914 291.175 43.9298 291.175 45.7112V56.5613H294.05V57.29H281.418V56.5613H283.645V38.7477H281.418V38.0189H291.175V41.9055C291.526 40.529 292.201 39.4764 293.2 38.7477C294.198 37.9919 295.332 37.6141 296.601 37.6141C297.869 37.6141 298.895 37.9785 299.677 38.7072C300.487 39.4089 300.892 40.4211 300.892 41.7436C300.892 43.0391 300.595 44.0378 300.001 44.7395C299.408 45.4413 298.49 45.7922 297.248 45.7922C296.034 45.7922 295.13 45.3873 294.536 44.5776C293.969 43.7679 293.901 42.6478 294.333 41.2173H295.791C296.466 39.8408 296.182 39.1525 294.941 39.1525ZM310.587 47.7759H311.761V44.6586C311.761 42.0945 311.613 40.3806 311.316 39.5169C311.046 38.6262 310.506 38.1809 309.696 38.1809C309.21 38.1809 308.765 38.3158 308.36 38.5857C307.982 38.8287 307.793 39.1795 307.793 39.6384C307.793 40.0702 307.874 40.5155 308.036 40.9744H309.049C309.264 41.5412 309.372 42.2294 309.372 43.0391C309.372 43.8219 309.035 44.5101 308.36 45.1039C307.686 45.6707 306.835 45.9541 305.81 45.9541C303.489 45.9541 302.328 44.834 302.328 42.5938C302.328 39.274 305.148 37.6141 310.789 37.6141C314.001 37.6141 316.214 38.1674 317.429 39.274C318.671 40.3536 319.291 42.3509 319.291 45.2658V53.4844C319.291 54.8879 319.683 55.5896 320.465 55.5896C321.383 55.5896 321.923 54.1996 322.085 51.4196L322.692 51.4601C322.584 53.8353 322.139 55.4682 321.356 56.3589C320.573 57.2496 319.291 57.6949 317.51 57.6949C314.271 57.6949 312.409 56.6963 311.923 54.699C311.572 55.7246 311.046 56.4803 310.344 56.9662C309.642 57.452 308.617 57.6949 307.267 57.6949C303.273 57.6949 301.275 56.062 301.275 52.7961C301.275 50.8798 302.031 49.5708 303.543 48.8691C305.081 48.1403 307.429 47.7759 310.587 47.7759ZM308.968 52.7557C308.968 54.1592 309.035 55.0633 309.17 55.4682C309.332 55.873 309.615 56.0755 310.02 56.0755C310.452 56.0755 310.843 55.7381 311.194 55.0633C311.572 54.3616 311.761 53.4034 311.761 52.1889V48.4237H311.478C309.804 48.4237 308.968 49.6518 308.968 52.1079V52.7557ZM330.446 38.0189H340.203V41.7436C340.635 40.5021 341.296 39.5034 342.187 38.7477C343.077 37.9919 344.427 37.6141 346.235 37.6141C350.419 37.6141 352.51 39.8678 352.51 44.3752V56.5613H354.778V57.29H343.32V56.5613H344.98V43.4035C344.98 41.7841 344.872 40.745 344.656 40.2861C344.44 39.8003 344.049 39.5574 343.482 39.5574C342.618 39.5574 341.849 40.1242 341.174 41.2578C340.527 42.3914 340.203 43.7679 340.203 45.3873V56.5613H341.944V57.29H330.446V56.5613H332.672V38.7477H330.446V38.0189ZM368.389 49.3144V45.8731C368.389 43.2551 368.241 41.3522 367.944 40.1647C367.674 38.9501 367.026 38.3428 366.001 38.3428C365.407 38.3428 364.921 38.5183 364.543 38.8691C364.192 39.193 363.936 39.7463 363.774 40.529C363.531 41.7436 363.409 43.5924 363.409 46.0756V49.2334C363.409 52.1754 363.49 53.9432 363.652 54.537C363.841 55.1308 364.03 55.6166 364.219 55.9945C364.516 56.6423 365.096 56.9662 365.96 56.9662C367.013 56.9662 367.701 56.3589 368.025 55.1443C368.268 54.2806 368.389 52.3373 368.389 49.3144ZM365.879 57.6949C362.505 57.6949 359.955 56.8312 358.227 55.1038C356.5 53.3764 355.636 50.9068 355.636 47.695C355.636 44.4561 356.554 41.973 358.389 40.2456C360.252 38.4913 362.856 37.6141 366.203 37.6141C369.55 37.6141 372.046 38.4238 373.693 40.0432C375.339 41.6356 376.162 44.0783 376.162 47.3711C376.162 54.2536 372.735 57.6949 365.879 57.6949ZM401.33 49.112L404.691 37.4521L402.262 29.7194H399.954V28.9502H412.504V29.7194H410.116L416.148 48.8691L421.006 29.7194H416.917V28.9502H425.015V29.7194H422.342L414.893 57.6949H411.29L405.298 39.3954L400.035 57.6949H396.513L386.31 29.7194H384.408V28.9502H397.565V29.7194H394.731L401.33 49.112ZM425.648 26.9259H435.405V41.7436C435.837 40.5021 436.498 39.5034 437.389 38.7477C438.28 37.9919 439.629 37.6141 441.437 37.6141C445.621 37.6141 447.713 39.8678 447.713 44.3752V56.5613H449.98V57.29H438.522V56.5613H440.182V43.4035C440.182 41.7841 440.074 40.745 439.858 40.2861C439.643 39.8003 439.251 39.5574 438.684 39.5574C437.821 39.5574 437.051 40.1242 436.377 41.2578C435.729 42.3914 435.405 43.7679 435.405 45.3873V56.5613H437.146V57.29H425.648V56.5613H427.875V27.6547H425.648V26.9259ZM460.312 47.7759H461.486V44.6586C461.486 42.0945 461.338 40.3806 461.041 39.5169C460.771 38.6262 460.231 38.1809 459.421 38.1809C458.936 38.1809 458.49 38.3158 458.085 38.5857C457.708 38.8287 457.519 39.1795 457.519 39.6384C457.519 40.0702 457.6 40.5155 457.762 40.9744H458.774C458.99 41.5412 459.098 42.2294 459.098 43.0391C459.098 43.8219 458.76 44.5101 458.085 45.1039C457.411 45.6707 456.561 45.9541 455.535 45.9541C453.214 45.9541 452.053 44.834 452.053 42.5938C452.053 39.274 454.874 37.6141 460.515 37.6141C463.726 37.6141 465.94 38.1674 467.154 39.274C468.396 40.3536 469.017 42.3509 469.017 45.2658V53.4844C469.017 54.8879 469.408 55.5896 470.191 55.5896C471.108 55.5896 471.648 54.1996 471.81 51.4196L472.417 51.4601C472.309 53.8353 471.864 55.4682 471.081 56.3589C470.299 57.2496 469.017 57.6949 467.235 57.6949C463.996 57.6949 462.134 56.6963 461.648 54.699C461.297 55.7246 460.771 56.4803 460.069 56.9662C459.368 57.452 458.342 57.6949 456.992 57.6949C452.998 57.6949 451.001 56.062 451.001 52.7961C451.001 50.8798 451.756 49.5708 453.268 48.8691C454.806 48.1403 457.154 47.7759 460.312 47.7759ZM458.693 52.7557C458.693 54.1592 458.76 55.0633 458.895 55.4682C459.057 55.873 459.341 56.0755 459.745 56.0755C460.177 56.0755 460.569 55.7381 460.919 55.0633C461.297 54.3616 461.486 53.4034 461.486 52.1889V48.4237H461.203C459.529 48.4237 458.693 49.6518 458.693 52.1079V52.7557ZM474.246 51.5006V38.7477H472.02V38.0189H474.246V32.7963L481.777 30.934V38.0189H487.04V38.7477H481.777V52.3913C481.777 53.6598 481.898 54.591 482.141 55.1848C482.411 55.7786 482.951 56.0755 483.761 56.0755C484.57 56.0755 485.272 55.6706 485.866 54.8609C486.487 54.0512 486.891 52.9446 487.08 51.5411L487.769 51.6221C487.553 53.4844 486.959 54.9689 485.987 56.0755C485.016 57.1551 483.41 57.6949 481.169 57.6949C478.929 57.6949 477.215 57.2496 476.028 56.3589C474.84 55.4682 474.246 53.8488 474.246 51.5006ZM489.087 57.6949V50.448H489.572C490.274 52.7961 491.219 54.4426 492.406 55.3872C493.594 56.3319 495.078 56.8042 496.86 56.8042C499.613 56.8042 500.989 55.927 500.989 54.1727C500.989 53.4169 500.652 52.8501 499.977 52.4723C498.925 51.8785 497.575 51.4196 495.929 51.0958C494.093 50.6099 492.555 49.9622 491.313 49.1525C489.829 48.1808 489.087 46.6424 489.087 44.5371C489.087 42.4319 489.734 40.7585 491.03 39.5169C492.325 38.2484 494.053 37.6141 496.212 37.6141C497.535 37.6141 498.898 37.9245 500.301 38.5453C500.814 38.7612 501.205 38.8691 501.475 38.8691C501.745 38.8691 501.974 38.7747 502.163 38.5857C502.352 38.3968 502.582 38.0459 502.852 37.5331H503.297V43.7274H502.811C501.435 40.2187 499.302 38.4643 496.414 38.4643C495.146 38.4643 494.201 38.6937 493.58 39.1525C492.96 39.5844 492.649 40.1377 492.649 40.8124C492.649 41.2173 492.744 41.5412 492.933 41.7841C493.122 42 493.27 42.162 493.378 42.2699C493.486 42.3779 493.661 42.4993 493.904 42.6343C494.147 42.7422 494.35 42.8367 494.512 42.9177C494.674 42.9717 494.917 43.0526 495.24 43.1606C495.591 43.2686 495.848 43.336 496.01 43.363C497.845 43.8219 499.167 44.2267 499.977 44.5776C500.787 44.9015 501.556 45.3063 502.285 45.7922C503.769 46.8178 504.512 48.4777 504.512 50.7719C504.512 53.0391 503.837 54.7664 502.487 55.954C501.138 57.1146 499.289 57.6949 496.941 57.6949C495.267 57.6949 493.648 57.3035 492.083 56.5208C491.759 56.3049 491.502 56.1969 491.313 56.1969C490.72 56.1969 490.139 56.6963 489.572 57.6949H489.087ZM522.795 56.5208L519.839 47.7759H511.823L508.706 56.5208H511.742V57.29H505.548V56.5208H507.451L517.774 28.7073H521.094L531.297 56.5208H533.159V57.29H519.92V56.5208H522.795ZM515.993 36.2781L512.187 46.8853H519.515L515.993 36.2781ZM548.202 46.3994C548.202 43.6194 548.067 41.7571 547.797 40.8124C547.527 39.8408 547.001 39.355 546.218 39.355C545.436 39.355 544.734 39.8678 544.113 40.8934C543.492 41.8921 543.182 43.2416 543.182 44.942V52.3508C543.182 53.5114 543.411 54.4965 543.87 55.3062C544.329 56.116 545.004 56.5208 545.894 56.5208C546.785 56.5208 547.392 55.927 547.716 54.7395C548.04 53.5519 548.202 51.4736 548.202 48.5047V46.3994ZM543.101 38.0189V41.2173C544.154 38.8152 546.016 37.6141 548.688 37.6141C551.009 37.6141 552.804 38.4508 554.072 40.1242C555.368 41.7976 556.016 44.3347 556.016 47.7355C556.016 51.1362 555.314 53.6463 553.911 55.2658C552.534 56.8852 550.456 57.6949 547.676 57.6949C546.38 57.6949 545.409 57.533 544.761 57.2091C544.113 56.8852 543.587 56.3859 543.182 55.7111V66.1968H548.405V66.9256H533.425V66.1968H535.652V38.7477H533.506V38.0189H543.101ZM572.003 46.3994C572.003 43.6194 571.868 41.7571 571.598 40.8124C571.328 39.8408 570.802 39.355 570.019 39.355C569.237 39.355 568.535 39.8678 567.914 40.8934C567.293 41.8921 566.983 43.2416 566.983 44.942V52.3508C566.983 53.5114 567.212 54.4965 567.671 55.3062C568.13 56.116 568.805 56.5208 569.695 56.5208C570.586 56.5208 571.193 55.927 571.517 54.7395C571.841 53.5519 572.003 51.4736 572.003 48.5047V46.3994ZM566.902 38.0189V41.2173C567.955 38.8152 569.817 37.6141 572.489 37.6141C574.81 37.6141 576.605 38.4508 577.874 40.1242C579.169 41.7976 579.817 44.3347 579.817 47.7355C579.817 51.1362 579.115 53.6463 577.712 55.2658C576.335 56.8852 574.257 57.6949 571.477 57.6949C570.181 57.6949 569.21 57.533 568.562 57.2091C567.914 56.8852 567.388 56.3859 566.983 55.7111V66.1968H572.206V66.9256H557.226V66.1968H559.453V38.7477H557.307V38.0189H566.902Z" fill="white"/>
<path d="M649.08 69.2901L653.85 51.4801C651.15 46.6001 649.72 41.1401 649.72 35.5901C649.72 17.4601 664.47 2.70007 682.61 2.70007C700.74 2.70007 715.5 17.4501 715.5 35.5901C715.5 53.7201 700.75 68.4801 682.61 68.4801C677.17 68.4801 671.79 67.1101 666.98 64.5001L649.08 69.2901ZM667.87 57.8201L669 58.4901C673.14 60.9601 677.85 62.2601 682.62 62.2601C697.33 62.2601 709.29 50.3001 709.29 35.5901C709.29 20.8801 697.32 8.92007 682.62 8.92007C667.91 8.92007 655.95 20.8801 655.95 35.5901C655.95 40.4501 657.3 45.2301 659.85 49.4201L660.54 50.5601L657.88 60.5001L667.87 57.8201Z" fill="white"/>
<path fill-rule="evenodd" clip-rule="evenodd" d="M694.85 40.16C693.5 39.35 691.73 38.45 690.14 39.1C688.92 39.6 688.14 41.5201 687.34 42.4901C686.93 42.9901 686.45 43.07 685.82 42.82C681.23 40.99 677.71 37.92 675.17 33.7C674.74 33.04 674.82 32.53 675.33 31.92C676.1 31.02 677.06 30 677.26 28.78C677.47 27.57 676.9 26.15 676.4 25.06C675.76 23.68 675.04 21.71 673.66 20.92C672.39 20.2 670.71 20.6 669.58 21.53C667.62 23.12 666.68 25.62 666.71 28.1C666.72 28.8 666.8 29.5001 666.97 30.1801C667.37 31.8101 668.12 33.34 668.97 34.79C669.61 35.88 670.31 36.9401 671.06 37.9601C673.52 41.3001 676.57 44.2001 680.11 46.3601C681.88 47.4401 683.78 48.39 685.75 49.04C687.96 49.77 689.93 50.5301 692.32 50.0801C694.82 49.6101 697.29 48.06 698.28 45.65C698.57 44.94 698.72 44.1401 698.56 43.3901C698.21 41.8401 696.11 40.92 694.85 40.16Z" fill="white"/>
<defs>
<filter id="filter0_d" x="603.38" y="0.469971" width="164.12" height="86.36" filterUnits="userSpaceOnUse" color-interpolation-filters="sRGB">
<feFlood flood-opacity="0" result="BackgroundImageFix"/>
<feColorMatrix in="SourceAlpha" type="matrix" values="0 0 0 0 0 0 0 0 0 0 0 0 0 0 0 0 0 0 127 0"/>
<feOffset dy="4"/>
<feGaussianBlur stdDeviation="2"/>
<feColorMatrix type="matrix" values="0 0 0 0 0 0 0 0 0 0 0 0 0 0 0 0 0 0 0.25 0"/>
<feBlend mode="normal" in2="BackgroundImageFix" result="effect1_dropShadow"/>
<feBlend mode="normal" in="SourceGraphic" in2="effect1_dropShadow" result="shape"/>
</filter>
</defs>
</svg>
